<svg width="84" height="88" viewBox="0 0 84 88" fill="url(#paint0_linear_835_11163)" xmlns="http://www.w3.org/2000/svg">
<path d="M81.8651 41.7341L74.7453 22.2371C69.8956 8.95808 57.307 0 43.3769 0H40.4877C26.6608 0 14.0722 8.95808 9.22248 22.2371L2.10268 41.7341C-1.71519 52.2731 -0.270592 63.9713 5.92054 73.2455C12.2149 82.4144 22.4302 88 33.4711 88C36.2571 88 39.2495 87.5784 42.0355 86.8407C44.8215 87.5784 47.8139 88 50.5999 88C61.5376 88 71.8561 82.5198 78.1505 73.2455C84.3416 63.9713 85.683 52.1677 81.8651 41.7341ZM76.6027 72.1916C70.7211 80.8335 60.9185 86.103 50.4967 86.103C47.7107 86.103 44.9247 85.6814 42.1387 84.9437L41.9323 84.8383L41.7259 84.9437C39.0431 85.6814 36.1539 86.103 33.3679 86.103C22.9462 86.103 13.2467 80.9389 7.26196 72.1916C1.38038 63.4443 -0.0642216 52.2731 3.65046 42.3665L10.7703 22.8695C15.4136 10.3281 27.28 1.79162 40.4877 1.79162H43.3769C56.4815 1.79162 68.451 10.2228 73.0944 22.8695L80.2142 42.3665C83.9289 52.2731 82.4843 63.4443 76.6027 72.1916ZM78.7696 42.8934L71.6498 23.3964C67.316 11.4874 55.9656 3.37246 43.4801 3.37246H40.5909C28.1054 3.37246 16.755 11.382 12.4212 23.3964L5.19824 42.8934C1.68993 52.3784 3.03135 62.9174 8.70655 71.2431C14.3818 79.5689 23.5653 84.5222 33.4711 84.5222C36.2571 84.5222 39.2495 84.1006 42.0355 83.2575C44.8215 84.1006 47.7107 84.5222 50.5999 84.5222C60.5057 84.5222 69.6892 79.5689 75.3644 71.2431C80.9365 62.9174 82.1747 52.3784 78.7696 42.8934ZM73.8167 70.1892C68.5542 77.988 59.8866 82.6252 50.4967 82.6252C47.7107 82.6252 44.9247 82.2036 42.2419 81.3605L42.0355 81.2551L41.8291 81.3605C39.1463 82.2036 36.2571 82.6252 33.5743 82.6252C24.2876 82.6252 15.5168 77.988 10.2543 70.1892C4.99187 62.3904 3.75365 52.3784 6.9524 43.5257L14.0722 24.0287C18.0964 12.7521 28.8277 5.26946 40.5909 5.26946H43.4801C55.2433 5.26946 65.8714 12.8575 69.9988 24.1341L77.1186 43.6311C80.3174 52.3784 79.1823 62.3904 73.8167 70.1892ZM75.5708 44.0527L68.451 24.5557C64.53 14.0168 54.521 6.8503 43.3769 6.8503H40.4877C29.3437 6.8503 19.3347 14.0168 15.4136 24.5557L8.29381 44.0527C5.19824 52.4838 6.33329 61.8635 11.3894 69.2407C16.3423 76.618 24.5971 81.0443 33.3679 81.0443C36.2571 81.0443 39.1463 80.5174 41.9323 79.5689C44.7183 80.5174 47.6075 81.0443 50.4967 81.0443C59.2675 81.0443 67.5223 76.618 72.4753 69.2407C77.5313 61.8635 78.6664 52.4838 75.5708 44.0527ZM71.1338 68.2922C66.3873 75.1425 58.7516 79.2527 50.4967 79.2527C47.7107 79.2527 44.8215 78.7258 42.2419 77.7773L41.9323 77.6719L41.6228 77.7773C38.9399 78.7258 36.1539 79.2527 33.3679 79.2527C25.2163 79.2527 17.4773 75.1425 12.834 68.2922C8.19063 61.3365 7.15877 52.5892 9.94478 44.685L17.0646 25.188C20.6761 15.2814 30.066 8.64192 40.4877 8.64192H43.3769C53.7987 8.64192 63.1885 15.2814 66.8 25.188L73.9198 44.685C76.809 52.5892 75.7772 61.3365 71.1338 68.2922ZM65.3554 25.8204C61.9503 16.5461 53.0764 10.3281 43.3769 10.3281H40.4877C30.7883 10.3281 21.9143 16.5461 18.6124 25.8204L11.4926 45.3174C8.80974 52.6946 9.8416 60.915 14.1754 67.3437C18.5092 73.7725 25.7322 77.5665 33.3679 77.5665C36.2571 77.5665 39.2495 77.0395 41.9323 75.8802C44.6151 76.9341 47.6075 77.5665 50.4967 77.5665C58.1325 77.5665 65.3554 73.7725 69.6892 67.2383C74.023 60.8096 75.0549 52.5892 72.3721 45.212L65.3554 25.8204ZM68.3478 66.2898C64.3236 72.297 57.6165 75.7749 50.5999 75.7749C47.8139 75.7749 44.9247 75.2479 42.3451 74.0886L42.0355 73.9832L41.7259 74.0886C39.1463 75.1425 36.2571 75.7749 33.4711 75.7749C26.3513 75.7749 19.7474 72.1916 15.7232 66.2898C11.6989 60.2826 10.7703 52.6946 13.2467 45.9497L20.3665 26.4527C23.4621 17.8108 31.6138 12.1198 40.6941 12.1198H43.5833C52.5604 12.1198 60.7121 17.9162 63.9108 26.4527L71.0307 45.9497C73.3007 52.6946 72.3721 60.2826 68.3478 66.2898ZM62.1567 26.9796C59.2675 19.0755 51.7349 13.7006 43.3769 13.7006H40.4877C32.1297 13.7006 24.5971 19.0755 21.7079 26.9796L14.5881 46.4766C12.318 52.8 13.1435 59.8611 16.8582 65.3413C20.5729 70.8216 26.764 74.194 33.3679 74.194C36.3603 74.194 39.2495 73.5617 41.9323 72.297C44.6151 73.5617 47.5043 74.194 50.4967 74.194C57.1006 74.194 63.1885 70.9269 67.0064 65.3413C70.7211 59.8611 71.6498 52.8 69.2765 46.4766L62.1567 26.9796ZM65.5618 64.2874C62.1567 69.3461 56.4815 72.297 50.4967 72.297C47.7107 72.297 44.8215 71.6647 42.3451 70.2946L41.9323 70.0838L41.5196 70.2946C39.0431 71.5593 36.1539 72.297 33.3679 72.297C27.3831 72.297 21.7079 69.2407 18.3028 64.2874C14.8977 59.2287 14.0722 52.8 16.2391 47.109L23.3589 27.612C26.0417 20.3401 32.9552 15.4922 40.4877 15.4922H43.3769C51.0126 15.4922 57.8229 20.3401 60.5057 27.612L67.6255 47.109C69.7924 52.9054 68.9669 59.3341 65.5618 64.2874ZM59.0611 28.2443C56.5847 21.6048 50.3935 17.1784 43.3769 17.1784H40.4877C33.5743 17.1784 27.28 21.6048 24.8035 28.2443L17.6837 47.7413C15.7232 53.0108 16.4455 58.8072 19.6442 63.4443C22.7398 68.0814 27.8991 70.8216 33.3679 70.8216C36.3603 70.8216 39.3527 69.9784 41.9323 68.3976C44.512 69.9784 47.5043 70.8216 50.4967 70.8216C55.9656 70.8216 61.1248 68.0814 64.2204 63.4443C67.316 58.8072 68.0383 53.0108 66.1809 47.7413L59.0611 28.2443ZM62.7758 62.3904C59.9898 66.5006 55.3464 68.9246 50.4967 68.9246C47.6075 68.9246 44.8215 68.0814 42.4482 66.5006L41.9323 66.1844L41.4164 66.5006C39.0431 68.0814 36.2571 68.9246 33.3679 68.9246C28.5182 68.9246 23.8748 66.5006 21.0888 62.3904C18.3028 58.2802 17.6837 53.0108 19.3347 48.3737L26.4545 28.8766C28.6214 22.9749 34.2966 18.9701 40.4877 18.9701H43.3769C49.568 18.9701 55.2433 22.9749 57.4102 28.8766L64.53 48.3737C66.2841 53.0108 65.665 58.2802 62.7758 62.3904ZM55.8624 29.4036C53.9018 24.1341 48.9489 20.5509 43.3769 20.5509H40.4877C34.9157 20.5509 29.9628 24.1341 28.0023 29.4036L20.8825 48.9006C19.3347 53.1162 19.9538 57.7533 22.4302 61.4419C24.9067 65.1305 29.0341 67.3437 33.3679 67.3437C36.5667 67.3437 39.559 66.1844 41.9323 64.182C44.3056 66.1844 47.298 67.3437 50.4967 67.3437C54.8305 67.3437 58.9579 65.1305 61.4344 61.4419C63.9108 57.7533 64.53 53.1162 62.9822 48.9006L55.8624 29.4036ZM60.093 60.388C57.9261 63.5497 54.4178 65.4467 50.5999 65.4467C47.6075 65.4467 44.8215 64.2874 42.6546 62.1796L42.0355 61.5473L41.4164 62.1796C39.2495 64.2874 36.4635 65.4467 33.4711 65.4467C29.6532 65.4467 26.1449 63.5497 23.978 60.388C21.8111 57.2264 21.2952 53.1162 22.6366 49.5329L29.7564 30.0359C31.4074 25.3988 35.8444 22.3425 40.5909 22.3425H43.4801C48.3298 22.3425 52.6636 25.3988 54.3146 30.0359L61.4344 49.5329C62.7758 53.2216 62.2599 57.2264 60.093 60.388ZM52.7668 30.5629C51.3222 26.5581 47.5043 23.9234 43.3769 23.9234H40.4877C36.3603 23.9234 32.5424 26.5581 31.0978 30.5629L23.978 50.0599C22.843 53.2216 23.2557 56.6994 25.1131 59.4395C26.9704 62.1796 30.066 63.8659 33.3679 63.8659C36.8762 63.8659 40.1782 61.9689 41.9323 58.9126C43.6865 61.9689 46.9884 63.8659 50.4967 63.8659C53.7987 63.8659 56.791 62.1796 58.7516 59.4395C60.6089 56.6994 61.0216 53.2216 59.8866 50.0599L52.7668 30.5629ZM57.307 58.491C55.7592 60.8096 53.2827 62.0743 50.4967 62.0743C47.1948 62.0743 44.2024 60.0719 42.861 56.9102L42.6546 56.3832H41.21L41.0036 56.9102C39.7654 60.0719 36.6699 62.0743 33.3679 62.0743C30.6851 62.0743 28.1054 60.7042 26.5577 58.491C25.0099 56.2778 24.7003 53.3269 25.7322 50.6922L32.852 31.1952C34.0902 27.9281 37.1858 25.715 40.5909 25.715H43.4801C46.8852 25.715 49.9808 27.9281 51.219 31.1952L58.3388 50.6922C59.1643 53.3269 58.8547 56.1725 57.307 58.491ZM49.568 31.8275C48.6394 29.1928 46.0597 27.4012 43.3769 27.4012H40.4877C37.7017 27.4012 35.2252 29.1928 34.2966 31.8275L27.1768 51.3246C26.4545 53.4323 26.6608 55.7509 27.8991 57.5425C29.1373 59.3341 31.201 60.4934 33.3679 60.4934C36.1539 60.4934 38.6304 58.7018 39.559 56.0671L39.9718 54.8024H43.6865L44.0992 56.0671C45.0279 58.8072 47.5043 60.5988 50.3935 60.5988C52.5604 60.5988 54.6241 59.5449 55.8624 57.6479C57.1006 55.8563 57.4102 53.5377 56.5847 51.4299L49.568 31.8275ZM54.521 56.4886C53.5923 57.8587 52.1477 58.5964 50.4967 58.5964C48.433 58.5964 46.5757 57.2263 45.8534 55.3293L45.0279 52.9054H38.8367L37.9081 55.3293C37.1858 57.3317 35.3284 58.5964 33.3679 58.5964C31.7169 58.5964 30.2723 57.7533 29.3437 56.4886C28.415 55.1186 28.2086 53.4323 28.8277 51.8515L35.9476 32.3545C36.6699 30.4575 38.5272 29.0874 40.4877 29.0874H43.3769C45.4406 29.0874 47.1948 30.3521 47.9171 32.3545L55.0369 51.8515C55.656 53.4323 55.4496 55.224 54.521 56.4886ZM46.4725 32.9868C45.9565 31.7222 44.7183 30.7737 43.3769 30.7737H40.4877C39.1463 30.7737 37.9081 31.6168 37.3921 32.9868L30.2723 52.4838C29.8596 53.5377 30.066 54.697 30.6851 55.5401C31.3042 56.4886 32.3361 57.0156 33.3679 57.0156C34.7093 57.0156 35.9476 56.1725 36.4635 54.8024L37.3921 52.2731C37.5985 51.6407 38.2176 51.2192 38.8367 51.2192H45.1311C45.7502 51.2192 46.3693 51.6407 46.5757 52.2731L47.4011 54.8024C47.9171 56.1725 49.1553 57.0156 50.4967 57.0156C51.5286 57.0156 52.5604 56.4886 53.1795 55.5401C53.7987 54.5916 53.9018 53.4323 53.5923 52.4838L46.4725 32.9868ZM51.8381 54.5916C51.5286 55.0132 51.1158 55.224 50.5999 55.224C49.9808 55.224 49.3617 54.8024 49.1553 54.1701L48.3298 51.6407C47.8139 50.2707 46.5757 49.4275 45.2343 49.4275H38.9399C37.5985 49.4275 36.3603 50.2707 35.8444 51.6407L34.9157 54.1701C34.7093 54.8024 34.0902 55.224 33.4711 55.224C32.9552 55.224 32.5424 55.0132 32.2329 54.5916C31.9233 54.1701 31.9233 53.6431 32.0265 53.1162L39.1463 33.6192C39.3527 32.9868 39.9718 32.5653 40.5909 32.5653H43.4801C44.0992 32.5653 44.7183 32.9868 44.9247 33.6192L52.0445 53.1162C52.1477 53.6431 52.0445 54.1701 51.8381 54.5916Z"/>
<defs>
<linearGradient id="paint0_linear_835_11163" x1="7.06755" y1="73.67" x2="74.2977" y2="23.9004" gradientUnits="userSpaceOnUse">
<stop stop-color="#005BAA"/>
<stop offset="1" stop-color="#00C2F3"/>
</linearGradient>
</defs>
</svg>
