<svg width="110" height="51" viewBox="0 0 110 51" fill="none" xmlns="http://www.w3.org/2000/svg">
<path d="M23.5219 29.3449H10.0512L7.14981 37.3673H0L12.4345 3.48322H21.035L33.4694 37.3673H26.216L23.5219 29.3449ZM21.1386 22.6947L16.7865 10.3445L12.4345 22.6947H21.1386Z" fill="white"/>
<path d="M37.9238 0H44.7628V37.2619H37.9238V0Z" fill="white"/>
<path d="M76.8868 10.6623V37.5796C76.8868 45.4964 71.8093 50.5632 63.9341 50.5632C57.6133 50.5632 51.7069 47.2909 50.6707 40.3241H57.7169C58.4422 43.2797 60.9291 44.4408 63.7269 44.4408C67.8717 44.4408 70.0478 42.2241 70.0478 37.7907V33.3572C68.1826 35.8906 65.4885 37.474 61.8617 37.474C55.0227 37.474 49.9453 31.7739 49.9453 23.7515C49.9453 15.7291 55.1264 10.029 61.8617 10.029C65.4885 10.029 68.2862 11.7179 70.0478 14.2513V10.5568H76.8868V10.6623ZM70.1514 23.7515C70.1514 19.6347 67.25 16.6791 63.416 16.6791C59.5821 16.6791 56.7843 19.6347 56.7843 23.7515C56.7843 27.8682 59.6857 30.8239 63.416 30.8239C67.25 30.9294 70.1514 27.9738 70.1514 23.7515Z" fill="white"/>
<path d="M109.219 10.6638V37.2643H102.38V33.6753C100.618 36.2087 97.8204 37.7921 94.1937 37.7921C87.3547 37.7921 82.2773 32.092 82.2773 23.8585C82.2773 15.625 87.4584 9.92487 94.1937 9.92487C97.924 9.92487 100.618 11.7193 102.483 14.2527V10.5582H109.219V10.6638ZM102.38 23.964C102.38 19.6362 99.4783 16.6806 95.6444 16.6806C91.8104 16.6806 89.0127 19.6362 89.0127 23.964C89.0127 28.3975 91.914 31.2475 95.6444 31.2475C99.4783 31.2475 102.38 28.3975 102.38 23.964Z" fill="white"/>
</svg>
