<svg width="1400" height="900" viewBox="0 0 1400 900" fill="none" xmlns="http://www.w3.org/2000/svg">
<g style="mix-blend-mode:screen" opacity="0.55">
<path d="M-279.309 2518.76L-196.071 2522.91C-112.832 2527.06 53.6444 2535.36 213.647 2539.91C373.649 2544.47 527.177 2545.29 593.24 2495.62L634.658 2423.88C643.391 2372.98 629.106 2308.8 613.678 2243.96C589.456 2142.15 562.414 2038.72 541.997 1939.12C521.579 1839.51 507.785 1743.73 486.799 1643.79C465.814 1543.86 437.636 1439.77 423.117 1343.57C408.597 1247.36 407.735 1159.05 399.877 1066.69C392.019 974.336 377.165 877.941 476.639 847.553C576.114 817.166 789.916 852.785 849.446 799.336C908.977 745.887 814.234 603.368 778.959 495.183C743.683 386.997 767.874 313.145 808.373 248.709C848.873 184.272 905.683 129.252 962.613 74.3011C1019.54 19.3506 1076.59 -35.5303 1140.33 -86.5506C1204.07 -137.571 1274.49 -184.731 1309.35 -252.423C1344.22 -320.114 1343.52 -408.337 1259.7 -544.546C1175.89 -680.756 1008.95 -864.953 987.012 -965.441C965.069 -1065.93 1088.11 -1082.71 1149.64 -1091.1L1211.16 -1099.49L2304.44 -468.278L634.658 2423.88C629.681 2452.89 617.225 2477.58 593.24 2495.62L365.08 2890.8L-279.309 2518.76Z" fill="url(#paint0_linear_2877_23065)"/>
</g>
<defs>
<linearGradient id="paint0_linear_2877_23065" x1="1278.56" y1="-795.793" x2="1199.19" y2="647.979" gradientUnits="userSpaceOnUse">
<stop stop-color="#373C6A"/>
<stop offset="1" stop-color="#212547"/>
</linearGradient>
</defs>
</svg>
