<svg width="375" height="455" viewBox="0 0 375 455" fill="none" xmlns="http://www.w3.org/2000/svg">
<g style="mix-blend-mode:luminosity" opacity="0.3">
<path d="M1977.79 466.951L1951.27 518.685C1924.74 570.42 1871.69 673.888 1818.63 772.142C1765.58 870.395 1712.52 963.433 1659.47 986.017L1601.68 986.017C1567.89 973.541 1534.09 942.524 1500.3 910.587C1447.25 860.444 1394.19 808.03 1341.14 760.952C1288.08 713.874 1235.03 672.131 1181.97 624.596C1128.92 577.06 1075.86 523.732 1022.81 481.405C969.754 439.078 916.699 407.753 863.644 370.792C810.589 333.831 757.535 291.234 704.48 340.731C651.425 390.228 598.37 531.818 545.315 549.14C492.26 566.461 439.206 459.514 386.151 400.467C333.096 341.421 280.041 330.276 226.987 332.268C173.932 334.26 120.877 349.389 67.8222 364.616C14.7674 379.843 -38.2875 395.167 -91.3423 415.877C-144.397 436.588 -197.452 462.684 -250.507 460.134C-303.562 457.585 -356.616 426.391 -409.671 328.245C-462.726 230.099 -515.781 65.0022 -568.835 16.6956C-621.89 -31.611 -674.945 36.8729 -701.472 71.1149L-728 105.357L-728 986.017L1601.68 986.017C1620.94 993.128 1640.2 994.216 1659.47 986.017L1977.79 986.017L1977.79 466.951Z" fill="url(#paint0_linear_3282_24694)"/>
</g>
<defs>
<linearGradient id="paint0_linear_3282_24694" x1="-568.038" y1="252.006" x2="331.886" y2="707.637" gradientUnits="userSpaceOnUse">
<stop stop-color="#373C6A"/>
<stop offset="1" stop-color="#212547"/>
</linearGradient>
</defs>
</svg>
