<svg width="1200" height="1370" viewBox="0 0 1200 1370" fill="none" xmlns="http://www.w3.org/2000/svg">
<g style="mix-blend-mode:luminosity" opacity="0.3">
<path d="M-622.636 1459.52L-644.165 1405.51C-665.693 1351.51 -708.75 1243.5 -747.878 1138.91C-787.006 1034.33 -822.205 933.177 -804.328 878.357L-766.326 834.824C-734.704 817.571 -689.115 812.511 -642.832 808.057C-570.167 801.064 -495.791 795.564 -425.435 786.556C-355.078 777.548 -288.741 765.03 -218.041 756.323C-147.34 747.615 -72.2749 742.717 -5.49788 730.584C61.2792 718.451 119.769 699.084 182.503 683.422C245.238 667.76 312.218 655.804 309.82 583.285C307.422 510.766 235.647 377.684 257.489 326.325C279.33 274.965 394.788 305.329 474.161 304.191C553.533 303.053 596.82 270.415 630.21 229.136C663.599 187.858 687.092 137.94 710.511 87.9576C733.931 37.9756 757.277 -12.0705 776.566 -65.6585C795.854 -119.246 811.086 -176.376 847.896 -214.668C884.707 -252.96 943.098 -272.414 1051.93 -247.839C1160.75 -223.264 1320.02 -154.659 1391.3 -162.86C1462.58 -171.06 1445.88 -256.066 1437.53 -298.568L1429.18 -341.071L765.741 -920.219L-766.326 834.824C-784.35 844.658 -797.837 858.454 -804.328 878.357L-1013.67 1118.17L-622.636 1459.52Z" fill="url(#paint0_linear_2958_26060)"/>
</g>
<defs>
<linearGradient id="paint0_linear_2958_26060" x1="1213.51" y1="-317.006" x2="278.443" y2="61.3069" gradientUnits="userSpaceOnUse">
<stop stop-color="#373C6A"/>
<stop offset="1" stop-color="#212547"/>
</linearGradient>
</defs>
</svg>
