<svg width="70" height="71" viewBox="0 0 70 71" fill="none" xmlns="http://www.w3.org/2000/svg">
<circle cx="35" cy="35.0576" r="35" fill="#003870"/>
<path d="M53.9834 33.9762L50.593 24.6708C48.2836 18.3331 42.289 14.0576 35.6557 14.0576H34.2799C27.6956 14.0576 21.701 18.3331 19.3917 24.6708L16.0013 33.9762C14.1832 39.0061 14.8711 44.5894 17.8193 49.0157C20.8166 53.3918 25.6811 56.0576 30.9386 56.0576C32.2653 56.0576 33.6902 55.8564 35.0169 55.5043C36.3436 55.8564 37.7685 56.0576 39.0952 56.0576C44.3036 56.0576 49.2172 53.442 52.2145 49.0157C55.1627 44.5894 55.8014 38.9558 53.9834 33.9762ZM51.4775 48.5127C48.6767 52.6373 44.0088 55.1522 39.0461 55.1522C37.7194 55.1522 36.3927 54.951 35.066 54.5989L34.9678 54.5486L34.8695 54.5989C33.592 54.951 32.2162 55.1522 30.8895 55.1522C25.9267 55.1522 21.308 52.6876 18.4581 48.5127C15.6573 44.3379 14.9694 39.0061 16.7383 34.278L20.1287 24.9726C22.3398 18.987 27.9905 14.9127 34.2799 14.9127H35.6557C41.8959 14.9127 47.5957 18.9367 49.8068 24.9726L53.1972 34.278C54.9661 39.0061 54.2782 44.3379 51.4775 48.5127ZM52.5093 34.5295L49.1189 25.2241C47.0552 19.5403 41.6503 15.6672 35.7048 15.6672H34.329C28.3835 15.6672 22.9786 19.49 20.9149 25.2241L17.4754 34.5295C15.8047 39.0564 16.4435 44.0864 19.146 48.06C21.8485 52.0337 26.2216 54.3977 30.9386 54.3977C32.2653 54.3977 33.6902 54.1965 35.0169 53.7941C36.3436 54.1965 37.7194 54.3977 39.0952 54.3977C43.8122 54.3977 48.1853 52.0337 50.8878 48.06C53.5412 44.0864 54.1308 39.0564 52.5093 34.5295ZM50.1508 47.557C47.6449 51.2792 43.5174 53.4924 39.0461 53.4924C37.7194 53.4924 36.3927 53.2912 35.1152 52.8888L35.0169 52.8385L34.9186 52.8888C33.6411 53.2912 32.2653 53.4924 30.9878 53.4924C26.5655 53.4924 22.389 51.2792 19.883 47.557C17.3771 43.8349 16.7875 39.0564 18.3107 34.8313L21.701 25.5259C23.6174 20.1438 28.7275 16.5726 34.329 16.5726H35.7048C41.3063 16.5726 46.3673 20.1941 48.3328 25.5762L51.7231 34.8816C53.2464 39.0564 52.7059 43.8349 50.1508 47.557ZM50.9861 35.0828L47.5957 25.7774C45.7285 20.7474 40.9624 17.3271 35.6557 17.3271H34.2799C28.9732 17.3271 24.207 20.7474 22.3398 25.7774L18.9494 35.0828C17.4754 39.1067 18.0159 43.5834 20.4235 47.1043C22.782 50.6253 26.7129 52.7379 30.8895 52.7379C32.2653 52.7379 33.6411 52.4864 34.9678 52.0337C36.2944 52.4864 37.6702 52.7379 39.0461 52.7379C43.2226 52.7379 47.1535 50.6253 49.512 47.1043C51.9197 43.5834 52.4602 39.1067 50.9861 35.0828ZM48.8733 46.6516C46.613 49.9211 42.9769 51.8828 39.0461 51.8828C37.7194 51.8828 36.3436 51.6313 35.1152 51.1786L34.9678 51.1283L34.8204 51.1786C33.5428 51.6313 32.2162 51.8828 30.8895 51.8828C27.0077 51.8828 23.3225 49.9211 21.1114 46.6516C18.9003 43.3319 18.4089 39.157 19.7356 35.3846L23.126 26.0792C24.8458 21.351 29.3171 18.1822 34.2799 18.1822H35.6557C40.6184 18.1822 45.0898 21.351 46.8095 26.0792L50.1999 35.3846C51.5757 39.157 51.0844 43.3319 48.8733 46.6516ZM46.1216 26.381C44.5002 21.9546 40.2745 18.987 35.6557 18.987H34.2799C29.6611 18.987 25.4354 21.9546 23.863 26.381L20.4726 35.6864C19.1951 39.2073 19.6865 43.1307 21.7502 46.1989C23.8139 49.2672 27.2534 51.078 30.8895 51.078C32.2653 51.078 33.6902 50.8265 34.9678 50.2732C36.2453 50.7762 37.6702 51.078 39.0461 51.078C42.6821 51.078 46.1216 49.2672 48.1853 46.1486C50.2491 43.0804 50.7404 39.157 49.4629 35.6361L46.1216 26.381ZM47.5466 45.6959C45.6303 48.563 42.4364 50.2229 39.0952 50.2229C37.7685 50.2229 36.3927 49.9714 35.1643 49.4181L35.0169 49.3678L34.8695 49.4181C33.6411 49.9211 32.2653 50.2229 30.9386 50.2229C27.5482 50.2229 24.4035 48.5127 22.4872 45.6959C20.5709 42.8289 20.1287 39.2073 21.308 35.9882L24.6983 26.6828C26.1724 22.5582 30.0542 19.842 34.3781 19.842H35.7539C40.0288 19.842 43.9105 22.6085 45.4337 26.6828L48.8241 35.9882C49.9051 39.2073 49.4629 42.8289 47.5466 45.6959ZM44.5984 26.9343C43.2226 23.1618 39.6357 20.5965 35.6557 20.5965H34.2799C30.2998 20.5965 26.7129 23.1618 25.3371 26.9343L21.9467 36.2397C20.8657 39.2576 21.2588 42.6277 23.0277 45.2432C24.7966 47.8588 27.7448 49.4684 30.8895 49.4684C32.3144 49.4684 33.6902 49.1666 34.9678 48.563C36.2453 49.1666 37.6211 49.4684 39.0461 49.4684C42.1908 49.4684 45.0898 47.9091 46.9078 45.2432C48.6767 42.6277 49.1189 39.2576 47.9888 36.2397L44.5984 26.9343ZM46.2199 44.7403C44.5984 47.1546 41.8959 48.563 39.0461 48.563C37.7194 48.563 36.3436 48.2612 35.1643 47.6073L34.9678 47.5067L34.7712 47.6073C33.592 48.2109 32.2162 48.563 30.8895 48.563C28.0396 48.563 25.3371 47.1043 23.7156 44.7403C22.0941 42.3259 21.701 39.2576 22.7329 36.5415L26.1233 27.2361C27.4008 23.7654 30.6929 21.4516 34.2799 21.4516H35.6557C39.2917 21.4516 42.5347 23.7654 43.8122 27.2361L47.2026 36.5415C48.2345 39.3079 47.8414 42.3762 46.2199 44.7403ZM43.1243 27.5379C41.9451 24.369 38.9969 22.2564 35.6557 22.2564H34.2799C30.9878 22.2564 27.9905 24.369 26.8112 27.5379L23.4208 36.8432C22.4872 39.3582 22.8312 42.1247 24.3544 44.3379C25.8285 46.551 28.2853 47.8588 30.8895 47.8588C32.3144 47.8588 33.7394 47.4564 34.9678 46.7019C36.1962 47.4564 37.6211 47.8588 39.0461 47.8588C41.6503 47.8588 44.1071 46.551 45.5811 44.3379C47.0552 42.1247 47.3992 39.3582 46.5147 36.8432L43.1243 27.5379ZM44.8932 43.8349C43.5666 45.7965 41.3554 46.9534 39.0461 46.9534C37.6702 46.9534 36.3436 46.551 35.2134 45.7965L34.9678 45.6456L34.7221 45.7965C33.592 46.551 32.2653 46.9534 30.8895 46.9534C28.5801 46.9534 26.369 45.7965 25.0423 43.8349C23.7156 41.8732 23.4208 39.3582 24.207 37.145L27.5974 27.8397C28.6292 25.0229 31.3317 23.1115 34.2799 23.1115H35.6557C38.6038 23.1115 41.3063 25.0229 42.3382 27.8397L45.7285 37.145C46.5639 39.3582 46.269 41.8732 44.8932 43.8349ZM41.6011 28.0912C40.6675 25.5762 38.309 23.866 35.6557 23.866H34.2799C31.6265 23.866 29.268 25.5762 28.3344 28.0912L24.944 37.3965C24.207 39.4085 24.5018 41.6217 25.6811 43.3822C26.8603 45.1426 28.8258 46.1989 30.8895 46.1989C32.4127 46.1989 33.8376 45.6456 34.9678 44.69C36.0979 45.6456 37.5228 46.1989 39.0461 46.1989C41.1098 46.1989 43.0752 45.1426 44.2545 43.3822C45.4337 41.6217 45.7285 39.4085 44.9915 37.3965L41.6011 28.0912ZM43.6157 42.8792C42.5838 44.3882 40.9132 45.2935 39.0952 45.2935C37.6702 45.2935 36.3436 44.7403 35.3117 43.7343L35.0169 43.4325L34.7221 43.7343C33.6902 44.7403 32.3636 45.2935 30.9386 45.2935C29.1206 45.2935 27.45 44.3882 26.4181 42.8792C25.3862 41.3702 25.1406 39.4085 25.7793 37.6983L29.1697 28.3929C29.9559 26.1798 32.0687 24.7211 34.329 24.7211H35.7048C38.0142 24.7211 40.0779 26.1798 40.8641 28.3929L44.2545 37.6983C44.8932 39.4588 44.6476 41.3702 43.6157 42.8792ZM40.127 28.6444C39.4391 26.7331 37.6211 25.4756 35.6557 25.4756H34.2799C32.3144 25.4756 30.4964 26.7331 29.8085 28.6444L26.4181 37.9498C25.8776 39.4588 26.0742 41.1187 26.9586 42.4265C27.843 43.7343 29.3171 44.5391 30.8895 44.5391C32.5601 44.5391 34.1325 43.6337 34.9678 42.175C35.8031 43.6337 37.3754 44.5391 39.0461 44.5391C40.6184 44.5391 42.0433 43.7343 42.9769 42.4265C43.8614 41.1187 44.0579 39.4588 43.5174 37.9498L40.127 28.6444ZM42.289 41.9738C41.552 43.0804 40.3727 43.684 39.0461 43.684C37.4737 43.684 36.0488 42.7283 35.41 41.2193L35.3117 40.9678H34.6238L34.5255 41.2193C33.9359 42.7283 32.4618 43.684 30.8895 43.684C29.6119 43.684 28.3835 43.0301 27.6465 41.9738C26.9095 40.9175 26.7621 39.5091 27.2534 38.2516L30.6438 28.9462C31.2334 27.387 32.7075 26.3307 34.329 26.3307H35.7048C37.3263 26.3307 38.8004 27.387 39.39 28.9462L42.7804 38.2516C43.1735 39.5091 43.0261 40.8672 42.289 41.9738ZM38.6038 29.248C38.1616 27.9906 36.9332 27.1355 35.6557 27.1355H34.2799C32.9532 27.1355 31.7739 27.9906 31.3317 29.248L27.9413 38.5534C27.5974 39.5594 27.6956 40.666 28.2853 41.5211C28.8749 42.3762 29.8576 42.9295 30.8895 42.9295C32.2162 42.9295 33.3954 42.0744 33.8376 40.8169L34.0342 40.2133H35.8031L35.9996 40.8169C36.4418 42.1247 37.6211 42.9798 38.9969 42.9798C40.0288 42.9798 41.0115 42.4768 41.6011 41.5714C42.1908 40.7163 42.3382 39.6097 41.9451 38.6037L38.6038 29.248ZM40.9624 41.0181C40.5201 41.672 39.8322 42.0241 39.0461 42.0241C38.0633 42.0241 37.1789 41.3702 36.8349 40.4648L36.4418 39.3079H33.4937L33.0515 40.4648C32.7075 41.4205 31.8231 42.0241 30.8895 42.0241C30.1033 42.0241 29.4154 41.6217 28.9732 41.0181C28.531 40.3642 28.4327 39.5594 28.7275 38.8049L32.1179 29.4995C32.4618 28.5941 33.3463 27.9403 34.2799 27.9403H35.6557C36.6384 27.9403 37.4737 28.5438 37.8177 29.4995L41.208 38.8049C41.5029 39.5594 41.4046 40.4145 40.9624 41.0181ZM37.1297 29.8013C36.8841 29.1977 36.2944 28.745 35.6557 28.745H34.2799C33.6411 28.745 33.0515 29.1474 32.8058 29.8013L29.4154 39.1067C29.2189 39.6097 29.3171 40.163 29.6119 40.5654C29.9068 41.0181 30.3981 41.2696 30.8895 41.2696C31.5282 41.2696 32.1179 40.8672 32.3636 40.2133L32.8058 39.0061C32.9041 38.7043 33.1989 38.5031 33.4937 38.5031H36.491C36.7858 38.5031 37.0806 38.7043 37.1789 39.0061L37.572 40.2133C37.8177 40.8672 38.4073 41.2696 39.0461 41.2696C39.5374 41.2696 40.0288 41.0181 40.3236 40.5654C40.6184 40.1127 40.6675 39.5594 40.5201 39.1067L37.1297 29.8013ZM39.6848 40.1127C39.5374 40.3139 39.3409 40.4145 39.0952 40.4145C38.8004 40.4145 38.5056 40.2133 38.4073 39.9115L38.0142 38.7043C37.7685 38.0504 37.1789 37.648 36.5401 37.648H33.5428C32.9041 37.648 32.3144 38.0504 32.0687 38.7043L31.6265 39.9115C31.5282 40.2133 31.2334 40.4145 30.9386 40.4145C30.6929 40.4145 30.4964 40.3139 30.349 40.1127C30.2016 39.9115 30.2016 39.66 30.2507 39.4085L33.6411 30.1031C33.7394 29.8013 34.0342 29.6001 34.329 29.6001H35.7048C35.9996 29.6001 36.2944 29.8013 36.3927 30.1031L39.7831 39.4085C39.8322 39.66 39.7831 39.9115 39.6848 40.1127Z" fill="url(#paint0_linear)"/>
<defs>
<linearGradient id="paint0_linear" x1="18.3655" y1="49.2183" x2="50.4313" y2="25.5342" gradientUnits="userSpaceOnUse">
<stop stop-color="#005BAA"/>
<stop offset="1" stop-color="#00C2F3"/>
</linearGradient>
</defs>
</svg>
