<svg width="70" height="70" viewBox="0 0 70 70" fill="none" xmlns="http://www.w3.org/2000/svg">
<circle cx="35" cy="35" r="35" fill="#003870"/>
<path fill-rule="evenodd" clip-rule="evenodd" d="M35 18C33.4229 18 30.7874 18.6128 28.3074 19.295C25.7703 19.9887 23.2126 20.8097 21.7086 21.3069C21.0798 21.517 20.5223 21.9023 20.1002 22.4185C19.6781 22.9347 19.4084 23.561 19.3223 24.2252C17.96 34.5783 21.1212 42.2512 24.9566 47.3271C26.5831 49.4985 28.5224 51.4106 30.7097 52.9997C31.592 53.631 32.4103 54.1143 33.1051 54.445C33.7451 54.7502 34.4331 55 35 55C35.5669 55 36.2526 54.7502 36.8949 54.445C37.7325 54.0331 38.5339 53.5496 39.2903 52.9997C41.4777 51.4107 43.417 49.4985 45.0434 47.3271C48.8788 42.2512 52.04 34.5783 50.6777 24.2252C50.5917 23.5606 50.3222 22.934 49.9001 22.4174C49.478 21.9008 48.9204 21.5151 48.2914 21.3046C46.1081 20.5803 43.9079 19.9095 41.6926 19.2927C39.2126 18.6151 36.5771 18 35 18ZM35 29.5625C35.8097 29.5613 36.5937 29.85 37.2131 30.3776C37.8325 30.9051 38.2474 31.6374 38.3843 32.4448C38.5212 33.2522 38.3712 34.0826 37.961 34.7888C37.5507 35.495 36.9067 36.0316 36.1429 36.3034L37.0229 40.9053C37.0549 41.0727 37.0499 41.2452 37.0083 41.4104C36.9667 41.5756 36.8895 41.7294 36.7823 41.8609C36.675 41.9924 36.5404 42.0983 36.3879 42.171C36.2355 42.2436 36.0691 42.2813 35.9006 42.2812H34.0994C33.9311 42.2809 33.7649 42.243 33.6128 42.1702C33.4606 42.0974 33.3263 41.9915 33.2193 41.86C33.1123 41.7286 33.0353 41.5749 32.9938 41.4098C32.9524 41.2448 32.9474 41.0725 32.9794 40.9053L33.8571 36.3034C33.0933 36.0316 32.4493 35.495 32.039 34.7888C31.6288 34.0826 31.4788 33.2522 31.6157 32.4448C31.7526 31.6374 32.1675 30.9051 32.7869 30.3776C33.4063 29.85 34.1903 29.5613 35 29.5625Z" fill="url(#paint0_linear_314:6295)"/>
<defs>
<linearGradient id="paint0_linear_314:6295" x1="21.6924" y1="48.9749" x2="49.0375" y2="30.6336" gradientUnits="userSpaceOnUse">
<stop stop-color="#005BAA"/>
<stop offset="1" stop-color="#00C2F3"/>
</linearGradient>
</defs>
</svg>
