<svg width="24" height="24" viewBox="0 0 24 24" fill="#208B3A" xmlns="http://www.w3.org/2000/svg">
<path fill-rule="evenodd" clip-rule="evenodd" d="M20.4853 20.4853C18.2348 22.7357 15.1826 24 12 24C8.8174 24 5.76516 22.7357 3.51472 20.4853C1.26428 18.2348 0 15.1826 0 12C0 8.8174 1.26428 5.76516 3.51472 3.51472C5.76516 1.26428 8.8174 0 12 0C15.1826 0 18.2348 1.26428 20.4853 3.51472C22.7357 5.76516 24 8.8174 24 12C24 15.1826 22.7357 18.2348 20.4853 20.4853ZM16.8874 7.00003C16.5956 7.00228 16.3164 7.1251 16.111 7.34165L16.1117 7.34244C16.1011 7.35352 16.091 7.36529 16.0818 7.37768L10.9682 14.1828L7.88589 10.9627C7.67879 10.7463 7.39785 10.6246 7.10489 10.6246C6.81192 10.6245 6.53093 10.746 6.32372 10.9623C6.11652 11.1786 6.00007 11.472 6 11.778C5.99993 12.084 6.11624 12.3775 6.32335 12.5939L10.2207 16.6628C10.3257 16.7723 10.4508 16.8586 10.5884 16.9165C10.7261 16.9744 10.8735 17.0027 11.0219 16.9998C11.1702 16.9969 11.3165 16.9628 11.452 16.8995C11.5874 16.8362 11.7093 16.7451 11.8103 16.6315L17.6885 8.95639C17.8917 8.73752 18.0036 8.44355 17.9999 8.13874C17.9962 7.83392 17.8771 7.54304 17.6686 7.32967C17.4602 7.1163 17.1793 6.99779 16.8874 7.00003Z"/>
</svg>
