<svg width="24" height="24" viewBox="0 0 24 24" fill="none" xmlns="http://www.w3.org/2000/svg">
<circle cx="12" cy="12" r="12" fill="#003870"/>
<path d="M17.8528 17.6372C17.6681 17.8791 17.422 18 17.1143 18C16.745 18 16.3758 17.7581 16.2527 17.3953L15.7604 15.9442C15.4526 15.1581 14.7142 14.6744 13.9141 14.6744H10.1601C9.36004 14.6744 8.62155 15.1581 8.31384 15.9442L7.75996 17.3953C7.63688 17.7581 7.26763 18 6.89839 18C6.59068 18 6.34451 17.8791 6.15989 17.6372C5.97526 17.3953 5.97527 17.093 6.03681 16.7907L10.2832 5.60465C10.4062 5.24186 10.7755 5 11.1448 5H12.8679C13.2372 5 13.6064 5.24186 13.7295 5.60465L17.9759 16.7907C18.0374 17.093 17.9759 17.3953 17.8528 17.6372Z" fill="#001538"/>
</svg>
