<svg width="15" height="16" viewBox="0 0 15 16" fill="none" xmlns="http://www.w3.org/2000/svg">
<path d="M14.816 15.5535C14.5852 15.8512 14.2775 16 13.8928 16C13.4313 16 12.9697 15.7023 12.8159 15.2558L12.2004 13.4698C11.8158 12.5023 10.8927 11.907 9.89264 11.907H5.2001C4.20005 11.907 3.27693 12.5023 2.8923 13.4698L2.19996 15.2558C2.0461 15.7023 1.58454 16 1.12298 16C0.738348 16 0.430642 15.8512 0.199862 15.5535C-0.030919 15.2558 -0.0309186 14.8837 0.0460082 14.5116L5.35395 0.744186C5.50781 0.297675 5.96938 0 6.43094 0H8.58488C9.04645 0 9.508 0.297675 9.66186 0.744186L14.9698 14.5116C15.0467 14.8837 14.9698 15.2558 14.816 15.5535Z" fill="#003870"/>
</svg>
