<svg width="40" height="40" viewBox="0 0 40 40" fill="none" xmlns="http://www.w3.org/2000/svg">
<circle cx="20" cy="20" r="20" fill="#A2A5D1"/>
<path d="M30.7301 30.3581C30.3916 30.786 29.9403 31 29.3762 31C28.6992 31 28.0223 30.5721 27.7966 29.9302L26.894 27.3628C26.3299 25.9721 24.9759 25.1163 23.5092 25.1163H16.6268C15.1601 25.1163 13.8062 25.9721 13.242 27.3628L12.2266 29.9302C12.0009 30.5721 11.324 31 10.647 31C10.0829 31 9.63161 30.786 9.29313 30.3581C8.95465 29.9302 8.95465 29.3953 9.06748 28.8605L16.8525 9.06977C17.0781 8.42791 17.7551 8 18.432 8H21.5912C22.2681 8 22.9451 8.42791 23.1707 9.06977L30.9557 28.8605C31.0686 29.3953 30.9557 29.9302 30.7301 30.3581Z" fill="#181C5E"/>
</svg>
