<svg width="40" height="40" viewBox="0 0 40 40" fill="none" xmlns="http://www.w3.org/2000/svg">
<circle cx="20" cy="20" r="19.37" stroke="#575656" stroke-width="1.26"/>
<path d="M28.7792 28.4698C28.5022 28.8232 28.133 29 27.6714 29C27.1175 29 26.5637 28.6465 26.379 28.1163L25.6405 25.9953C25.179 24.8465 24.0712 24.1395 22.8712 24.1395H17.2401C16.0401 24.1395 14.9323 24.8465 14.4708 25.9953L13.6399 28.1163C13.4553 28.6465 12.9015 29 12.3476 29C11.886 29 11.5168 28.8232 11.2398 28.4698C10.9629 28.1163 10.9629 27.6744 11.0552 27.2326L17.4247 10.8837C17.6094 10.3535 18.1633 10 18.7171 10H21.3019C21.8557 10 22.4096 10.3535 22.5942 10.8837L28.9638 27.2326C29.0561 27.6744 28.9638 28.1163 28.7792 28.4698Z" fill="#25C04C"/>
</svg>
