<svg width="420" height="220" viewBox="0 0 420 220" fill="none" xmlns="http://www.w3.org/2000/svg">
<mask id="mask0_2850_22175" style="mask-type:alpha" maskUnits="userSpaceOnUse" x="0" y="0" width="420" height="220">
<rect width="420" height="220" rx="24" fill="#141734" fill-opacity="0.112"/>
</mask>
<g mask="url(#mask0_2850_22175)">
<path d="M-236 151.832L-228.51 166.438C-221.02 181.044 -206.039 210.255 -191.059 237.995C-176.078 265.734 -161.098 292.001 -146.118 298.377H-129.801C-120.26 294.855 -110.718 286.098 -101.176 277.081C-86.1961 262.925 -71.2157 248.127 -56.2353 234.836C-41.2549 221.544 -26.2745 209.759 -11.2941 196.339C3.68629 182.918 18.6667 167.863 33.6471 155.913C48.6275 143.963 63.6079 135.119 78.5883 124.684C93.5687 114.249 108.549 102.223 123.529 116.197C138.51 130.171 153.49 170.146 168.471 175.036C183.451 179.926 198.431 149.732 213.412 133.062C228.392 116.392 243.373 113.245 258.353 113.807C273.333 114.37 288.314 118.641 303.294 122.94C318.275 127.239 333.255 131.566 348.235 137.413C363.216 143.259 378.196 150.627 393.177 149.907C408.157 149.188 423.137 140.381 438.118 112.672C453.098 84.9628 468.078 38.3517 483.059 24.7136C498.039 11.0754 513.02 30.4101 520.51 40.0775L528 49.7449V298.377H-129.801C-135.24 300.385 -140.679 300.692 -146.118 298.377H-236V151.832Z" fill="url(#paint0_linear_2850_22175)"/>
<g style="mix-blend-mode:overlay">
<path d="M778 154.265L768.157 173.461C758.314 192.657 738.627 231.05 718.941 267.507C699.255 303.965 679.569 338.487 659.882 346.867H638.441C625.902 342.238 613.363 330.729 600.824 318.878C581.137 300.272 561.451 280.824 541.765 263.355C522.078 245.887 502.392 230.398 482.706 212.76C463.02 195.121 443.333 175.334 423.647 159.628C403.961 143.922 384.274 132.299 364.588 118.584C344.902 104.87 325.216 89.064 305.529 107.43C285.843 125.796 266.157 178.334 246.471 184.761C226.784 191.188 207.098 151.505 187.412 129.596C167.725 107.686 148.039 103.551 128.353 104.29C108.667 105.029 88.9804 110.643 69.2941 116.293C49.6078 121.943 29.9216 127.629 10.2353 135.314C-9.45099 142.998 -29.1373 152.681 -48.8236 151.735C-68.5099 150.79 -88.1961 139.215 -107.882 102.797C-127.569 66.3796 -147.255 5.11943 -166.941 -12.805C-186.627 -30.7294 -206.314 -5.3181 -216.157 7.38757L-226 20.0932V346.867H638.441C645.588 349.506 652.735 349.909 659.882 346.867H778V154.265Z" fill="url(#paint1_linear_2850_22175)"/>
</g>
</g>
<defs>
<linearGradient id="paint0_linear_2850_22175" x1="482.834" y1="91.1476" x2="228.746" y2="219.807" gradientUnits="userSpaceOnUse">
<stop stop-color="#373C6A"/>
<stop offset="1" stop-color="#212547"/>
</linearGradient>
<linearGradient id="paint1_linear_2850_22175" x1="-166.645" y1="74.5083" x2="167.277" y2="243.573" gradientUnits="userSpaceOnUse">
<stop stop-color="#373C6A"/>
<stop offset="1" stop-color="#212547"/>
</linearGradient>
</defs>
</svg>
