<svg width="66" height="66" viewBox="0 0 66 66" fill="none" xmlns="http://www.w3.org/2000/svg">
<g filter="url(#filter0_dd_3225_16131)">
<circle cx="33" cy="33" r="15" fill="url(#paint0_linear_3225_16131)"/>
</g>
<path d="M28.514 27.2492L33 31.7351L37.4676 27.2677C37.5459 27.1843 37.6402 27.1177 37.7449 27.0717C37.8496 27.0257 37.9625 27.0013 38.0768 27C38.3216 27 38.5564 27.0972 38.7295 27.2703C38.9026 27.4434 38.9999 27.6782 38.9999 27.923C39.002 28.0362 38.981 28.1486 38.9381 28.2534C38.8953 28.3581 38.8315 28.453 38.7506 28.5322L34.2369 32.9996L38.7506 37.5132C38.9028 37.662 38.992 37.8636 38.9999 38.0762C38.9999 38.321 38.9026 38.5558 38.7295 38.7289C38.5564 38.902 38.3216 38.9993 38.0768 38.9993C37.9592 39.0042 37.8418 38.9845 37.7321 38.9416C37.6225 38.8987 37.523 38.8335 37.4399 38.7501L33 34.2642L28.5232 38.7408C28.4452 38.8214 28.352 38.8857 28.249 38.93C28.1461 38.9744 28.0353 38.9979 27.9232 38.9993C27.6784 38.9993 27.4436 38.902 27.2705 38.7289C27.0974 38.5558 27.0002 38.321 27.0002 38.0762C26.998 37.9631 27.019 37.8507 27.0619 37.7459C27.1047 37.6412 27.1685 37.5463 27.2494 37.4671L31.7631 32.9996L27.2494 28.4861C27.0972 28.3372 27.008 28.1357 27.0002 27.923C27.0002 27.6782 27.0974 27.4434 27.2705 27.2703C27.4436 27.0972 27.6784 27 27.9232 27C28.1447 27.0028 28.357 27.0923 28.514 27.2492Z" fill="#BEC3FF"/>
<defs>
<filter id="filter0_dd_3225_16131" x="0" y="0" width="66" height="66" filterUnits="userSpaceOnUse" color-interpolation-filters="sRGB">
<feFlood flood-opacity="0" result="BackgroundImageFix"/>
<feColorMatrix in="SourceAlpha" type="matrix" values="0 0 0 0 0 0 0 0 0 0 0 0 0 0 0 0 0 0 127 0" result="hardAlpha"/>
<feOffset/>
<feGaussianBlur stdDeviation="4.5"/>
<feColorMatrix type="matrix" values="0 0 0 0 0.258824 0 0 0 0 0.278431 0 0 0 0 0.721569 0 0 0 1 0"/>
<feBlend mode="normal" in2="BackgroundImageFix" result="effect1_dropShadow_3225_16131"/>
<feColorMatrix in="SourceAlpha" type="matrix" values="0 0 0 0 0 0 0 0 0 0 0 0 0 0 0 0 0 0 127 0" result="hardAlpha"/>
<feOffset/>
<feGaussianBlur stdDeviation="9"/>
<feColorMatrix type="matrix" values="0 0 0 0 0.258824 0 0 0 0 0.278431 0 0 0 0 0.721569 0 0 0 1 0"/>
<feBlend mode="normal" in2="effect1_dropShadow_3225_16131" result="effect2_dropShadow_3225_16131"/>
<feBlend mode="normal" in="SourceGraphic" in2="effect2_dropShadow_3225_16131" result="shape"/>
</filter>
<linearGradient id="paint0_linear_3225_16131" x1="24.9231" y1="21.45" x2="36.1091" y2="42.7507" gradientUnits="userSpaceOnUse">
<stop stop-color="#4776E6"/>
<stop offset="1" stop-color="#8E54E9"/>
</linearGradient>
</defs>
</svg>
