<svg width="60" height="60" viewBox="0 0 60 60" fill="none" xmlns="http://www.w3.org/2000/svg">
<rect width="60" height="60" rx="30" fill="#5865F2"/>
<path fill-rule="evenodd" clip-rule="evenodd" d="M40.6694 22.0415C43.8738 27.1605 44.3784 35.7179 44.3983 36.0796C44.4107 36.3064 44.3338 36.529 44.1844 36.6983C44.0359 36.8665 40.5051 40.8002 35.6261 40.8002L35.5599 40.8C35.3035 40.7981 35.0619 40.6781 34.9032 40.4739L32.6525 37.5773C35.5563 37.2411 38.1925 36.358 40.1273 35.0416C40.5143 34.7783 40.6176 34.2468 40.3579 33.8544C40.0983 33.4619 39.574 33.3572 39.1872 33.6205C36.9474 35.1443 33.5987 36.0182 29.9996 36.0182C26.4007 36.0182 23.052 35.1443 20.812 33.6206C20.425 33.3574 19.9008 33.462 19.6412 33.8545C19.3817 34.2469 19.4849 34.7785 19.8719 35.0417C21.8069 36.358 24.443 37.241 27.3467 37.5773L25.096 40.4738C24.9373 40.678 24.6958 40.798 24.4393 40.8L24.3732 40.8001C19.4936 40.8001 15.9635 36.8664 15.8148 36.6982C15.6654 36.529 15.5884 36.3064 15.6009 36.0796C15.6208 35.7179 16.1255 27.1605 19.33 22.0415C19.3955 21.9368 19.4827 21.8478 19.5855 21.7807C23.5456 19.1946 26.2428 19.2 26.3593 19.2002C26.6879 19.2046 26.9708 19.3991 27.1064 19.6797L28.4661 22.3219C25.9128 22.4912 23.488 23.08 21.5141 24.0224C21.0925 24.2236 20.9116 24.7334 21.1101 25.161C21.3086 25.5885 21.8114 25.7719 22.2328 25.5707C24.3785 24.5463 27.1368 23.9821 29.9996 23.9821C32.8626 23.9821 35.621 24.5464 37.7666 25.5709C37.8828 25.6263 38.005 25.6527 38.1255 25.6527C38.4421 25.6527 38.7456 25.471 38.8894 25.1612C39.0879 24.7338 38.907 24.2239 38.4854 24.0226C36.5116 23.0801 34.0867 22.4913 31.5333 22.3219L32.8945 19.6766C33.0307 19.3977 33.3125 19.2046 33.6398 19.2002C33.7535 19.1995 36.4517 19.1933 40.4139 21.7807C40.5167 21.8478 40.6039 21.9368 40.6694 22.0415ZM23.3527 30.5602C23.3527 29.0117 24.595 27.7519 26.1219 27.7519C27.6489 27.7519 28.8912 29.0117 28.8912 30.5602C28.8912 32.1087 27.6489 33.3685 26.1219 33.3685C24.595 33.3685 23.3527 32.1087 23.3527 30.5602ZM31.107 30.5602C31.107 29.0117 32.3493 27.7519 33.8763 27.7519C35.4032 27.7519 36.6455 29.0117 36.6455 30.5602C36.6455 32.1087 35.4032 33.3685 33.8763 33.3685C32.3493 33.3685 31.107 32.1087 31.107 30.5602Z" fill="white"/>
</svg>
