<svg width="24" height="18" viewBox="0 0 24 18" fill="none" xmlns="http://www.w3.org/2000/svg">
<g style="mix-blend-mode:luminosity">
<path fill-rule="evenodd" clip-rule="evenodd" d="M20.8915 2.36774C23.5619 6.63357 23.9823 13.7647 23.9989 14.0662C24.0093 14.2552 23.9452 14.4406 23.8207 14.5817C23.6969 14.7219 20.7546 18 16.6887 18L16.6336 17.9999C16.4199 17.9982 16.2186 17.8982 16.0863 17.728L14.2108 15.3143C16.6306 15.0341 18.8274 14.2981 20.4397 13.2012C20.7622 12.9818 20.8483 12.5388 20.6319 12.2118C20.4156 11.8848 19.9787 11.7975 19.6563 12.0169C17.7899 13.2868 14.9992 14.015 12 14.015C9.00095 14.015 6.21029 13.2868 4.34364 12.017C4.02118 11.7976 3.58436 11.8848 3.36803 12.2119C3.1517 12.5389 3.23776 12.9819 3.56026 13.2013C5.17276 14.2981 7.36951 15.034 9.78924 15.3142L7.91368 17.728C7.78145 17.8982 7.58012 17.9982 7.36642 17.9998L7.31129 18C3.24498 18 0.303204 14.7219 0.17936 14.5817C0.0548133 14.4406 -0.00931168 14.2552 0.00109456 14.0662C0.0176883 13.7647 0.438203 6.63357 3.10862 2.36774C3.16323 2.28051 3.23594 2.20636 3.32158 2.15046C6.62168 -0.00466008 8.86932 -0.000171438 8.96642 2.24923e-05C9.24022 0.00368276 9.47598 0.165733 9.58899 0.399611L10.7221 2.60138C8.59435 2.74252 6.57362 3.23318 4.92873 4.01848C4.5774 4.18618 4.4267 4.61101 4.59207 4.96734C4.7575 5.32363 5.17647 5.47645 5.5277 5.30875C7.31574 4.45505 9.61435 3.98492 12 3.98492C14.3858 3.98492 16.6845 4.45514 18.4725 5.30889C18.5693 5.35509 18.6712 5.37706 18.7716 5.37706C19.0354 5.37706 19.2883 5.22565 19.4082 4.96753C19.5735 4.6113 19.4228 4.18642 19.0715 4.01867C17.4266 3.23323 15.4059 2.74256 13.2781 2.60143L14.4124 0.397044C14.5259 0.164593 14.7608 0.00363546 15.0335 2.27273e-05C15.1283 -0.000547705 17.3767 -0.00577686 20.6786 2.15046C20.7642 2.20631 20.8369 2.28051 20.8915 2.36774ZM6.46093 9.46667C6.46093 8.17627 7.49616 7.12644 8.76858 7.12644C10.041 7.12644 11.0763 8.17627 11.0763 9.46667C11.0763 10.7571 10.041 11.8069 8.76858 11.8069C7.49616 11.8069 6.46093 10.7571 6.46093 9.46667ZM12.9228 9.46667C12.9228 8.17627 13.9581 7.12644 15.2306 7.12644C16.503 7.12644 17.5382 8.17627 17.5382 9.46667C17.5382 10.7571 16.503 11.8069 15.2306 11.8069C13.9581 11.8069 12.9228 10.7571 12.9228 9.46667Z" fill="url(#paint0_linear_2907_2562)"/>
</g>
<defs>
<linearGradient id="paint0_linear_2907_2562" x1="19.6364" y1="15.9375" x2="3.17187" y2="5.85839" gradientUnits="userSpaceOnUse">
<stop stop-color="#4776E6"/>
<stop offset="1" stop-color="#8E54E9"/>
</linearGradient>
</defs>
</svg>
