<svg width="30" height="30" viewBox="0 0 30 30" fill="#005BAA" xmlns="http://www.w3.org/2000/svg">
<path fill-rule="evenodd" clip-rule="evenodd" d="M13.9938 4.03008C13.734 4.08567 1.44269 10.2114 1.26574 10.3734C0.890939 10.7166 0.914786 11.173 1.32345 11.4792C1.60117 11.6872 13.3958 18.8973 13.6558 19.0181C13.8533 19.1097 13.9953 19.1282 14.4999 19.1282C15.0046 19.1282 15.1466 19.1097 15.3441 19.0181C15.6041 18.8973 27.3987 11.6872 27.6764 11.4792C28.0989 11.1627 28.1087 10.6839 27.6996 10.3481C27.6159 10.2794 24.7483 8.8286 21.3271 7.12401L15.1067 4.02481L14.6582 4.00432C14.4116 3.99304 14.1126 4.00463 13.9938 4.03008ZM26.6199 14.2132C26.4534 14.3024 26.2283 14.4521 26.1196 14.5459L25.9222 14.7164L25.908 18.6142L25.8938 22.5121L25.6246 22.7388C24.9441 23.3119 24.9247 24.2999 25.5829 24.8626C25.8105 25.0571 26.2095 25.2142 26.4761 25.2142C26.7708 25.2142 27.1721 25.049 27.4126 24.8286C27.7235 24.5438 27.8611 24.2347 27.8609 23.8217C27.8606 23.3258 27.6794 22.9753 27.2665 22.672L27.0565 22.5178V18.3397C27.0565 15.0306 27.0425 14.1502 26.9896 14.1063C26.9409 14.066 26.8402 14.0951 26.6199 14.2132ZM20.3034 17.7134C18.0545 19.0931 16.0959 20.2771 15.9508 20.3445C15.1123 20.7337 13.9437 20.7438 13.0957 20.3692C12.9726 20.3149 11.0648 19.1632 8.85605 17.81C6.64726 16.4567 4.79412 15.3376 4.73793 15.3229C4.56008 15.2764 4.37495 15.357 4.29212 15.517C4.22369 15.6492 4.21203 16.0502 4.21203 18.2754C4.21203 19.7747 4.23425 20.9994 4.26448 21.1629C4.34124 21.5786 4.69003 22.2378 5.05353 22.6542C7.00824 24.8934 11.5144 26.283 15.7453 25.9512C18.4301 25.7407 20.7937 25.0103 22.5505 23.8482C23.757 23.0502 24.5718 22.0488 24.7354 21.1629C24.8047 20.7879 24.8056 15.5195 24.7364 15.3378C24.6981 15.2371 24.6477 15.2029 24.5386 15.2037C24.439 15.2044 23.0851 16.0066 20.3034 17.7134Z" />
</svg>
