<svg width="30" height="30" viewBox="0 0 30 30" fill="#005BAA" xmlns="http://www.w3.org/2000/svg">
<path fill-rule="evenodd" clip-rule="evenodd" d="M14.1351 5.01927C9.97867 5.21377 5.94623 6.92745 2.90876 9.79014C2.37701 10.2913 2.13628 10.6087 2.05109 10.9207C1.79375 11.8635 2.54337 12.8482 3.51834 12.8482C3.95799 12.8482 4.26634 12.6884 4.81993 12.1735C6.037 11.0414 7.11549 10.2841 8.47114 9.60983C10.4391 8.63101 12.3456 8.15186 14.5415 8.08421C16.4126 8.02659 18.1094 8.2839 19.8344 8.88683C21.7677 9.56254 23.3849 10.5483 25.0372 12.058C25.785 12.7413 26.0284 12.8674 26.5461 12.8394C27.1846 12.8048 27.6751 12.4459 27.8945 11.8527C28.1241 11.2317 27.9842 10.72 27.4235 10.1307C26.717 9.38788 25.4674 8.3939 24.3237 7.66489C23.6123 7.21154 22.0174 6.42486 21.1852 6.11682C18.931 5.28254 16.5223 4.90757 14.1351 5.01927ZM13.5255 10.2481C10.7763 10.5913 8.28374 11.7641 6.33336 13.6322C5.79739 14.1455 5.63692 14.4493 5.63692 14.9505C5.63692 15.8521 6.35576 16.5458 7.22659 16.4847C7.66015 16.4542 7.95422 16.2962 8.48043 15.8108C10.3167 14.1171 12.5087 13.2534 14.9733 13.2526C17.5156 13.2518 19.6194 14.0868 21.577 15.8738C22.1077 16.3583 22.4013 16.4979 22.887 16.4972C23.814 16.4957 24.5064 15.6467 24.3409 14.7145C24.2685 14.3065 24.0401 13.9742 23.4876 13.473C22.5616 12.6329 21.6574 12.0185 20.5184 11.4556C19.3638 10.8849 18.1699 10.5065 16.8782 10.3019C16.1657 10.1891 14.2451 10.1583 13.5255 10.2481ZM14.5161 15.0926C13.5464 15.1525 12.4928 15.4339 11.5795 15.8772C10.7406 16.2843 9.62191 17.1414 9.31266 17.6138C8.66285 18.6065 9.39464 19.9566 10.5826 19.9566C11.0132 19.9566 11.3556 19.8018 11.7821 19.4142C12.3795 18.8715 13.0568 18.4946 13.8049 18.2887C14.3849 18.129 15.6077 18.1273 16.1771 18.2854C16.9408 18.4973 17.5956 18.8639 18.2292 19.4342C18.766 19.9173 19.1868 20.0595 19.7375 19.9437C20.5318 19.7769 21.0679 18.9469 20.8928 18.155C20.8112 17.7864 20.6568 17.5397 20.2886 17.1899C19.2528 16.2059 17.9727 15.5386 16.5465 15.2393C16.1484 15.1558 15.1461 15.052 14.8971 15.0686C14.8272 15.0732 14.6558 15.0841 14.5161 15.0926ZM14.6685 20.5085C13.5439 20.6861 12.7636 21.6014 12.7636 22.7428C12.7636 24.4989 14.6005 25.5596 16.137 24.6907C16.4046 24.5393 16.8307 24.0924 16.9686 23.8185C17.4378 22.8864 17.2638 21.8045 16.5336 21.1134C16.0213 20.6285 15.3294 20.4041 14.6685 20.5085Z" />
</svg>
