<svg fill="#005BAA" width="30" height="30" viewBox="0 0 30 30" xmlns="http://www.w3.org/2000/svg">
<path fill-rule="evenodd" clip-rule="evenodd" d="M12.2853 5.06396C11.3456 5.25635 10.5387 5.95246 10.1836 6.87748C10.1153 7.05509 10.0935 7.28687 10.0732 8.05058L10.0478 9.00234L7.21967 9.01377L4.39155 9.02519L4.39183 9.52285C4.39258 10.8811 4.80466 12.0393 5.69145 13.1755C6.8342 14.6397 8.84473 15.8714 11.0818 16.4778C11.3923 16.562 11.725 16.6448 11.8211 16.6618L11.9958 16.6927V16.0081C11.9958 15.3711 12.0031 15.3134 12.1014 15.1773C12.1595 15.0968 12.2667 14.9893 12.3395 14.9383C12.4702 14.847 12.5086 14.8457 15 14.8457C17.4913 14.8457 17.5297 14.847 17.6604 14.9383C17.7333 14.9893 17.8404 15.0968 17.8985 15.1773C17.9967 15.3134 18.0041 15.3713 18.0041 16.0032C18.0041 16.456 18.0209 16.6828 18.0543 16.6828C18.1707 16.6828 19.0569 16.4519 19.5047 16.3049C22.193 15.4224 24.2551 13.788 25.1199 11.854C25.4482 11.12 25.6076 10.3585 25.6081 9.52285L25.6084 9.02519L22.7803 9.01377L19.9521 9.00234L19.9259 8.05058C19.8975 7.02078 19.8772 6.92184 19.5856 6.39054C19.3707 5.99894 18.8203 5.50048 18.3736 5.29291C17.7556 5.00575 17.6573 4.99729 14.9765 5.00039C13.1302 5.00251 12.5146 5.01703 12.2853 5.06396ZM17.6755 6.44472C17.9933 6.5928 18.2031 6.77558 18.3578 7.0388L18.497 7.27589L18.5122 8.15019L18.5275 9.02448H15.0035H11.4795L11.4798 8.23872C11.4799 7.80653 11.5007 7.38254 11.5261 7.29648C11.6462 6.88859 12.0677 6.49802 12.5119 6.38297C12.6693 6.3422 13.3298 6.33051 15.0938 6.33724C17.4397 6.34618 17.4665 6.34729 17.6755 6.44472ZM3.00053 16.2623L3.00682 22.327L3.11713 22.6369C3.47927 23.6543 4.19459 24.3896 5.1915 24.7694C5.84063 25.0167 5.44032 25.0076 15.1643 24.9947C25.2265 24.9814 24.2881 25.0142 25.0811 24.6481C25.9397 24.2517 26.5512 23.5692 26.8828 22.6369L26.9931 22.327L26.9994 16.2623C27.0031 12.8417 26.9887 10.323 26.9665 10.4853C26.6505 12.8017 25.0916 14.9026 22.5808 16.3959C21.9931 16.7455 20.8657 17.2572 20.1399 17.5038C19.8043 17.6179 19.1791 17.7935 18.7506 17.8942L17.9716 18.0773L17.9162 18.329C17.7932 18.8884 17.2649 19.6312 16.7545 19.9624C16.1965 20.3244 15.6493 20.4885 15 20.4885C14.352 20.4885 13.8033 20.3244 13.2486 19.9644C12.7279 19.6266 12.2081 18.8957 12.0834 18.3262L12.0276 18.0717L11.4602 17.9482C8.71602 17.3512 6.23112 15.9514 4.69515 14.1374C3.81409 13.0968 3.20749 11.7637 3.03343 10.4853C3.01142 10.3235 2.99701 12.8507 3.00053 16.2623ZM13.4124 17.0935L13.4275 18.0353L13.582 18.3311C13.7502 18.6531 13.9858 18.8735 14.3364 19.0369C14.6513 19.1837 15.3486 19.1837 15.6635 19.0369C16.0141 18.8735 16.2497 18.6531 16.4179 18.3311L16.5724 18.0353L16.5875 17.0935L16.6026 16.1516H15H13.3973L13.4124 17.0935Z" />
</svg>
