<svg width="30" height="30" fill="#005BAA" viewBox="0 0 30 30" xmlns="http://www.w3.org/2000/svg">
<path d="M14.1097 4.28606C14.3676 4.10024 14.6795 4 14.9998 4C15.3201 4 15.632 4.10024 15.8898 4.28606L25.3874 11.1352C26.5114 11.9468 25.9854 13.6559 24.6473 13.7752H5.35224C4.01417 13.6559 3.48914 11.9468 4.6122 11.1352L14.1107 4.28606H14.1097ZM14.9998 10.8429C15.3976 10.8429 15.7792 10.6883 16.0605 10.4133C16.3418 10.1383 16.4999 9.76521 16.4999 9.37624C16.4999 8.98726 16.3418 8.61422 16.0605 8.33918C15.7792 8.06413 15.3976 7.90961 14.9998 7.90961C14.6019 7.90961 14.2204 8.06413 13.9391 8.33918C13.6577 8.61422 13.4997 8.98726 13.4997 9.37624C13.4997 9.76521 13.6577 10.1383 13.9391 10.4133C14.2204 10.6883 14.6019 10.8429 14.9998 10.8429V10.8429ZM20.5001 14.7539H22.9992V20.6204H20.4991V14.7539H20.5001ZM18.5 20.6204V14.7539H15.9998V20.6204H18.5ZM13.9997 20.6214V14.7549H11.4996V20.6214H13.9997ZM9.50048 20.6214V14.7549H7.00034V20.6214H9.50048ZM7.25035 21.5991C6.38835 21.5991 5.56165 21.9339 4.95213 22.5299C4.3426 23.1258 4.00017 23.9341 4.00017 24.7768V25.2657C4.00117 25.6715 4.33719 26 4.75021 26H25.2483C25.4473 26 25.638 25.9227 25.7787 25.7852C25.9194 25.6477 25.9984 25.4612 25.9984 25.2667V24.7778C25.9984 23.935 25.656 23.1268 25.0464 22.5308C24.4369 21.9349 23.6102 21.6001 22.7482 21.6001H7.25135L7.25035 21.5991Z" />
</svg>
