<svg width="30" height="30" viewBox="0 0 30 30" fill="#005BAA" xmlns="http://www.w3.org/2000/svg">
<path fill-rule="evenodd" clip-rule="evenodd" d="M23.8957 3.07499C22.896 3.38274 22.254 4.38484 22.4165 5.38395C22.5095 5.95604 22.6432 5.78601 20.8337 7.39711L19.1893 8.86114L18.8834 8.75712C18.7151 8.69991 18.4863 8.6393 18.3749 8.6225C18.0959 8.58034 17.6001 8.66811 17.2741 8.81733C16.7529 9.05592 16.2198 9.70267 16.1256 10.2106C16.1064 10.3141 16.0701 10.4114 16.0449 10.427C16.0197 10.4426 15.3865 10.5845 14.6379 10.7424L13.2767 11.0295L13.1195 10.8236C12.6913 10.2628 11.9094 9.94936 11.1892 10.0498C10.4023 10.1595 9.69279 10.7609 9.46625 11.5103C9.38469 11.78 9.35834 12.3893 9.41995 12.5805C9.45075 12.6761 9.30443 12.7942 8.10389 13.6431C7.36103 14.1684 6.73848 14.5982 6.72053 14.5982C6.70252 14.5982 6.5467 14.5288 6.37422 14.4438C5.99601 14.2576 5.40312 14.1942 5.01466 14.2983C4.10017 14.5434 3.46227 15.3023 3.40986 16.2074C3.37241 16.8543 3.57109 17.3762 4.02931 17.8344C4.82593 18.631 6.13704 18.6412 6.94216 17.857C7.42354 17.3881 7.63717 16.8141 7.58106 16.1406L7.54916 15.7577L8.89801 14.8058L10.2469 13.854L10.5365 13.9975C11.2901 14.3711 12.1345 14.2727 12.8218 13.7312C13.0791 13.5286 13.3883 13.0436 13.4875 12.6874L13.5669 12.4018L13.8468 12.3438C14.0008 12.3119 14.6239 12.1807 15.2315 12.0521L16.3364 11.8184L16.6211 12.1309C17.7234 13.3406 19.7064 12.8689 20.1768 11.2851C20.273 10.961 20.2739 10.4841 20.179 10.1685C20.121 9.97581 20.1183 9.9118 20.1665 9.86854C20.2001 9.83834 20.9551 9.16634 21.8442 8.37521L23.4607 6.93684L23.7195 7.04521C24.9261 7.55048 26.3427 6.73056 26.5565 5.4031C26.6845 4.60853 26.2913 3.75645 25.5927 3.31433C25.1216 3.01618 24.412 2.91607 23.8957 3.07499ZM22.4638 8.74672C22.3003 8.82093 22.2266 8.89464 22.1524 9.05817C22.0573 9.26765 22.0551 9.46213 22.0541 17.8204L22.053 26.3685L22.1602 26.59C22.2399 26.7548 22.32 26.8353 22.4727 26.9047C22.6612 26.9903 22.8296 26.9979 24.5283 26.9979C26.2542 26.9979 26.393 26.9914 26.5929 26.9007C26.7564 26.8265 26.8301 26.7528 26.9043 26.5893C26.9994 26.3798 27.0016 26.1853 27.0026 17.8218L27.0037 9.2686L26.8912 9.04917C26.684 8.645 26.6965 8.64716 24.5541 8.64841C22.8041 8.64941 22.6636 8.65606 22.4638 8.74672ZM16.027 14.3976C15.9445 14.4519 15.8376 14.5695 15.7895 14.659C15.7076 14.8113 15.702 15.1947 15.702 20.6535V26.4853L15.8155 26.6552C16.0442 26.9975 16.0608 27 18.1523 27C20.2439 27 20.2605 26.9975 20.4892 26.6552L20.6027 26.4853V20.6393C20.6027 14.1843 20.6237 14.601 20.2877 14.3962C20.1361 14.3037 20.0236 14.2986 18.1523 14.2987C16.2697 14.2988 16.17 14.3035 16.027 14.3976ZM9.69594 15.8119C9.32803 16.0577 9.35103 15.6893 9.35218 21.3243C9.35314 26.2188 9.35619 26.3817 9.4504 26.5893C9.52461 26.7528 9.59832 26.8265 9.76185 26.9007C9.96168 26.9914 10.1006 26.9979 11.8264 26.9979C13.9705 26.9979 13.9995 26.9929 14.1954 26.588L14.3036 26.3647L14.2902 21.2669C14.2775 16.4505 14.2717 16.1614 14.1865 16.0313C14.1369 15.9556 14.0244 15.8498 13.9365 15.7962C13.7853 15.704 13.6713 15.6987 11.8213 15.6986C9.87142 15.6984 9.86536 15.6987 9.69594 15.8119ZM3.40106 19.9867C3.30535 20.0347 3.17593 20.1505 3.11352 20.244L3 20.4139V23.4496V26.4853L3.11352 26.6552C3.3422 26.9975 3.35886 27 5.45038 27C7.5419 27 7.55856 26.9975 7.78724 26.6552L7.90076 26.4853V23.4496V20.4139L7.78724 20.244C7.55856 19.9017 7.5419 19.8992 5.45038 19.8992C3.76472 19.8992 3.55749 19.9081 3.40106 19.9867Z" />
</svg>
