<svg width="30" height="30" viewBox="0 0 30 30" fill="#005BAA" xmlns="http://www.w3.org/2000/svg">
<path fill-rule="evenodd" clip-rule="evenodd" d="M14.7965 1.05959C14.7326 1.09486 14.1766 1.43902 13.5609 1.82446L12.4416 2.52527H11.0426C10.2552 2.52527 9.59767 2.54924 9.53872 2.58007C9.48035 2.61056 9.17035 3.19554 8.83901 3.90027L8.24407 5.16567L7.10733 5.87631C6.48209 6.2672 5.9218 6.65066 5.86233 6.72856C5.75599 6.86763 5.75773 6.89482 5.95733 8.24699L6.16058 9.62386L5.58029 10.8663C5.26116 11.5497 5 12.1517 5 12.2041C5 12.3636 5.08017 12.468 5.98831 13.491C6.47029 14.0339 6.87622 14.5292 6.89041 14.5916C6.90459 14.6541 6.99686 15.2673 7.09552 15.9544C7.24965 17.0282 7.29273 17.2209 7.40198 17.3266C7.48826 17.41 7.92105 17.5612 8.75 17.7974C9.42151 17.9887 10.0146 18.158 10.0679 18.1737C10.1213 18.1893 10.5855 18.6732 11.0995 19.249C11.6639 19.8813 12.0888 20.3094 12.1723 20.3298C12.259 20.351 12.7963 20.2244 13.6122 19.9903C14.328 19.7849 14.9555 19.6169 15.0065 19.6169C15.0576 19.6169 15.6828 19.7848 16.3959 19.99C17.1998 20.2212 17.7444 20.3503 17.8292 20.3295C17.9108 20.3094 18.343 19.8736 18.9005 19.249C19.4145 18.6732 19.8787 18.1897 19.9321 18.1747C21.9715 17.5997 22.4855 17.4363 22.598 17.327C22.7072 17.221 22.7504 17.0277 22.9045 15.9544C23.0031 15.2673 23.0954 14.6541 23.1096 14.5916C23.1238 14.5292 23.5297 14.0339 24.0117 13.491C24.9198 12.468 25 12.3636 25 12.2041C25 12.1517 24.7388 11.5497 24.4197 10.8663L23.8394 9.62386L24.0427 8.24699C24.2422 6.89585 24.2439 6.86746 24.138 6.72771C24.0787 6.64935 23.5185 6.26584 22.8932 5.87546L21.7563 5.16567L21.1612 3.90027C20.8298 3.19571 20.5196 2.61056 20.4613 2.58007C20.4023 2.54924 19.7455 2.52527 18.9596 2.52527H17.5627L16.5866 1.91134C15.024 0.928483 15.0297 0.931209 14.7965 1.05959ZM15.905 4.28963C18.8544 4.69029 21.177 6.92009 21.6572 9.8121C21.9355 11.488 21.4568 13.381 20.4121 14.7354C20.0532 15.2007 19.261 15.9471 18.806 16.2487C15.382 18.5183 10.7112 17.2874 8.92587 13.6451C7.68634 11.1162 8.20768 8.15767 10.2431 6.16971C10.8157 5.61051 11.3746 5.22376 12.1028 4.8829C13.2941 4.32535 14.6316 4.11667 15.905 4.28963ZM13.9965 5.22331C11.093 5.7607 9.05273 8.25137 9.20634 11.0711C9.36756 14.0311 11.7076 16.3166 14.7384 16.474C17.5192 16.6185 20.0094 14.7666 20.6672 12.0648C20.7166 11.8618 20.773 11.4146 20.7924 11.0711C20.9436 8.3969 19.0727 5.95774 16.3663 5.30042C15.7414 5.1487 14.6003 5.11156 13.9965 5.22331ZM15.2795 6.14518C15.4126 6.25727 16.8608 9.52802 16.8606 9.71619C16.8605 9.78303 16.8147 9.88967 16.7587 9.95315C16.6469 10.0801 15.1653 10.7588 15 10.7588C14.8347 10.7588 13.3531 10.0801 13.2413 9.95315C13.1853 9.88967 13.1395 9.78303 13.1394 9.71619C13.1392 9.52802 14.5874 6.25727 14.7205 6.14518C14.7853 6.0905 14.9112 6.04581 15 6.04581C15.0888 6.04581 15.2147 6.0905 15.2795 6.14518ZM14.3569 11.5622L15 11.8546L15.6431 11.5622C15.9969 11.4014 16.3512 11.2698 16.4306 11.2698C16.6123 11.2698 16.8605 11.5066 16.8605 11.6798C16.8605 11.8913 15.4151 15.3747 15.2811 15.486C15.2153 15.5406 15.0888 15.5853 15 15.5853C14.9112 15.5853 14.7847 15.5406 14.7189 15.486C14.5849 15.3747 13.1395 11.8913 13.1395 11.6798C13.1395 11.5066 13.3877 11.2698 13.5694 11.2698C13.6488 11.2698 14.0031 11.4014 14.3569 11.5622ZM8.38262 19.1438C8.28581 19.3884 7.62901 21.0288 6.92308 22.7892C6.21715 24.5496 5.63953 26.0346 5.63953 26.0892C5.63953 26.1437 5.69378 26.2557 5.76006 26.338C5.9214 26.5383 6.06645 26.5329 7.25349 26.2817C7.78878 26.1684 8.26087 26.0726 8.30256 26.0687C8.34424 26.0649 8.67128 26.4704 9.0293 26.9698C9.75331 27.9798 9.88913 28.0934 10.1995 27.9489C10.3743 27.8674 10.448 27.7014 11.7318 24.4968C12.4736 22.6452 13.0741 21.124 13.0663 21.1164C13.0585 21.1088 12.9083 21.1403 12.7325 21.1865C12.3241 21.2938 11.9199 21.2516 11.6 21.0685C11.4465 20.9807 11.026 20.5586 10.5003 19.9645L9.64919 19.0027L9.25773 18.8876C8.49826 18.6643 8.58215 18.6397 8.38262 19.1438ZM21.1628 18.7668C21.0828 18.794 20.8683 18.8573 20.6859 18.9075C20.3615 18.9968 20.336 19.0194 19.5015 19.9625C18.9744 20.5581 18.5537 20.9806 18.4 21.0685C18.0801 21.2516 17.6759 21.2938 17.2675 21.1865C17.0917 21.1403 16.9415 21.1088 16.9337 21.1164C16.9259 21.124 17.5264 22.6452 18.2682 24.4968C19.552 27.7014 19.6257 27.8674 19.8005 27.9489C20.109 28.0925 20.2441 27.9795 20.9692 26.9703C21.4359 26.321 21.652 26.065 21.7267 26.0732C21.7843 26.0796 22.2548 26.1754 22.7722 26.2862C23.9244 26.5329 24.0786 26.5383 24.2399 26.338C24.3062 26.2557 24.3605 26.1437 24.3605 26.0892C24.3605 26.0346 23.7829 24.5496 23.0769 22.7892C22.371 21.0288 21.715 19.3905 21.6192 19.1484C21.4418 18.7002 21.4177 18.6801 21.1628 18.7668Z" />
</svg>
