<svg width="30" height="30" viewBox="0 0 30 30" fill="#005BAA" xmlns="http://www.w3.org/2000/svg">
<path d="M26.9446 12.2963C26.9446 12.3457 26.9569 12.3827 26.9815 12.4074C27.0062 12.4321 27.0062 12.4691 26.9815 12.5185V13.2593C26.9815 13.5062 26.8953 13.716 26.7229 13.8889C26.5504 14.0617 26.341 14.1481 26.0947 14.1481H24.3949V26.1481C24.3949 26.3951 24.321 26.5926 24.1732 26.7407C24.0254 26.8889 23.816 26.9753 23.545 27H6.43649C6.19015 27 5.98075 26.9136 5.80831 26.7407C5.63587 26.5679 5.54965 26.3704 5.54965 26.1481V14.1481H3.84988C3.60354 14.1481 3.40647 14.0617 3.25866 13.8889C3.11085 13.716 3.02463 13.5062 3 13.2593V12.5185C3 12.4198 3.01232 12.3457 3.03695 12.2963L5.21709 4.25926C5.34026 3.8642 5.54965 3.55556 5.84527 3.33333C6.14088 3.11111 6.48576 3 6.87991 3H23.1016C23.4958 3 23.8406 3.11111 24.1363 3.33333C24.4319 3.55556 24.6289 3.8642 24.7275 4.25926L26.9446 12.2963ZM21.8453 14.1481H8.13626V18.8519C8.13626 18.9753 8.18553 19.0741 8.28406 19.1481C8.3826 19.2222 8.48114 19.2716 8.57968 19.2963H21.4018C21.525 19.2963 21.6359 19.2469 21.7344 19.1481C21.8329 19.0494 21.8699 18.9506 21.8453 18.8519V14.1481Z" />
</svg>
