<svg width="30" height="30" fill="#005BAA" viewBox="0 0 30 30" xmlns="http://www.w3.org/2000/svg">
<path fill-rule="evenodd" clip-rule="evenodd" d="M20.635 4.01516C17.1663 4.28335 14.4082 5.00318 11.7514 6.33362C10.0538 7.18371 8.85682 7.99436 7.3676 9.30258C5.34911 11.0757 4.26049 13.1829 4.03124 15.7607C3.85384 17.7554 4.43857 19.9511 5.61699 21.7152C6.00075 22.2897 6.67589 23.0822 6.72917 23.0208C6.74958 22.9973 6.86655 22.6997 6.98912 22.3595C7.43042 21.1347 8.1793 19.6233 8.82436 18.6558C10.0281 16.85 12.2892 14.6745 14.1104 13.5698C14.5352 13.3122 15.3796 12.8843 15.4078 12.9124C15.4186 12.9231 14.9679 13.6196 14.4064 14.4603C12.5249 17.2771 12.2232 17.7835 10.822 20.4781C10.0852 21.8951 8.85444 24.5539 8.85444 24.7287C8.85444 24.7788 9.44974 25.0787 9.96777 25.2895C11.1576 25.7738 12.3263 25.9996 13.6443 26C16.6076 26.0007 18.9852 24.8574 20.9471 22.4884C22.0691 21.1335 22.7963 19.6726 23.0894 18.1843C23.2289 17.4766 23.2895 16.8009 23.3804 14.9431C23.4695 13.1219 23.5567 12.21 23.7433 11.1484C24.0875 9.19037 24.8328 6.89748 25.7696 4.91494C25.9608 4.51025 26.0294 4.31428 25.9887 4.28928C25.9251 4.25015 25.7467 4.2232 24.7776 4.10619C24.1845 4.03459 21.2248 3.96959 20.635 4.01516Z" />
</svg>
