<svg width="30" height="30" viewBox="0 0 30 30" fill="#005BAA" xmlns="http://www.w3.org/2000/svg">
<path d="M3 12.0007C2.99985 11.2034 3.17135 10.414 3.50448 9.67878C3.83761 8.94353 4.32569 8.27713 4.94018 7.71853C5.55467 7.15993 6.28325 6.72033 7.08334 6.42544C7.88344 6.13054 8.73899 5.98626 9.6 6.00103C10.6188 5.99602 11.627 6.19154 12.558 6.57463C13.489 6.95773 14.3213 7.51964 15 8.22314C15.6787 7.51964 16.511 6.95773 17.442 6.57463C18.373 6.19154 19.3812 5.99602 20.4 6.00103C21.261 5.98626 22.1166 6.13054 22.9167 6.42544C23.7168 6.72033 24.4453 7.15993 25.0598 7.71853C25.6743 8.27713 26.1624 8.94353 26.4955 9.67878C26.8286 10.414 27.0001 11.2034 27 12.0007C27 17.9515 19.3452 22.4446 15 26C10.6644 22.4146 3 17.956 3 12.0007Z" />
</svg>
