<svg width="30" height="30" viewBox="0 0 30 30" fill="#003870" xmlns="http://www.w3.org/2000/svg">
<g>
<path d="M5.71429 5.71429C5.71429 4.7292 6.10561 3.78445 6.80217 3.08789C7.49874 2.39133 8.44348 2 9.42857 2C10.4137 2 11.3584 2.39133 12.055 3.08789C12.7515 3.78445 13.1429 4.7292 13.1429 5.71429C13.1429 6.69938 12.7515 7.64412 12.055 8.34068C11.3584 9.03725 10.4137 9.42857 9.42857 9.42857C8.44348 9.42857 7.49874 9.03725 6.80217 8.34068C6.10561 7.64412 5.71429 6.69938 5.71429 5.71429Z"/>
<path d="M18.3039 8.656L18.3819 8.71543C19.1698 9.29951 20.1568 9.5482 21.1275 9.40723C22.0982 9.26627 22.9737 8.74708 23.5629 7.96298C24.1522 7.17888 24.4074 6.19353 24.2728 5.22196C24.1383 4.25039 23.6249 3.37148 22.8447 2.77705C22.0645 2.18262 21.0809 1.92092 20.1084 2.04906C19.136 2.1772 18.2537 2.68479 17.6541 3.46104C17.0546 4.23729 16.7864 5.21919 16.9081 6.19245C17.0298 7.16571 17.5316 8.05132 18.3039 8.656Z"/>
<path d="M11.7834 11.2857C12.0167 10.844 12.3366 10.4539 12.7242 10.1387C13.1117 9.82354 13.5588 9.58976 14.0387 9.45136C14.5187 9.31296 15.0216 9.27279 15.5174 9.33325C16.0133 9.39371 16.4918 9.55356 16.9244 9.80324C17.3571 10.0529 17.7349 10.3873 18.0353 10.7864C18.3357 11.1854 18.5526 11.641 18.6728 12.1258C18.7931 12.6106 18.8144 13.1147 18.7353 13.6079C18.6563 14.1011 18.4786 14.5733 18.2129 14.9963C17.7016 15.81 16.8949 16.3938 15.9623 16.6252C15.0296 16.8566 14.0435 16.7175 13.2113 16.2372C12.379 15.7569 11.7652 14.9727 11.499 14.0493C11.2327 13.126 11.3347 12.1354 11.7834 11.2857Z"/>
<path d="M4.78571 11.2857H9.74429C9.54 11.867 9.42857 12.4929 9.42857 13.1429C9.42857 14.5691 9.96529 15.8729 10.8474 16.8571H10.3571C9.39967 16.857 8.46555 17.1528 7.68264 17.704C6.89973 18.2552 6.3063 19.0348 5.98357 19.9363C5.36019 19.6859 4.77652 19.3462 4.25086 18.9279C2.85429 17.8043 2 16.144 2 14.0714C2 13.3326 2.29349 12.6241 2.81592 12.1016C3.33834 11.5792 4.0469 11.2857 4.78571 11.2857Z"/>
<path d="M19.6429 16.8571C21.6579 16.8571 23.3739 18.1404 24.0146 19.9363C24.646 19.6781 25.231 19.342 25.7491 18.9279C27.1457 17.8043 28 16.144 28 14.0714C28 13.3326 27.7065 12.6241 27.1841 12.1016C26.6617 11.5792 25.9531 11.2857 25.2143 11.2857H20.2557C20.46 11.867 20.5714 12.4929 20.5714 13.1429C20.5731 14.5136 20.0678 15.8366 19.1526 16.8571H19.6429Z"/>
<path d="M22.2187 20.4377C22.3543 20.7646 22.4286 21.1249 22.4286 21.5C22.4286 23.5726 21.5761 25.2329 20.1777 26.3564C18.8016 27.4614 16.9556 28 15 28C13.0444 28 11.1984 27.4614 9.82229 26.3564C8.42571 25.2329 7.57143 23.5726 7.57143 21.5C7.57045 21.1339 7.64183 20.7712 7.78148 20.4328C7.92113 20.0944 8.12629 19.7869 8.38516 19.528C8.64403 19.2691 8.95152 19.064 9.28994 18.9243C9.62836 18.7847 9.99104 18.7133 10.3571 18.7143H19.6429C20.1946 18.7142 20.734 18.8779 21.1926 19.1847C21.6512 19.4915 22.0083 19.9276 22.2187 20.4377Z"/>
</g>
<defs>
<linearGradient id="g" x1="2.18758" y1="21.7661" x2="22.3026" y2="6.16617" gradientUnits="userSpaceOnUse">
<stop stop-color="#005BAA"/>
<stop offset="1" stop-color="#00C2F3"/>
</linearGradient>
</defs>
</svg>
