<svg width="30" height="30" viewBox="0 0 30 30" fill="#003870" xmlns="http://www.w3.org/2000/svg">
<g>
<path fill-rule="evenodd" clip-rule="evenodd" d="M14.4719 0.0510139C13.8277 0.176763 13.0806 0.72891 12.7322 1.33678C12.2367 2.20142 12.2599 3.32507 12.7892 4.1103C12.8503 4.20086 12.8908 4.28308 12.8792 4.293C12.8676 4.30291 12.7478 4.37974 12.6129 4.46367C12.2516 4.68849 11.6321 5.2875 11.4215 5.61548C11.2434 5.8929 11.2308 5.9007 11.0209 5.86222C10.7139 5.80586 9.4486 5.81284 9.11986 5.87272C8.84834 5.92211 8.84318 5.92017 8.80691 5.75542C8.39831 3.89851 6.20239 3.05885 4.68148 4.17786C3.50849 5.04092 3.25786 6.67649 4.11931 7.84612C4.5008 8.36407 5.06707 8.73316 5.69033 8.87012C5.8483 8.90484 5.85529 8.91915 5.8145 9.12425C5.69573 9.7208 5.69362 10.7439 5.81028 11.1114C5.84196 11.2113 5.79696 11.2667 5.56194 11.4175C5.22493 11.6336 4.71798 12.153 4.43936 12.5674C4.33097 12.7287 4.23485 12.8702 4.22581 12.8817C4.21672 12.8933 4.13521 12.8529 4.0446 12.7918C3.05547 12.1256 1.63566 12.2807 0.765884 13.1501C-0.255295 14.1708 -0.255295 15.8321 0.765884 16.8528C1.63566 17.7222 3.05547 17.8773 4.0446 17.2111C4.13521 17.15 4.21672 17.1096 4.22581 17.1212C4.23485 17.1327 4.33097 17.2742 4.43936 17.4355C4.71798 17.8499 5.22493 18.3693 5.56194 18.5854C5.79696 18.7362 5.84196 18.7916 5.81028 18.8915C5.69362 19.259 5.69573 20.2821 5.8145 20.8786C5.85529 21.0837 5.8483 21.0981 5.69033 21.1328C3.83276 21.5411 2.99268 23.736 4.11221 25.2561C4.97571 26.4284 6.6121 26.6789 7.78233 25.8179C8.30061 25.4366 8.66978 24.8707 8.80691 24.2475C8.84318 24.0827 8.84834 24.0808 9.11986 24.1302C9.4486 24.1901 10.7139 24.197 11.0209 24.1407C11.2308 24.1022 11.2434 24.11 11.4215 24.3874C11.6321 24.7154 12.2516 25.3144 12.6129 25.5392C12.7478 25.6231 12.8676 25.7 12.8792 25.7099C12.8908 25.7198 12.8503 25.802 12.7892 25.8926C12.2373 26.7112 12.2362 27.8813 12.7864 28.7377C13.5433 29.9155 14.9303 30.3247 16.1431 29.7279C16.5436 29.5309 17.0417 29.0607 17.2678 28.6661C17.7633 27.8015 17.7401 26.6778 17.2108 25.8926C17.1497 25.802 17.1092 25.7198 17.1208 25.7099C17.1324 25.7 17.2522 25.6231 17.3871 25.5392C17.7484 25.3144 18.3679 24.7154 18.5785 24.3874C18.7566 24.11 18.7692 24.1022 18.9791 24.1407C19.2861 24.197 20.5514 24.1901 20.8801 24.1302C21.1517 24.0808 21.1568 24.0827 21.1931 24.2475C21.4627 25.4728 22.5217 26.3212 23.7817 26.3212C25.924 26.3212 27.1526 23.8837 25.8807 22.1568C25.4992 21.6388 24.9329 21.2697 24.3097 21.1328C24.1517 21.0981 24.1447 21.0837 24.1855 20.8786C24.3043 20.2821 24.3064 19.259 24.1897 18.8915C24.158 18.7916 24.203 18.7362 24.4381 18.5854C24.7751 18.3693 25.282 17.8499 25.5606 17.4355C25.669 17.2742 25.7652 17.1327 25.7742 17.1212C25.7833 17.1096 25.8648 17.15 25.9554 17.2111C26.9445 17.8773 28.3643 17.7222 29.2341 16.8528C30.2553 15.8321 30.2553 14.1708 29.2341 13.1501C28.3643 12.2807 26.9445 12.1256 25.9554 12.7918C25.8648 12.8529 25.7833 12.8933 25.7742 12.8817C25.7652 12.8702 25.669 12.7287 25.5606 12.5674C25.282 12.153 24.7751 11.6336 24.4381 11.4175C24.203 11.2667 24.158 11.2113 24.1897 11.1114C24.3064 10.7439 24.3043 9.7208 24.1855 9.12425C24.1447 8.91915 24.1517 8.90484 24.3097 8.87012C25.5354 8.60073 26.3842 7.54212 26.3842 6.28293C26.3842 4.14168 23.9454 2.91369 22.2177 4.18496C21.6994 4.56631 21.3302 5.13219 21.1931 5.75542C21.1568 5.92017 21.1517 5.92211 20.8801 5.87272C20.5514 5.81284 19.2861 5.80586 18.9791 5.86222C18.7692 5.9007 18.7566 5.8929 18.5785 5.61548C18.3679 5.2875 17.7484 4.68849 17.3871 4.46367C17.2522 4.37974 17.1324 4.30291 17.1208 4.293C17.1092 4.28308 17.1497 4.20086 17.2108 4.1103C17.7627 3.2917 17.7638 2.12159 17.2136 1.26522C16.591 0.296354 15.5582 -0.161012 14.4719 0.0510139ZM15.4608 1.90681C15.8612 2.20564 15.9817 2.66647 15.7686 3.08401C15.6291 3.35715 15.2976 3.56437 15 3.56437C14.4041 3.56437 13.9678 2.91703 14.1824 2.35116C14.3829 1.82212 15.0408 1.59344 15.4608 1.90681ZM6.68827 5.55254C6.95386 5.72756 7.07721 5.96199 7.07721 6.29167C7.07721 6.80775 6.74343 7.14136 6.22709 7.14136C5.71075 7.14136 5.37697 6.80775 5.37697 6.29167C5.37697 5.77559 5.71075 5.44198 6.22709 5.44198C6.41605 5.44198 6.58024 5.48134 6.68827 5.55254ZM24.2341 5.55254C24.4997 5.72756 24.623 5.96199 24.623 6.29167C24.623 6.80775 24.2892 7.14136 23.7729 7.14136C23.2566 7.14136 22.9228 6.80775 22.9228 6.29167C22.9228 5.77559 23.2566 5.44198 23.7729 5.44198C23.9619 5.44198 24.1261 5.48134 24.2341 5.55254ZM15.6141 5.58979C16.421 5.79988 17.0042 6.29466 17.4037 7.10828C17.6661 7.64259 17.792 7.76764 18.1487 7.84799C18.3226 7.88723 18.4714 7.86201 18.8939 7.72172C19.9826 7.36019 21.0291 7.56025 21.7411 8.26594C22.5033 9.02155 22.7102 10.0021 22.3416 11.1112C22.2017 11.532 22.1765 11.6806 22.2158 11.8544C22.2962 12.2109 22.4213 12.3367 22.9559 12.599C23.5758 12.9031 24.0074 13.3122 24.2695 13.8443C24.9422 15.2101 24.3926 16.6991 22.9559 17.4039C22.4213 17.6662 22.2962 17.792 22.2158 18.1485C22.1765 18.3223 22.2017 18.4709 22.3416 18.8917C22.7102 20.0008 22.5033 20.9813 21.7411 21.7369C21.0291 22.4426 19.9826 22.6427 18.8939 22.2812C18.4714 22.1409 18.3226 22.1157 18.1487 22.1549C17.792 22.2353 17.6661 22.3603 17.4037 22.8946C17.0995 23.5142 16.6901 23.9456 16.1577 24.2075C14.7936 24.8787 13.3013 24.3304 12.5989 22.8999C12.2144 22.1169 11.9121 22.0005 11.0425 22.3005C9.2448 22.9207 7.47854 21.7144 7.48259 19.8694C7.48335 19.5269 7.52584 19.2905 7.6584 18.8917C7.93502 18.0595 7.82036 17.7848 7.03614 17.4001C5.60771 16.6994 5.05956 15.2066 5.73053 13.8443C5.9926 13.3122 6.4242 12.9031 7.04412 12.599C7.57871 12.3367 7.70382 12.2109 7.78421 11.8544C7.82347 11.6806 7.79829 11.532 7.6584 11.1112C7.28976 10.0021 7.49673 9.02155 8.25894 8.26594C8.97093 7.56025 10.0174 7.36019 11.1061 7.72172C11.5286 7.86201 11.6774 7.88723 11.8513 7.84799C12.208 7.76764 12.3339 7.64259 12.5963 7.10828C13.2021 5.87466 14.3976 5.27307 15.6141 5.58979ZM13.9539 8.93686C12.4036 9.19669 10.9845 10.068 9.99886 11.365C9.5963 11.8947 9.15818 12.8098 8.97386 13.5058C8.83778 14.0196 8.81853 14.2051 8.81853 15.0014C8.81853 15.7978 8.83778 15.9833 8.97386 16.4971C9.60581 18.8832 11.5793 20.6763 14.0067 21.0697C17.7289 21.6731 21.1616 18.7617 21.1616 15.0014C21.1616 11.2243 17.6973 8.30941 13.9539 8.93686ZM16.0856 10.7385C17.6636 11.1771 18.891 12.4284 19.289 14.0044C19.3352 14.1868 19.3706 14.62 19.3706 15.0014C19.3706 15.3829 19.3352 15.8161 19.289 15.9985C18.891 17.5746 17.6564 18.8328 16.0856 19.2633C15.5671 19.4054 14.7339 19.4284 14.1773 19.3158C12.5172 18.9801 11.2739 17.8773 10.7351 16.2625C10.5964 15.8467 10.5785 15.703 10.5785 15.0014C10.5785 14.2999 10.5964 14.1562 10.7351 13.7404C11.2609 12.1649 12.4839 11.0551 14.0904 10.6959C14.5742 10.5877 15.6238 10.6101 16.0856 10.7385ZM3.03047 14.2397C3.29084 14.3725 3.4984 14.7104 3.4984 15.0014C3.4984 15.2925 3.29084 15.6304 3.03047 15.7632C2.90313 15.8281 2.71758 15.8812 2.61817 15.8812C2.17166 15.8812 1.73795 15.4477 1.73795 15.0014C1.73795 14.7194 1.94562 14.3733 2.19337 14.2426C2.47651 14.0932 2.74134 14.0923 3.03047 14.2397ZM27.7941 14.2397C28.0545 14.3725 28.2621 14.7104 28.2621 15.0014C28.2621 15.1008 28.2089 15.2863 28.1439 15.4135C28.0111 15.6738 27.673 15.8812 27.3818 15.8812C27.0907 15.8812 26.7526 15.6738 26.6197 15.4135C26.4702 15.1205 26.4701 14.8825 26.6196 14.5896C26.8365 14.1647 27.3481 14.0123 27.7941 14.2397ZM6.68827 22.9721C6.95386 23.1471 7.07721 23.3815 7.07721 23.7112C7.07721 24.2273 6.74343 24.5609 6.22709 24.5609C5.71075 24.5609 5.37697 24.2273 5.37697 23.7112C5.37697 23.1951 5.71075 22.8615 6.22709 22.8615C6.41605 22.8615 6.58024 22.9009 6.68827 22.9721ZM24.2341 22.9721C24.4997 23.1471 24.623 23.3815 24.623 23.7112C24.623 23.9001 24.5837 24.0642 24.5124 24.1722C24.3373 24.4376 24.1028 24.5609 23.7729 24.5609C23.4431 24.5609 23.2085 24.4376 23.0334 24.1722C22.9622 24.0642 22.9228 23.9001 22.9228 23.7112C22.9228 23.5224 22.9622 23.3583 23.0334 23.2503C23.2085 22.9848 23.4431 22.8615 23.7729 22.8615C23.9619 22.8615 24.1261 22.9009 24.2341 22.9721ZM15.4123 26.5566C16.2077 26.9622 15.8955 28.2274 15 28.2274C14.3428 28.2274 13.9258 27.5177 14.2313 26.9191C14.4549 26.4812 14.9602 26.326 15.4123 26.5566Z"/>
</g>
<defs>
<linearGradient id="g" x1="2.18758" y1="21.7661" x2="22.3026" y2="6.16617" gradientUnits="userSpaceOnUse">
<stop stop-color="#005BAA"/>
<stop offset="1" stop-color="#00C2F3"/>
</linearGradient>
</defs>
</svg>
