<svg width="30" height="30" viewBox="0 0 30 30" fill="#003870" xmlns="http://www.w3.org/2000/svg">
<g>
<path fill-rule="evenodd" clip-rule="evenodd" d="M28 16C28 23.1797 22.1797 29 15 29C7.8203 29 2 23.1797 2 16C2 8.8203 7.8203 3 15 3C22.1797 3 28 8.8203 28 16ZM15 26.1111C20.5842 26.1111 25.1111 21.5842 25.1111 16C25.1111 10.4158 20.5842 5.88889 15 5.88889C9.41579 5.88889 4.88889 10.4158 4.88889 16C4.88889 21.5842 9.41579 26.1111 15 26.1111Z"/>
<path fill-rule="evenodd" clip-rule="evenodd" d="M15.434 8.92824C15.6407 9.09796 17.8892 14.0504 17.8889 14.3354C17.8888 14.4366 17.8176 14.598 17.7307 14.6942C17.557 14.8864 15.2566 15.914 15 15.914C14.7434 15.914 12.443 14.8864 12.2693 14.6942C12.1823 14.598 12.1112 14.4366 12.1111 14.3354C12.1108 14.0504 14.3593 9.09796 14.566 8.92824C14.6667 8.84544 14.8621 8.77778 15 8.77778C15.1379 8.77778 15.3333 8.84544 15.434 8.92824ZM14.0014 17.1305L15 17.5732L15.9986 17.1305C16.5478 16.887 17.098 16.6878 17.2213 16.6878C17.5033 16.6878 17.8887 17.0463 17.8887 17.3086C17.8887 17.6289 15.6445 22.9032 15.4365 23.0718C15.3344 23.1545 15.1379 23.2222 15 23.2222C14.8621 23.2222 14.6656 23.1545 14.5635 23.0718C14.3555 22.9032 12.1113 17.6289 12.1113 17.3086C12.1113 17.0463 12.4967 16.6878 12.7787 16.6878C12.902 16.6878 13.4522 16.887 14.0014 17.1305Z"/>
</g>
<defs>
<linearGradient id="g" x1="2.18758" y1="21.7661" x2="22.3026" y2="6.16617" gradientUnits="userSpaceOnUse">
<stop stop-color="#005BAA"/>
<stop offset="1" stop-color="#00C2F3"/>
</linearGradient>
</defs>
</svg>
