<svg width="30" height="30" viewBox="0 0 30 30" fill="#003870" xmlns="http://www.w3.org/2000/svg">
<g>
<path fill-rule="evenodd" clip-rule="evenodd" d="M14.6175 0.0872039C14.4076 0.190784 12.5822 2.07674 12.4543 2.32218C12.2501 2.71375 12.4452 3.24924 12.8662 3.45317C12.9993 3.51765 13.1667 3.57041 13.2381 3.57041C13.4244 3.57041 13.7151 3.43752 13.9354 3.2517L14.1258 3.09102V4.30462C14.1258 5.4437 14.1337 5.53216 14.2538 5.746C14.4975 6.17996 15.0918 6.32627 15.4683 6.04496C15.8432 5.76494 15.8526 5.72613 15.872 4.36048L15.8898 3.10715L16.1516 3.30704C16.2956 3.41701 16.5033 3.52387 16.6133 3.5445C17.026 3.62194 17.4644 3.34315 17.5901 2.9232C17.7246 2.47423 17.6589 2.36444 16.5775 1.22799C16.0279 0.650534 15.4913 0.136796 15.3851 0.0863246C15.1419 -0.0290965 14.8524 -0.0287448 14.6175 0.0872039ZM4.57506 4.20666C4.46281 4.26646 4.31206 4.4181 4.24006 4.54372C4.1145 4.7629 4.10917 4.83014 4.10835 6.20827C4.10736 7.81526 4.13103 7.93121 4.51144 8.1855C5.09573 8.57602 5.86493 8.12067 5.86493 7.38417V7.12209L6.70221 7.95266C7.74636 8.98846 7.95868 9.0948 8.47935 8.84262C8.66038 8.75492 8.76174 8.65351 8.84939 8.47238C9.10735 7.93924 9.02117 7.76778 7.95434 6.69188L7.12609 5.85656H7.38991C8.12776 5.85656 8.58346 5.08771 8.19262 4.50234C7.93864 4.1219 7.82246 4.09816 6.21552 4.0981C4.92928 4.09798 4.75792 4.10936 4.57506 4.20666ZM22.1079 4.21493C21.3243 4.69291 21.6856 5.85656 22.6176 5.85656H22.8796L22.0219 6.7216C21.5502 7.19735 21.1361 7.66068 21.1017 7.75125C20.9418 8.17213 21.1317 8.64976 21.5371 8.84614C22.0497 9.09439 22.2664 8.985 23.307 7.95266L24.1443 7.12209V7.38417C24.1443 8.12067 24.9135 8.57602 25.4978 8.1855C25.8782 7.93121 25.9019 7.81526 25.9009 6.20827C25.9001 4.83014 25.8947 4.7629 25.7692 4.54372C25.5264 4.1202 25.4265 4.09793 23.7644 4.09822C22.4053 4.09839 22.2849 4.10689 22.1079 4.21493ZM14.3309 8.90217C12.9962 9.19228 11.9408 10.2054 11.6051 11.5189C11.0498 13.6912 12.7554 15.8784 15.0046 15.8784C16.6107 15.8784 18.1019 14.6678 18.4318 13.096C18.7972 11.3543 17.8396 9.66446 16.132 9.03805C15.6965 8.87832 14.7641 8.80797 14.3309 8.90217ZM2.33168 12.4498C2.07413 12.5842 0.199438 14.4061 0.0974954 14.6211C-0.143593 15.1295 0.00352068 15.3832 1.21488 16.5479C2.32494 17.6151 2.49584 17.7191 2.92752 17.5897C3.35275 17.4623 3.63198 17.026 3.55411 16.6107C3.53349 16.5007 3.42557 16.2914 3.31437 16.1456L3.11207 15.8804H4.29425C5.36817 15.8804 5.49923 15.8694 5.72573 15.7597C5.90676 15.672 6.00812 15.5706 6.09577 15.3894C6.25003 15.0706 6.2478 14.9113 6.08463 14.5929C5.85966 14.1539 5.74002 14.1219 4.32829 14.1219H3.11207L3.31437 13.8567C3.62635 13.4478 3.64809 13.1517 3.39663 12.7359C3.19479 12.4021 2.68537 12.2653 2.33168 12.4498ZM26.897 12.472C26.6645 12.5958 26.4316 12.9591 26.4302 13.2005C26.4289 13.4171 26.5509 13.6976 26.7478 13.9313L26.9084 14.1219H25.6865C24.6092 14.1219 24.4406 14.1347 24.2605 14.2305C24.0246 14.3562 23.7951 14.7187 23.7937 14.968C23.792 15.2767 24.0083 15.6264 24.2835 15.7597C24.5102 15.8695 24.641 15.8804 25.7263 15.8804H26.9198L26.7691 16.0416C26.5684 16.2562 26.4292 16.5415 26.4292 16.7383C26.4292 17.0375 26.6492 17.3871 26.92 17.5183C27.4475 17.7738 27.6468 17.6654 28.9089 16.4362C29.9545 15.4179 30.0621 15.2517 29.9769 14.787C29.9413 14.5925 29.7932 14.4226 28.9001 13.5522C28.3306 12.9971 27.7815 12.5025 27.68 12.4531C27.4329 12.3329 27.1452 12.3398 26.897 12.472ZM10.7886 16.2731C10.0617 17.2575 9.79265 18.0883 9.74748 19.4882C9.71918 20.3666 9.72545 20.4451 9.84239 20.6745C9.92553 20.8375 10.0454 20.9598 10.1989 21.0382C10.4248 21.1535 10.5355 21.1562 15.009 21.1562H19.5878L19.8155 21.0281C20.1801 20.823 20.2775 20.5513 20.2775 19.7385C20.2775 18.3124 19.9546 17.2727 19.1882 16.231L18.9246 15.8728L18.5746 16.197C16.541 18.0808 13.5228 18.1023 11.4915 16.2474L11.083 15.8744L10.7886 16.2731ZM7.71044 21.13C7.61377 21.1797 7.15902 21.5947 6.69981 22.0522L5.86493 22.8839L5.86481 22.6209C5.86464 22.0773 5.49559 21.6837 4.98611 21.6837C4.6497 21.6837 4.35694 21.861 4.20994 22.1539C4.12072 22.3315 4.10747 22.544 4.10742 23.8C4.1073 25.1992 4.11122 25.2479 4.23912 25.4359C4.53686 25.8736 4.53487 25.8732 6.17668 25.8911C7.49355 25.9054 7.67371 25.896 7.85574 25.8031C8.48298 25.4832 8.48298 24.5637 7.85574 24.2484C7.7436 24.192 7.53439 24.1459 7.39085 24.1459L7.12978 24.1457L7.95991 23.308C9.00084 22.2576 9.12832 21.9926 8.83732 21.4847C8.60848 21.0853 8.10532 20.927 7.71044 21.13ZM21.5069 21.1476C21.2634 21.2773 21.0414 21.638 21.0401 21.9065C21.0385 22.2252 21.1906 22.4357 22.0545 23.3104L22.8795 24.1457L22.6184 24.1459C22.4748 24.1459 22.2656 24.192 22.1535 24.2484C21.5263 24.5637 21.5263 25.4832 22.1535 25.8031C22.3355 25.896 22.5157 25.9054 23.8326 25.8911C25.4744 25.8732 25.4724 25.8736 25.7701 25.4359C25.898 25.2479 25.9019 25.1992 25.9018 23.8C25.9018 22.544 25.8885 22.3315 25.7993 22.1539C25.4842 21.5263 24.562 21.5263 24.2469 22.1539C24.1906 22.2661 24.1444 22.4754 24.1444 22.6191L24.1443 22.8804L23.2797 22.0222C22.8042 21.5503 22.3411 21.1359 22.2506 21.1015C22.0064 21.0086 21.7366 21.0253 21.5069 21.1476ZM14.6073 23.8915C14.5015 23.9437 14.3565 24.0684 14.285 24.1686C14.1629 24.34 14.1533 24.4277 14.1258 25.6323L14.0965 26.9136L13.9793 26.7837C13.8155 26.6021 13.4611 26.4319 13.247 26.4319C12.625 26.4319 12.1841 27.1356 12.4648 27.6805C12.5921 27.9276 14.3791 29.7739 14.6156 29.9026C14.8707 30.0415 15.1705 30.0313 15.4215 29.8755C15.6943 29.7059 17.4204 27.9199 17.5456 27.6775C17.8928 27.0058 17.1652 26.2146 16.4503 26.4866C16.3712 26.5166 16.2113 26.6249 16.095 26.7271L15.8834 26.913V25.7237C15.8834 24.6344 15.8731 24.513 15.7601 24.2795C15.5524 23.8502 15.0404 23.678 14.6073 23.8915Z"/>
</g>
<defs>
<linearGradient id="g" x1="2.18758" y1="21.7661" x2="22.3026" y2="6.16617" gradientUnits="userSpaceOnUse">
<stop stop-color="#005BAA"/>
<stop offset="1" stop-color="#00C2F3"/>
</linearGradient>
</defs>
</svg>
