<svg width="30" height="30" viewBox="0 0 30 30" fill="#003870" xmlns="http://www.w3.org/2000/svg">
<g>
<path fill-rule="evenodd" clip-rule="evenodd" d="M15.9444 2.03396C15.7975 1.9998 15.6447 1.99105 15.4932 2.00936C15.3295 2.00325 15.1651 2.00017 15 2.00017C14.8349 2.00017 14.6705 2.00325 14.5068 2.00936C14.3553 1.99105 14.2025 1.9998 14.0556 2.03396C7.31676 2.51776 2 8.13799 2 15C2 21.862 7.31675 27.4822 14.0556 27.966C14.2025 28.0002 14.3553 28.009 14.5068 27.9906C14.6705 27.9967 14.8349 27.9998 15 27.9998C15.1651 27.9998 15.3295 27.9967 15.4932 27.9906C15.6447 28.009 15.7975 28.0002 15.9444 27.966C22.6832 27.4822 28 21.862 28 15C28 8.13799 22.6832 2.51776 15.9444 2.03396ZM11.9121 5.06621C9.39492 5.8478 7.28728 7.55979 5.99133 9.80007H10.284C10.6553 8.17071 11.2007 6.58346 11.9121 5.06621ZM12.9594 9.80007C13.4137 8.04046 14.0982 6.34187 15 4.74971C15.9018 6.34187 16.5863 8.04046 17.0406 9.80007H12.9594ZM9.84375 12.4H4.92765C4.71376 13.231 4.6 14.1022 4.6 15C4.6 15.8978 4.71376 16.769 4.92765 17.6H9.84375C9.74753 16.7394 9.69887 15.8714 9.69887 15C9.69887 14.1286 9.74753 13.2606 9.84375 12.4ZM12.462 17.6C12.3537 16.7405 12.2989 15.8722 12.2989 15C12.2989 14.1278 12.3537 13.2595 12.462 12.4H17.538C17.6463 13.2595 17.7011 14.1278 17.7011 15C17.7011 15.8722 17.6463 16.7405 17.538 17.6H12.462ZM10.284 20.1999H5.99133C7.28728 22.4402 9.39493 24.1522 11.9121 24.9338C11.2007 23.4165 10.6553 21.8293 10.284 20.1999ZM15 25.2503C14.0982 23.6581 13.4137 21.9595 12.9594 20.1999H17.0406C16.5863 21.9595 15.9018 23.6581 15 25.2503ZM18.0879 24.9338C20.6051 24.1522 22.7127 22.4402 24.0087 20.1999H19.716C19.3447 21.8293 18.7993 23.4165 18.0879 24.9338ZM20.1563 17.6H25.0724C25.2862 16.769 25.4 15.8978 25.4 15C25.4 14.1022 25.2862 13.231 25.0724 12.4H20.1563C20.2525 13.2606 20.3011 14.1286 20.3011 15C20.3011 15.8714 20.2525 16.7394 20.1563 17.6ZM19.716 9.80007H24.0087C22.7127 7.55979 20.6051 5.8478 18.0879 5.06621C18.7993 6.58346 19.3447 8.17071 19.716 9.80007Z" />
</g>
<defs>
<linearGradient id="g" x1="2.18758" y1="21.7661" x2="22.3026" y2="6.16617" gradientUnits="userSpaceOnUse">
<stop stop-color="#005BAA"/>
<stop offset="1" stop-color="#00C2F3"/>
</linearGradient>
</defs>
</svg>
