<svg width="30" height="30" viewBox="0 0 30 30" fill="#003870" xmlns="http://www.w3.org/2000/svg">
<g>
<path fill-rule="evenodd" clip-rule="evenodd" d="M14.7965 2.05959C14.7326 2.09486 14.1766 2.43902 13.5609 2.82446L12.4416 3.52527H11.0426C10.2552 3.52527 9.59767 3.54924 9.53872 3.58007C9.48035 3.61056 9.17035 4.19554 8.83901 4.90027L8.24407 6.16567L7.10733 6.87631C6.48209 7.2672 5.9218 7.65066 5.86233 7.72856C5.75599 7.86763 5.75773 7.89482 5.95733 9.24699L6.16058 10.6239L5.58029 11.8663C5.26116 12.5497 5 13.1517 5 13.2041C5 13.3636 5.08017 13.468 5.98831 14.491C6.47029 15.0339 6.87622 15.5292 6.89041 15.5916C6.90459 15.6541 6.99686 16.2673 7.09552 16.9544C7.24965 18.0282 7.29273 18.2209 7.40198 18.3266C7.48826 18.41 7.92105 18.5612 8.75 18.7974C9.42151 18.9887 10.0146 19.158 10.0679 19.1737C10.1213 19.1893 10.5855 19.6732 11.0995 20.249C11.6639 20.8813 12.0888 21.3094 12.1723 21.3298C12.259 21.351 12.7963 21.2244 13.6122 20.9903C14.328 20.7849 14.9555 20.6169 15.0065 20.6169C15.0576 20.6169 15.6828 20.7848 16.3959 20.99C17.1998 21.2212 17.7444 21.3503 17.8292 21.3295C17.9108 21.3094 18.343 20.8736 18.9005 20.249C19.4145 19.6732 19.8787 19.1897 19.9321 19.1747C21.9715 18.5997 22.4855 18.4363 22.598 18.327C22.7072 18.221 22.7504 18.0277 22.9045 16.9544C23.0031 16.2673 23.0954 15.6541 23.1096 15.5916C23.1238 15.5292 23.5297 15.0339 24.0117 14.491C24.9198 13.468 25 13.3636 25 13.2041C25 13.1517 24.7388 12.5497 24.4197 11.8663L23.8394 10.6239L24.0427 9.24699C24.2422 7.89585 24.2439 7.86746 24.138 7.72771C24.0787 7.64935 23.5185 7.26584 22.8932 6.87546L21.7563 6.16567L21.1612 4.90027C20.8298 4.19571 20.5196 3.61056 20.4613 3.58007C20.4023 3.54924 19.7455 3.52527 18.9596 3.52527H17.5627L16.5866 2.91134C15.024 1.92848 15.0297 1.93121 14.7965 2.05959ZM15.905 5.28963C18.8544 5.69029 21.177 7.92009 21.6572 10.8121C21.9355 12.488 21.4568 14.381 20.4121 15.7354C20.0532 16.2007 19.261 16.9471 18.806 17.2487C15.382 19.5183 10.7112 18.2874 8.92587 14.6451C7.68634 12.1162 8.20768 9.15767 10.2431 7.16971C10.8157 6.61051 11.3746 6.22376 12.1028 5.8829C13.2941 5.32535 14.6316 5.11667 15.905 5.28963ZM13.9965 6.22331C11.093 6.7607 9.05273 9.25137 9.20634 12.0711C9.36756 15.0311 11.7076 17.3166 14.7384 17.474C17.5192 17.6185 20.0094 15.7666 20.6672 13.0648C20.7166 12.8618 20.773 12.4146 20.7924 12.0711C20.9436 9.3969 19.0727 6.95774 16.3663 6.30042C15.7414 6.1487 14.6003 6.11156 13.9965 6.22331ZM15.2795 7.14518C15.4126 7.25727 16.8608 10.528 16.8606 10.7162C16.8605 10.783 16.8147 10.8897 16.7587 10.9531C16.6469 11.0801 15.1653 11.7588 15 11.7588C14.8347 11.7588 13.3531 11.0801 13.2413 10.9531C13.1853 10.8897 13.1395 10.783 13.1394 10.7162C13.1392 10.528 14.5874 7.25727 14.7205 7.14518C14.7853 7.0905 14.9112 7.04581 15 7.04581C15.0888 7.04581 15.2147 7.0905 15.2795 7.14518ZM14.3569 12.5622L15 12.8546L15.6431 12.5622C15.9969 12.4014 16.3512 12.2698 16.4306 12.2698C16.6123 12.2698 16.8605 12.5066 16.8605 12.6798C16.8605 12.8913 15.4151 16.3747 15.2811 16.486C15.2153 16.5406 15.0888 16.5853 15 16.5853C14.9112 16.5853 14.7847 16.5406 14.7189 16.486C14.5849 16.3747 13.1395 12.8913 13.1395 12.6798C13.1395 12.5066 13.3877 12.2698 13.5694 12.2698C13.6488 12.2698 14.0031 12.4014 14.3569 12.5622ZM8.38262 20.1438C8.28581 20.3884 7.62901 22.0288 6.92308 23.7892C6.21715 25.5496 5.63953 27.0346 5.63953 27.0892C5.63953 27.1437 5.69378 27.2557 5.76006 27.338C5.9214 27.5383 6.06645 27.5329 7.25349 27.2817C7.78878 27.1684 8.26087 27.0726 8.30256 27.0687C8.34424 27.0649 8.67128 27.4704 9.0293 27.9698C9.75331 28.9798 9.88913 29.0934 10.1995 28.9489C10.3743 28.8674 10.448 28.7014 11.7318 25.4968C12.4736 23.6452 13.0741 22.124 13.0663 22.1164C13.0585 22.1088 12.9083 22.1403 12.7325 22.1865C12.3241 22.2938 11.9199 22.2516 11.6 22.0685C11.4465 21.9807 11.026 21.5586 10.5003 20.9645L9.64919 20.0027L9.25773 19.8876C8.49826 19.6643 8.58215 19.6397 8.38262 20.1438ZM21.1628 19.7668C21.0828 19.794 20.8683 19.8573 20.6859 19.9075C20.3615 19.9968 20.336 20.0194 19.5015 20.9625C18.9744 21.5581 18.5537 21.9806 18.4 22.0685C18.0801 22.2516 17.6759 22.2938 17.2675 22.1865C17.0917 22.1403 16.9415 22.1088 16.9337 22.1164C16.9259 22.124 17.5264 23.6452 18.2682 25.4968C19.552 28.7014 19.6257 28.8674 19.8005 28.9489C20.109 29.0925 20.2441 28.9795 20.9692 27.9703C21.4359 27.321 21.652 27.065 21.7267 27.0732C21.7843 27.0796 22.2548 27.1754 22.7722 27.2862C23.9244 27.5329 24.0786 27.5383 24.2399 27.338C24.3062 27.2557 24.3605 27.1437 24.3605 27.0892C24.3605 27.0346 23.7829 25.5496 23.0769 23.7892C22.371 22.0288 21.715 20.3905 21.6192 20.1484C21.4418 19.7002 21.4177 19.6801 21.1628 19.7668Z" />
</g>
<defs>
<linearGradient id="g" x1="2.18758" y1="21.7661" x2="22.3026" y2="6.16617" gradientUnits="userSpaceOnUse">
<stop stop-color="#005BAA"/>
<stop offset="1" stop-color="#00C2F3"/>
</linearGradient>
</defs>
</svg>
