<svg width="16" height="14" viewBox="0 0 16 14" fill="none" xmlns="http://www.w3.org/2000/svg">
<path d="M6.35238e-08 4.2005C-9.83856e-05 3.64237 0.114236 3.08982 0.336322 2.57515C0.558408 2.06047 0.88379 1.59399 1.29345 1.20297C1.70311 0.811949 2.18883 0.504234 2.72223 0.297808C3.25562 0.0913814 3.82599 -0.00961549 4.4 0.000720242C5.07917 -0.00278618 5.75135 0.134079 6.37199 0.402243C6.99263 0.670408 7.54756 1.06375 8 1.5562C8.45244 1.06375 9.00737 0.670408 9.62801 0.402243C10.2486 0.134079 10.9208 -0.00278618 11.6 0.000720242C12.174 -0.00961549 12.7444 0.0913814 13.2778 0.297808C13.8112 0.504234 14.2969 0.811949 14.7065 1.20297C15.1162 1.59399 15.4416 2.06047 15.6637 2.57515C15.8858 3.08982 16.0001 3.64237 16 4.2005C16 8.36607 10.8968 11.5112 8 14C5.1096 11.4902 6.35238e-08 8.36918 6.35238e-08 4.2005Z" fill="#0A8DFF"/>
</svg>
