<svg width="16" height="16" viewBox="0 0 16 16" fill="none" xmlns="http://www.w3.org/2000/svg">
<path d="M3.52836 3.99865H4.33378C4.59902 3.99865 4.8534 4.10401 5.04096 4.29154C5.22851 4.47908 5.33388 4.73343 5.33388 4.99865C5.33388 5.26386 5.22851 5.51822 5.04096 5.70575C4.8534 5.89329 4.59902 5.99865 4.33378 5.99865H1.0001C0.734859 5.99865 0.480479 5.89329 0.292923 5.70575C0.105367 5.51822 0 5.26386 0 4.99865V1.66532C5.58959e-09 1.4001 0.105367 1.14575 0.292923 0.958213C0.480479 0.770676 0.734859 0.66532 1.0001 0.66532C1.26535 0.66532 1.51973 0.770676 1.70728 0.958213C1.89484 1.14575 2.0002 1.4001 2.0002 1.66532V2.70665C3.20666 1.33965 4.84391 0.425699 6.64079 0.116159C8.43767 -0.193381 10.2864 0.120061 11.8808 1.00457C13.4752 1.88909 14.7196 3.29161 15.408 4.97986C16.0963 6.66812 16.1873 8.54083 15.6658 10.2878C15.1444 12.0349 14.0418 13.5514 12.5407 14.5863C11.0395 15.6212 9.22989 16.1123 7.41146 15.9784C5.59303 15.8445 3.8749 15.0935 2.5416 13.8499C1.2083 12.6062 0.33983 10.9445 0.0800081 9.13998C0.0425204 8.87723 0.110952 8.61036 0.270249 8.39807C0.429547 8.18578 0.66666 8.04546 0.929428 8.00798C1.1922 7.97049 1.45909 8.03892 1.67141 8.1982C1.88372 8.35748 2.02406 8.59457 2.06154 8.85731C2.25677 10.2091 2.90732 11.4539 3.90574 12.3861C4.90417 13.3182 6.19072 13.8819 7.55288 13.9841C8.91504 14.0863 10.2713 13.7208 11.3976 12.9481C12.524 12.1753 13.353 11.0415 13.7477 9.73391C14.1425 8.42634 14.0794 7.02325 13.5688 5.75641C13.0582 4.48957 12.1307 3.43477 10.9395 2.76626C9.74833 2.09775 8.36472 1.85552 7.01724 2.07959C5.66977 2.30366 4.43904 2.98062 3.52836 3.99865ZM7.66745 3.99865C7.93269 3.99865 8.18707 4.10401 8.37463 4.29154C8.56219 4.47908 8.66755 4.73343 8.66755 4.99865V7.33198H9.66765C9.9329 7.33198 10.1873 7.43733 10.3748 7.62487C10.5624 7.81241 10.6678 8.06676 10.6678 8.33198C10.6678 8.59719 10.5624 8.85155 10.3748 9.03908C10.1873 9.22662 9.9329 9.33197 9.66765 9.33197H7.66745C7.40221 9.33197 7.14783 9.22662 6.96027 9.03908C6.77272 8.85155 6.66735 8.59719 6.66735 8.33198V4.99865C6.66735 4.73343 6.77272 4.47908 6.96027 4.29154C7.14783 4.10401 7.40221 3.99865 7.66745 3.99865Z" fill="#003870"/>
</svg>
