<svg width="16" height="16" viewBox="0 0 16 16" fill="none" xmlns="http://www.w3.org/2000/svg">
<path d="M8.00014 0.320068C3.75774 0.320068 0.319336 3.75847 0.319336 8.00007C0.319231 9.00875 0.517829 10.0076 0.903788 10.9395C1.28975 11.8714 1.85551 12.7182 2.56876 13.4314C3.282 14.1447 4.12877 14.7105 5.0607 15.0964C5.99262 15.4824 6.99145 15.681 8.00014 15.6809C12.2409 15.6809 15.6801 12.2425 15.6801 8.00007C15.6801 3.75847 12.2409 0.320068 8.00014 0.320068ZM8.71694 3.09287C9.46574 3.09287 9.68574 3.52727 9.68574 4.02407C9.68574 4.64407 9.18974 5.21767 8.34254 5.21767C7.63374 5.21767 7.29614 4.86167 7.31694 4.27207C7.31694 3.77527 7.73214 3.09287 8.71694 3.09287ZM6.79854 12.6001C6.28654 12.6001 5.91294 12.2889 6.27054 10.9249L6.85694 8.50487C6.95854 8.11767 6.97534 7.96247 6.85694 7.96247C6.70414 7.96247 6.03934 8.22967 5.64734 8.49367L5.39214 8.07527C6.63614 7.03607 8.06653 6.42647 8.67853 6.42647C9.19053 6.42647 9.27534 7.03127 9.02013 7.96247L8.34814 10.5065C8.22894 10.9561 8.28014 11.1113 8.39933 11.1113C8.55293 11.1113 9.05534 10.9257 9.54974 10.5361L9.83934 10.9249C8.62893 12.1345 7.30974 12.6001 6.79854 12.6001Z" fill="#0A8DFF"/>
</svg>
