<svg width="20" height="20" viewBox="0 0 20 20" fill="none" xmlns="http://www.w3.org/2000/svg">
<g style="mix-blend-mode:luminosity">
<path fill-rule="evenodd" clip-rule="evenodd" d="M6.04257 0.457991C7.06628 0.410863 7.39268 0.400391 10.0004 0.400391C12.6081 0.400391 12.9345 0.411736 13.9573 0.457991C14.9802 0.504245 15.6784 0.667445 16.2893 0.903954C16.929 1.1457 17.5093 1.52359 17.9893 2.01232C18.4781 2.49145 18.8551 3.07094 19.096 3.71152C19.3333 4.32243 19.4957 5.02061 19.5428 6.0417C19.5899 7.06715 19.6004 7.39355 19.6004 10.0004C19.6004 12.6081 19.589 12.9345 19.5428 13.9582C19.4965 14.9793 19.3333 15.6775 19.096 16.2884C18.8551 16.9291 18.4774 17.5095 17.9893 17.9893C17.5093 18.4781 16.929 18.8551 16.2893 19.096C15.6784 19.3333 14.9802 19.4957 13.9591 19.5428C12.9345 19.5899 12.6081 19.6004 10.0004 19.6004C7.39268 19.6004 7.06628 19.589 6.04257 19.5428C5.02148 19.4965 4.3233 19.3333 3.71239 19.096C3.07174 18.8551 2.49129 18.4774 2.01145 17.9893C1.52305 17.5099 1.1451 16.9297 0.903954 16.2893C0.667445 15.6784 0.505118 14.9802 0.457991 13.9591C0.410863 12.9336 0.400391 12.6072 0.400391 10.0004C0.400391 7.39268 0.411736 7.06628 0.457991 6.04345C0.504245 5.02061 0.667445 4.32243 0.903954 3.71152C1.14546 3.07101 1.52369 2.49085 2.01232 2.01145C2.49148 1.52316 3.07135 1.14521 3.71152 0.903954C4.32243 0.667445 5.02148 0.505118 6.04257 0.457991ZM13.8797 2.18599C12.8673 2.13974 12.5636 2.13014 10.0004 2.13014C7.43719 2.13014 7.13348 2.13974 6.12112 2.18599C5.18468 2.22875 4.67675 2.38497 4.33814 2.51675C3.89043 2.6913 3.57014 2.89814 3.23414 3.23414C2.91563 3.544 2.67051 3.92122 2.51675 4.33814C2.38497 4.67675 2.22875 5.18468 2.18599 6.12112C2.13974 7.13348 2.13014 7.43719 2.13014 10.0004C2.13014 12.5636 2.13974 12.8673 2.18599 13.8797C2.22875 14.8161 2.38497 15.324 2.51675 15.6626C2.67035 16.0789 2.91559 16.4568 3.23414 16.7666C3.54395 17.0852 3.92185 17.3304 4.33814 17.484C4.67675 17.6158 5.18468 17.772 6.12112 17.8148C7.13348 17.861 7.43632 17.8706 10.0004 17.8706C12.5645 17.8706 12.8673 17.861 13.8797 17.8148C14.8161 17.772 15.324 17.6158 15.6626 17.484C16.1104 17.3095 16.4306 17.1026 16.7666 16.7666C17.0852 16.4568 17.3304 16.0789 17.484 15.6626C17.6158 15.324 17.772 14.8161 17.8148 13.8797C17.861 12.8673 17.8706 12.5636 17.8706 10.0004C17.8706 7.43719 17.861 7.13348 17.8148 6.12112C17.772 5.18468 17.6158 4.67675 17.484 4.33814C17.3095 3.89043 17.1026 3.57014 16.7666 3.23414C16.4568 2.91565 16.0796 2.67054 15.6626 2.51675C15.324 2.38497 14.8161 2.22875 13.8797 2.18599ZM8.77421 12.9598C9.459 13.2449 10.2215 13.2833 10.9315 13.0687C11.6415 12.854 12.255 12.3994 12.6671 11.7827C13.0792 11.166 13.2644 10.4253 13.1911 9.68717C13.1178 8.94905 12.7905 8.25928 12.2651 7.73566C11.9302 7.40095 11.5252 7.14466 11.0794 6.98525C10.6335 6.82583 10.1579 6.76725 9.68664 6.81373C9.21543 6.86021 8.76038 7.01058 8.35426 7.25403C7.94813 7.49748 7.60104 7.82795 7.33796 8.22164C7.07489 8.61534 6.90237 9.06246 6.83284 9.53083C6.76331 9.9992 6.79849 10.4772 6.93584 10.9303C7.0732 11.3834 7.30932 11.8005 7.6272 12.1514C7.94508 12.5024 8.33682 12.7784 8.77421 12.9598ZM6.51123 6.51123C6.96943 6.05302 7.5134 5.68956 8.11207 5.44158C8.71074 5.1936 9.35239 5.06597 10.0004 5.06597C10.6484 5.06597 11.29 5.1936 11.8887 5.44158C12.4874 5.68956 13.0314 6.05302 13.4896 6.51123C13.9478 6.96943 14.3112 7.5134 14.5592 8.11207C14.8072 8.71074 14.9348 9.35239 14.9348 10.0004C14.9348 10.6484 14.8072 11.29 14.5592 11.8887C14.3112 12.4874 13.9478 13.0314 13.4896 13.4896C12.5642 14.4149 11.3091 14.9348 10.0004 14.9348C8.6917 14.9348 7.43661 14.4149 6.51123 13.4896C5.58584 12.5642 5.06597 11.3091 5.06597 10.0004C5.06597 8.6917 5.58584 7.43661 6.51123 6.51123ZM16.0292 5.80083C16.1427 5.69372 16.2336 5.56491 16.2965 5.42204C16.3594 5.27917 16.393 5.12513 16.3952 4.96906C16.3975 4.81298 16.3684 4.65803 16.3098 4.51339C16.2511 4.36875 16.164 4.23735 16.0536 4.12697C15.9432 4.0166 15.8118 3.92949 15.6672 3.87081C15.5225 3.81212 15.3676 3.78306 15.2115 3.78534C15.0554 3.78761 14.9014 3.82118 14.7585 3.88405C14.6157 3.94693 14.4868 4.03783 14.3797 4.15137C14.1714 4.3722 14.0574 4.66551 14.0618 4.96906C14.0662 5.2726 14.1888 5.56247 14.4034 5.77713C14.6181 5.99179 14.908 6.11434 15.2115 6.11876C15.515 6.12319 15.8084 6.00914 16.0292 5.80083Z" fill="url(#paint0_linear_3501_2625)"/>
</g>
<defs>
<linearGradient id="paint0_linear_3501_2625" x1="16.1095" y1="17.4004" x2="1.15431" y2="10.534" gradientUnits="userSpaceOnUse">
<stop stop-color="#4776E6"/>
<stop offset="1" stop-color="#8E54E9"/>
</linearGradient>
</defs>
</svg>
