<svg width="14" height="14" viewBox="0 0 14 14" fill="none" xmlns="http://www.w3.org/2000/svg">
<path d="M11.745 1.28113C10.0728 -0.427045 7.34971 -0.427045 5.6793 1.28113L1.04617 6.01036C1.01599 6.04119 1.00002 6.0829 1.00002 6.12642C1.00002 6.16994 1.01599 6.21164 1.04617 6.24247L1.7012 6.9116C1.73114 6.94205 1.77167 6.95915 1.81392 6.95915C1.85617 6.95915 1.8967 6.94205 1.92664 6.9116L6.55977 2.18237C7.13492 1.59484 7.9 1.27207 8.71302 1.27207C9.52604 1.27207 10.2911 1.59484 10.8645 2.18237C11.4396 2.7699 11.7556 3.55145 11.7556 4.38016C11.7556 5.21067 11.4396 5.99042 10.8645 6.57794L6.14261 11.3996L5.37752 12.1812C4.66214 12.912 3.49942 12.912 2.78404 12.1812C2.43788 11.8276 2.24794 11.3579 2.24794 10.8575C2.24794 10.357 2.43788 9.88731 2.78404 9.53371L7.46864 4.75008C7.58758 4.6304 7.74379 4.56331 7.91065 4.56331H7.91243C8.07929 4.56331 8.23373 4.6304 8.35089 4.75008C8.46982 4.87158 8.53373 5.03115 8.53373 5.20161C8.53373 5.37025 8.46805 5.52982 8.35089 5.6495L4.5219 9.55728C4.49173 9.58811 4.47575 9.62982 4.47575 9.67334C4.47575 9.71686 4.49173 9.75856 4.5219 9.78939L5.17693 10.4585C5.20687 10.489 5.2474 10.5061 5.28965 10.5061C5.3319 10.5061 5.37243 10.489 5.40238 10.4585L9.22959 6.54893C9.58284 6.18807 9.77633 5.70935 9.77633 5.19979C9.77633 4.69024 9.58107 4.2097 9.22959 3.85066C8.5 3.10537 7.31421 3.10718 6.58462 3.85066L6.13018 4.31669L1.90179 8.63428C1.6148 8.92573 1.38732 9.27248 1.23252 9.65442C1.07772 10.0364 0.998691 10.4459 1.00002 10.8593C1.00002 11.6989 1.32132 12.4877 1.90179 13.0806C2.50356 13.6935 3.29173 14 4.07989 14C4.86806 14 5.65622 13.6935 6.25622 13.0806L11.745 7.47737C12.5527 6.65048 13 5.54977 13 4.38016C13.0018 3.20873 12.5544 2.10802 11.745 1.28113Z" fill="#0A8DFF"/>
</svg>
