<svg width="18" height="16" viewBox="0 0 18 16" fill="none" xmlns="http://www.w3.org/2000/svg">
<g style="mix-blend-mode:luminosity">
<path d="M2.28658 3.7374C2.29736 3.62784 2.28292 3.51722 2.24441 3.41439C2.20591 3.31156 2.1444 3.21937 2.06482 3.1452L0.420979 1.1049V0.799805H5.52322L9.46738 9.7143L12.9346 0.799805H17.7992V1.1049L16.3939 2.4918C16.3343 2.53883 16.2884 2.60151 16.2609 2.67316C16.2335 2.7448 16.2256 2.82273 16.2381 2.8986V13.0992C16.2256 13.1751 16.2335 13.253 16.2609 13.3247C16.2884 13.3963 16.3343 13.459 16.3939 13.506L17.7667 14.8938V15.1998H10.8639V14.8947L12.286 13.4727C12.4259 13.3287 12.4259 13.2864 12.4259 13.0668V4.82101L8.47298 15.1656H7.9397L3.3373 4.82101V11.7546C3.29946 12.0453 3.39362 12.3396 3.5925 12.5502L5.44138 14.8614V15.1656H0.199219V14.8614L2.04722 12.5502C2.145 12.4459 2.21757 12.3196 2.25913 12.1814C2.30069 12.0433 2.31009 11.8971 2.28658 11.7546V3.7374Z" fill="url(#paint0_linear_3501_2623)"/>
</g>
<defs>
<linearGradient id="paint0_linear_3501_2623" x1="14.5992" y1="13.5498" x2="1.97562" y2="6.46597" gradientUnits="userSpaceOnUse">
<stop stop-color="#4776E6"/>
<stop offset="1" stop-color="#8E54E9"/>
</linearGradient>
</defs>
</svg>
