<svg width="16" height="16" viewBox="0 0 16 16" fill="none" xmlns="http://www.w3.org/2000/svg">
<path d="M14.9283 6.80281L15.7417 7.59558C16.0861 7.93126 16.0861 8.47405 15.7417 8.80616L8.62285 15.7482C8.27845 16.0839 7.72155 16.0839 7.38081 15.7482L0.258301 8.80616C-0.0861003 8.47048 -0.0861003 7.92769 0.258301 7.59558L1.07167 6.80281C1.41974 6.46356 1.98763 6.47071 2.32837 6.8171L6.53446 11.1202V0.857047C6.53446 0.3821 6.9265 0 7.41379 0H8.58622C9.07351 0 9.46554 0.3821 9.46554 0.857047V11.1202L13.6716 6.8171C14.0124 6.46714 14.5803 6.45999 14.9283 6.80281Z" fill="#003870"/>
</svg>
