<svg width="12" height="12" viewBox="0 0 12 12" fill="#005BAA" xmlns="http://www.w3.org/2000/svg">
<path d="M0.640027 5.33795L5.33787 5.33787L5.33795 0.659359C5.33531 0.574729 5.34979 0.490437 5.38052 0.411538C5.41125 0.332639 5.4576 0.260758 5.51679 0.200205C5.64497 0.0720191 5.81883 3.24852e-06 6.00011 1.10115e-10C6.18139 -3.2483e-06 6.35524 0.0720064 6.48342 0.200188C6.5438 0.258315 6.59167 0.328169 6.62408 0.405463C6.65649 0.482756 6.67277 0.565859 6.67191 0.649669L6.64766 5.35234L11.3745 5.35226C11.5321 5.35053 11.6843 5.40935 11.7998 5.51658C11.928 5.64476 12 5.81861 12 5.99989C12 6.18117 11.928 6.35503 11.7998 6.48321C11.7408 6.54737 11.669 6.59854 11.5891 6.63349C11.5093 6.66843 11.423 6.68639 11.3358 6.68621L6.66213 6.66213L6.66205 11.3503C6.66339 11.4333 6.64828 11.5158 6.61758 11.5929C6.58689 11.6701 6.54122 11.7404 6.48321 11.7998C6.35503 11.928 6.18117 12 5.99989 12C5.81861 12 5.64476 11.928 5.51658 11.7998C5.4562 11.7417 5.40833 11.6718 5.37592 11.5945C5.34351 11.5172 5.32723 11.4341 5.32809 11.3503L5.35234 6.64766L0.625504 6.64774C0.467915 6.64947 0.315675 6.59065 0.200188 6.48342C0.0720065 6.35524 -3.2483e-06 6.18139 1.10452e-10 6.00011C3.24852e-06 5.81883 0.0720192 5.64497 0.200205 5.51679C0.317653 5.40224 0.475699 5.33795 0.640027 5.33795Z"/>
</svg>
