<svg width="25" height="24" viewBox="0 0 25 24" fill="none" xmlns="http://www.w3.org/2000/svg">
<circle cx="12.5361" cy="12" r="12" fill="#4AD66D"/>
<path d="M18.3889 17.6372C18.2043 17.8791 17.9581 18 17.6504 18C17.2812 18 16.9119 17.7581 16.7888 17.3953L16.2965 15.9442C15.9888 15.1581 15.2503 14.6744 14.4502 14.6744H10.6962C9.89617 14.6744 9.15768 15.1581 8.84997 15.9442L8.2961 17.3953C8.17301 17.7581 7.80377 18 7.43452 18C7.12681 18 6.88065 17.8791 6.69602 17.6372C6.5114 17.3953 6.5114 17.093 6.57294 16.7907L10.8193 5.60465C10.9424 5.24186 11.3116 5 11.6809 5H13.404C13.7733 5 14.1425 5.24186 14.2656 5.60465L18.512 16.7907C18.5735 17.093 18.512 17.3953 18.3889 17.6372Z" fill="white"/>
</svg>
