<svg width="25" height="24" viewBox="0 0 25 24" fill="none" xmlns="http://www.w3.org/2000/svg">
<circle cx="12.5361" cy="12" r="12" fill="#005BAA"/>
<path d="M8.40598 13.3964C10.0914 13.3964 11.2758 12.2873 11.2758 10.2058C11.2758 8.12431 10.0914 7 8.40598 7C6.70533 7 5.53613 8.12431 5.53613 10.2058C5.53613 12.2873 6.70533 13.3964 8.40598 13.3964ZM16.393 7.18232H14.7379L8.66412 17.8177H10.3192L16.393 7.18232ZM8.40598 12.0594C7.52529 12.0594 7.03939 11.4669 7.03939 10.2058C7.03939 8.92956 7.52529 8.35221 8.40598 8.35221C9.28668 8.35221 9.77258 8.92956 9.77258 10.2058C9.77258 11.4669 9.28668 12.0594 8.40598 12.0594ZM16.6663 11.6036C14.9656 11.6036 13.7964 12.7127 13.7964 14.7942C13.7964 16.8757 14.9656 18 16.6663 18C18.3518 18 19.5361 16.8757 19.5361 14.7942C19.5361 12.7127 18.3518 11.6036 16.6663 11.6036ZM16.6663 12.9406C17.547 12.9406 18.0329 13.5331 18.0329 14.7942C18.0329 16.0704 17.547 16.6478 16.6663 16.6478C15.7704 16.6478 15.2845 16.0704 15.2845 14.7942C15.2845 13.5331 15.7704 12.9406 16.6663 12.9406Z" fill="white"/>
</svg>
