<svg width="25" height="24" viewBox="0 0 25 24" fill="none" xmlns="http://www.w3.org/2000/svg">
<circle cx="12.5361" cy="12" r="12" fill="#0083F5"/>
<path d="M16.5293 15.2466C16.2864 15.2472 16.0555 15.152 15.8861 14.9813C15.7166 14.8106 15.6221 14.578 15.6227 14.3334L15.6661 10.0891L9.08058 16.7227C8.90765 16.8969 8.67495 16.9966 8.43366 16.9999C8.19237 17.0032 7.96227 16.9098 7.79396 16.7403C7.62566 16.5708 7.53295 16.339 7.53622 16.0959C7.53949 15.8529 7.63848 15.6185 7.8114 15.4443L14.3317 8.87635L10.2605 8.93194C10.0167 8.93526 9.78428 8.84092 9.61427 8.66967C9.44426 8.49842 9.3506 8.26427 9.3539 8.01876C9.35721 7.77324 9.4572 7.53645 9.63188 7.36049C9.80657 7.18453 10.0416 7.08381 10.2854 7.08048L17.5361 7L17.4515 14.3177C17.4498 14.438 17.4247 14.5575 17.3775 14.6693C17.3303 14.7812 17.2619 14.8831 17.1763 14.9694C17.0906 15.0556 16.9894 15.1245 16.8784 15.1721C16.7674 15.2196 16.6488 15.2449 16.5293 15.2466Z" fill="white"/>
</svg>
