<svg width="24" height="24" viewBox="0 0 24 24" fill="none" xmlns="http://www.w3.org/2000/svg">
<g style="mix-blend-mode:luminosity">
<path d="M18.945 3.21296C21.4179 2.22706 22.2081 2.01064 22.784 2.00009C22.9648 1.99774 23.3749 2.04231 23.6398 2.2599C23.8149 2.41239 23.9266 2.62705 23.9531 2.85989C23.998 3.14845 24.0107 3.44169 23.9911 3.73318C23.8033 5.71965 23.262 9.30666 22.6941 12.7611C22.2576 15.4197 21.8061 17.9997 21.4882 19.7105C21.1761 21.3767 20.5668 21.9345 19.9759 21.9902C18.6928 22.1081 17.7172 21.1369 16.4732 20.3193C14.5313 19.0349 13.4324 18.2372 11.5423 16.9857C9.45179 15.6015 10.6635 14.8127 11.8625 13.6063L12.0203 13.4461C12.0987 13.3646 12.4822 13.0063 13.0213 12.5019C14.7351 10.899 18.0259 7.82282 18.1076 7.46623C18.1226 7.40641 18.1364 7.18882 18.0074 7.07328C17.9372 7.0117 17.8508 6.9941 17.7644 6.99586C17.6884 6.99762 17.6135 7.01404 17.549 7.0287C17.3532 7.07328 14.2479 9.13716 8.22512 13.2262C7.66073 13.6145 7.1309 13.876 6.63447 14.0104C6.35573 14.0854 6.08736 14.1206 5.82935 14.1148C5.04037 14.0972 3.52113 13.6661 2.39351 13.2972L1.90284 13.14C0.760242 12.7781 -0.078275 12.5124 0.00580709 11.8374C0.0253878 11.6796 0.12214 11.5201 0.297215 11.3594C0.565586 11.1131 1.01479 10.8626 1.64944 10.6087C5.93302 8.71899 10.2293 6.85803 14.5382 5.02641C16.4225 4.23816 17.8485 3.6499 18.945 3.21296Z" fill="url(#paint0_linear_2907_753)"/>
</g>
<defs>
<linearGradient id="paint0_linear_2907_753" x1="19.6364" y1="19.7083" x2="2.27253" y2="10.1416" gradientUnits="userSpaceOnUse">
<stop stop-color="#4776E6"/>
<stop offset="1" stop-color="#8E54E9"/>
</linearGradient>
</defs>
</svg>
