<svg width="108" height="107" viewBox="0 0 108 107" fill="none" xmlns="http://www.w3.org/2000/svg">
<rect x="1.50891" y="0.63" width="105.051" height="105.051" rx="35.37" fill="#0B0E11" stroke="#5C5C5C" stroke-width="1.26"/>
<g style="mix-blend-mode:luminosity" clip-path="url(#clip0_1_670)">
<path d="M66.6746 36.5984C71.9326 34.5022 73.6126 34.042 74.8371 34.0196C75.2216 34.0146 76.0934 34.1094 76.6567 34.572C77.029 34.8962 77.2665 35.3527 77.3228 35.8477C77.4183 36.4612 77.4453 37.0848 77.4036 37.7045C77.0045 41.9282 75.8534 49.5549 74.6461 56.8998C73.7179 62.5525 72.7579 68.0381 72.082 71.6757C71.4183 75.2185 70.1228 76.4044 68.8665 76.5228C66.1383 76.7735 64.064 74.7084 61.4191 72.9701C57.2901 70.2391 54.9538 68.5432 50.935 65.8821C46.4901 62.9391 49.0664 61.2619 51.6158 58.6968L51.9513 58.3563C52.1178 58.183 52.9334 57.4211 54.0795 56.3486C57.7236 52.9405 64.7203 46.4 64.8942 45.6418C64.9261 45.5146 64.9554 45.0519 64.6812 44.8063C64.5318 44.6753 64.3481 44.6379 64.1644 44.6417C64.0028 44.6454 63.8436 44.6803 63.7065 44.7115C63.2901 44.8063 56.6877 49.1945 43.8819 57.8887C42.6819 58.7142 41.5553 59.2704 40.4998 59.556C39.9072 59.7156 39.3366 59.7904 38.788 59.7779C37.1104 59.7405 33.8802 58.824 31.4827 58.0396L30.4394 57.7054C28.01 56.936 26.2271 56.3711 26.4059 54.9358C26.4475 54.6003 26.6532 54.2611 27.0255 53.9194C27.5961 53.3957 28.5512 52.8632 29.9006 52.3233C39.0084 48.3054 48.1431 44.3486 57.3048 40.4542C61.3113 38.7782 64.3432 37.5274 66.6746 36.5984Z" fill="url(#paint0_linear_1_670)"/>
</g>
<defs>
<linearGradient id="paint0_linear_1_670" x1="68.1446" y1="71.6711" x2="31.2254" y2="51.3302" gradientUnits="userSpaceOnUse">
<stop stop-color="#575656"/>
<stop offset="1" stop-color="#575656"/>
</linearGradient>
<clipPath id="clip0_1_670">
<rect width="51.0291" height="51.0291" fill="white" transform="translate(26.3936 29.767)"/>
</clipPath>
</defs>
</svg>
