<svg width="60" height="60" viewBox="0 0 60 60" fill="none" xmlns="http://www.w3.org/2000/svg">
<rect width="60" height="60" rx="30" fill="url(#paint0_linear_3457_23990)"/>
<g style="mix-blend-mode:luminosity" clip-path="url(#clip0_3457_23990)">
<path d="M37.1344 20.6557C40.1019 19.4727 41.0501 19.213 41.7412 19.2003C41.9582 19.1975 42.4502 19.251 42.7681 19.5121C42.9782 19.6951 43.1123 19.9527 43.1441 20.2321C43.198 20.5783 43.2132 20.9302 43.1897 21.28C42.9644 23.6638 42.3148 27.9682 41.6334 32.1135C41.1095 35.3038 40.5677 38.3998 40.1862 40.4528C39.8117 42.4523 39.0805 43.1216 38.3714 43.1885C36.8317 43.3299 35.661 42.1644 34.1683 41.1833C31.8379 39.642 30.5193 38.6849 28.2512 37.183C25.7425 35.522 27.1966 34.5754 28.6354 33.1277L28.8248 32.9356C28.9188 32.8377 29.379 32.4077 30.0259 31.8025C32.0826 29.879 36.0314 26.1876 36.1296 25.7597C36.1475 25.6879 36.1641 25.4268 36.0093 25.2881C35.925 25.2142 35.8213 25.1931 35.7177 25.1952C35.6265 25.1973 35.5366 25.217 35.4592 25.2346C35.2242 25.2881 31.4979 27.7648 24.2705 32.6716C23.5933 33.1376 22.9575 33.4515 22.3618 33.6126C22.0273 33.7027 21.7052 33.7449 21.3956 33.7379C20.4488 33.7168 18.6257 33.1995 17.2726 32.7568L16.6838 32.5682C15.3127 32.1339 14.3065 31.8151 14.4074 31.0051C14.4309 30.8157 14.547 30.6243 14.757 30.4315C15.0791 30.1359 15.6181 29.8354 16.3797 29.5306C21.52 27.263 26.6755 25.0298 31.8462 22.8319C34.1074 21.886 35.8186 21.1801 37.1344 20.6557Z" fill="white"/>
</g>
<defs>
<linearGradient id="paint0_linear_3457_23990" x1="30" y1="0" x2="30" y2="60" gradientUnits="userSpaceOnUse">
<stop stop-color="#2AABEE"/>
<stop offset="1" stop-color="#229ED9"/>
</linearGradient>
<clipPath id="clip0_3457_23990">
<rect width="28.8" height="28.8" fill="white" transform="translate(14.4004 16.7998)"/>
</clipPath>
</defs>
</svg>
