<svg width="1120" height="942" viewBox="0 0 1120 942" fill="none" xmlns="http://www.w3.org/2000/svg">
<path opacity="0.15" d="M1090.7 541.468L995.883 288.52C931.299 116.242 763.652 0.0231934 578.142 0.0231934H539.666C355.53 0.0231934 187.884 116.242 123.3 288.52L28.4833 541.468C-22.3602 678.196 -3.1221 829.965 79.3268 950.286C163.15 1069.24 299.19 1141.71 446.224 1141.71C480.339 1141.71 516.776 1137.08 551.265 1128.9C555.87 1127.8 558.172 1127.26 560.279 1127.26C562.385 1127.26 564.687 1127.8 569.292 1128.9C603.781 1137.08 640.218 1141.71 674.333 1141.71C819.993 1141.71 957.407 1070.61 1041.23 950.286C1123.68 829.965 1141.54 676.829 1090.7 541.468ZM1020.62 936.613C942.292 1048.73 811.748 1117.09 672.959 1117.09C636.029 1117.09 599.1 1111.68 562.171 1102.19C561.827 1102.1 561.492 1101.97 561.174 1101.82V1101.82C559.744 1101.11 558.05 1101.11 556.62 1101.82V1101.82C556.314 1101.98 555.99 1102.1 555.659 1102.19C520.072 1111.68 481.78 1117.09 444.85 1117.09C306.061 1117.09 176.891 1050.1 97.1907 936.613C18.8643 823.129 -0.373807 678.196 49.0955 549.672L143.912 296.724C205.748 134.017 363.775 23.267 539.666 23.267H578.142C752.659 23.267 912.06 132.65 973.897 296.724L1068.71 549.672C1118.18 678.196 1098.94 823.129 1020.62 936.613ZM1049.48 556.508L954.659 303.56C896.945 149.057 745.789 43.7763 579.517 43.7763H541.041C374.769 43.7763 223.612 147.69 165.898 303.56L69.7077 556.508C22.9867 679.564 40.8506 816.292 116.429 924.308C192.007 1032.32 314.306 1096.59 446.224 1096.59C479.941 1096.59 515.927 1092.07 550.058 1083.04C555.314 1081.64 557.943 1080.95 560.29 1080.95C562.638 1080.95 565.258 1081.65 570.498 1083.04C604.422 1092.07 639.378 1096.59 674.333 1096.59C806.251 1096.59 928.55 1032.32 1004.13 924.308C1078.33 816.292 1094.82 679.564 1049.48 556.508ZM983.516 910.635C913.435 1011.81 798.006 1071.97 672.959 1071.97C636.001 1071.97 599.044 1066.55 563.444 1055.69C563.167 1055.61 562.896 1055.5 562.636 1055.37V1055.37C561.151 1054.63 559.406 1054.63 557.921 1055.37V1055.37C557.661 1055.5 557.391 1055.61 557.113 1055.69C521.503 1066.55 483.187 1071.97 447.598 1071.97C323.925 1071.97 207.123 1011.81 137.041 910.635C66.9594 809.456 50.4697 679.564 93.0683 564.712L187.884 311.764C241.476 165.465 384.388 68.3874 541.041 68.3874H579.517C736.17 68.3874 877.707 166.832 932.673 313.131L1027.49 566.079C1070.09 679.564 1054.97 809.456 983.516 910.635ZM1006.88 571.548L912.06 318.601C859.843 181.872 726.55 88.8967 578.142 88.8967H539.666C391.258 88.8967 257.966 181.872 205.748 318.601L110.932 571.548C69.7077 680.931 84.8234 802.619 152.157 898.329C218.116 994.039 328.048 1051.47 444.85 1051.47C479.404 1051.47 513.958 1045.95 547.517 1035.91C553.353 1034.17 556.27 1033.3 558.904 1033.3C561.539 1033.3 564.456 1034.17 570.291 1035.91C603.85 1045.95 638.405 1051.47 672.959 1051.47C789.761 1051.47 899.693 994.039 965.652 898.329C1032.99 802.619 1048.1 680.931 1006.88 571.548ZM947.788 886.024C884.577 974.897 782.891 1028.22 672.959 1028.22C635.857 1028.22 597.381 1021.38 563.027 1009.08V1009.08C560.35 1008.19 557.459 1008.19 554.782 1009.08V1009.08C519.054 1021.38 481.952 1028.22 444.85 1028.22C336.292 1028.22 233.231 974.897 171.395 886.024C109.558 795.783 95.8165 682.298 132.919 579.752L227.735 326.804C275.83 198.279 400.877 112.141 539.666 112.141H578.142C716.931 112.141 841.979 198.279 890.074 326.804L984.89 579.752C1023.37 682.298 1009.62 795.783 947.788 886.024ZM870.836 335.008C825.489 214.687 707.312 134.017 578.142 134.017H539.666C410.496 134.017 292.32 214.687 248.347 335.008L153.531 587.956C117.803 683.666 131.544 790.314 189.259 873.718C246.973 957.122 343.163 1006.34 444.85 1006.34C478.551 1006.34 513.306 1001.1 545.421 989.692C552.511 987.173 556.056 985.914 559.071 985.886C562.086 985.858 565.563 987.02 572.518 989.345C604.597 1000.07 639.303 1006.34 672.959 1006.34C774.646 1006.34 870.836 957.122 928.55 872.351C986.264 788.946 1000.01 682.298 964.278 586.588L870.836 335.008ZM910.686 860.045C857.095 937.981 767.775 983.101 674.333 983.101C637.231 983.101 598.755 976.264 564.401 961.224V961.224C561.724 960.337 558.833 960.337 556.156 961.224V961.224C521.802 974.897 483.326 983.101 446.224 983.101C351.408 983.101 263.463 936.613 209.871 860.045C156.279 782.11 143.912 683.666 176.891 596.159L271.707 343.212C312.932 231.094 421.49 157.261 542.415 157.261H580.891C700.442 157.261 808.999 232.462 851.598 343.212L946.414 596.159C976.645 683.666 964.278 782.11 910.686 860.045ZM828.237 350.048C789.761 247.502 689.448 177.77 578.142 177.77H539.666C428.36 177.77 328.048 247.502 289.571 350.048L194.755 602.996C164.524 685.033 175.517 776.641 224.986 847.74C274.456 918.839 356.905 962.592 444.85 962.592C479.098 962.592 512.331 956.532 543.677 944.414C551.59 941.355 555.546 939.825 558.904 939.825C562.263 939.825 566.219 941.355 574.131 944.414C605.477 956.532 638.711 962.592 672.959 962.592C760.904 962.592 841.979 920.206 892.822 847.74C942.292 776.641 954.659 685.033 923.054 602.996L828.237 350.048ZM873.584 834.067C828.237 899.697 752.659 937.981 672.959 937.981C635.857 937.981 597.381 929.777 564.401 912.002V912.002C560.939 910.28 556.87 910.28 553.408 912.002V912.002C520.428 928.41 481.952 937.981 444.85 937.981C365.15 937.981 289.571 898.329 244.225 834.067C198.878 768.437 187.884 685.033 216.742 611.199L311.558 358.252C347.286 263.909 439.354 201.014 539.666 201.014H578.142C679.829 201.014 770.523 263.909 806.251 358.252L901.067 611.199C929.924 686.4 918.931 769.805 873.584 834.067ZM787.013 366.455C754.033 280.317 671.585 222.891 578.142 222.891H539.666C447.598 222.891 363.775 280.317 330.796 366.455L235.98 619.403C209.871 687.767 219.49 762.968 262.088 823.129C303.313 883.289 372.02 918.838 444.85 918.838C477.56 918.838 510.27 911.469 539.94 897.486C549.897 892.793 554.875 890.447 558.904 890.447C562.933 890.447 567.912 892.793 577.869 897.486C607.539 911.469 640.249 918.838 672.959 918.838C745.789 918.838 814.496 883.289 855.72 823.129C896.945 762.968 906.564 687.767 881.829 619.403L787.013 366.455ZM836.482 809.456C799.38 862.78 737.544 894.227 672.959 894.227C634.483 894.227 597.381 883.289 565.775 862.78V862.78C561.543 860.253 556.266 860.253 552.034 862.78V862.78C520.428 883.289 483.326 894.227 444.85 894.227C380.265 894.227 318.429 862.78 281.327 809.456C244.225 756.132 235.98 687.767 257.966 627.607L352.782 374.659C381.639 298.091 457.217 246.134 539.666 246.134H578.142C660.591 246.134 736.17 298.091 765.027 374.659L859.843 627.607C883.203 687.767 874.958 756.132 836.482 809.456ZM744.414 381.496C718.306 313.131 652.346 266.644 578.142 266.644H539.666C465.462 266.644 399.503 313.131 373.394 381.496L278.578 634.443C257.966 689.135 266.211 749.295 299.19 797.15C332.17 845.005 387.136 873.718 444.85 873.718C477.155 873.718 507.879 865.069 534.625 849.559C547.584 842.044 554.063 838.287 558.904 838.287C563.746 838.287 570.225 842.044 583.184 849.559C609.93 865.069 640.654 873.718 672.959 873.718C730.673 873.718 785.639 845.005 818.618 797.15C851.598 749.295 859.843 689.135 839.231 634.443L744.414 381.496ZM800.754 783.477C771.897 824.496 725.176 849.107 674.333 849.107C634.483 849.107 597.381 834.067 568.523 806.721V806.721C563.963 802.184 556.594 802.184 552.034 806.721V806.721C523.177 834.067 486.075 849.107 446.224 849.107C395.381 849.107 348.66 824.496 319.803 783.477C290.946 742.459 284.075 689.135 301.939 642.647L396.755 389.699C418.741 329.539 477.83 289.888 541.041 289.888H579.517C644.102 289.888 701.816 329.539 723.802 389.699L818.618 642.647C836.482 690.502 829.612 742.459 800.754 783.477ZM703.19 396.536C683.952 344.579 633.108 310.397 578.142 310.397H539.666C484.7 310.397 433.857 344.579 414.619 396.536L319.803 649.483C304.687 690.502 310.184 735.622 334.918 771.172C359.653 806.721 400.877 828.598 444.85 828.598C470.632 828.598 495.578 821.103 516.684 807.722C541.348 792.086 553.679 784.268 558.904 784.268C564.129 784.268 576.461 792.086 601.124 807.722C622.231 821.103 647.176 828.598 672.959 828.598C716.931 828.598 756.782 806.721 782.891 771.172C807.625 735.622 813.122 690.502 798.006 649.483L703.19 396.536ZM763.652 758.866C743.04 788.946 710.061 805.354 672.959 805.354C628.986 805.354 589.136 779.375 571.272 738.357V738.357C569.611 734.227 565.607 731.52 561.155 731.52H556.654C552.202 731.52 548.197 734.227 546.537 738.357V738.357C530.047 779.375 488.823 805.354 444.85 805.354C409.122 805.354 374.769 787.579 354.156 758.866C333.544 730.153 329.422 691.869 343.163 657.687L437.979 404.739C454.469 362.354 495.694 333.641 541.041 333.641H579.517C624.864 333.641 666.088 362.354 682.578 404.739L777.394 657.687C788.387 691.869 784.265 728.786 763.652 758.866ZM660.591 412.943C648.224 378.761 613.87 355.517 578.142 355.517H539.666C502.564 355.517 469.585 378.761 457.217 412.943L362.401 665.891C352.782 693.237 355.531 723.317 372.02 746.561C388.51 769.804 415.993 784.845 444.85 784.845C481.952 784.845 514.932 761.601 527.299 727.419V727.419C528.621 723.472 529.282 721.499 530.243 719.869C532.805 715.524 537.072 712.454 542.005 711.405C543.856 711.011 545.937 711.011 550.099 711.011H564.961C569.123 711.011 571.204 711.011 573.055 711.405C577.989 712.454 582.256 715.524 584.817 719.869C585.778 721.499 586.439 723.472 587.761 727.419V727.419C600.129 762.968 633.108 786.212 671.585 786.212C700.442 786.212 727.925 772.539 744.414 747.928C760.904 724.684 765.027 694.604 754.033 667.258L660.591 412.943ZM726.55 732.888C714.183 750.662 694.945 760.233 672.959 760.233C645.476 760.233 620.741 742.459 611.122 717.848L608.561 710.52C604.488 698.869 602.451 693.043 597.771 689.722C593.092 686.4 586.92 686.4 574.577 686.4H542.206C530.331 686.4 524.394 686.4 519.808 689.524C515.223 692.648 513.05 698.174 508.704 709.225L505.313 717.848C495.694 743.826 470.959 760.233 444.85 760.233C422.864 760.233 403.626 749.295 391.258 732.888C378.891 715.113 376.143 693.237 384.388 672.727L479.204 419.78C488.823 395.168 513.558 377.394 539.666 377.394H578.142C605.625 377.394 628.986 393.801 638.605 419.78L733.421 672.727C741.666 693.237 738.918 716.48 726.55 732.888ZM619.367 427.983C612.496 411.576 596.006 399.27 578.142 399.27H539.666C521.802 399.27 505.313 410.209 498.442 427.983L403.626 680.931C398.129 694.604 400.877 709.644 409.122 720.582C417.367 732.888 431.109 739.724 444.85 739.724C462.714 739.724 479.204 728.786 486.075 711.011L498.442 678.196C501.19 669.993 509.435 664.524 517.68 664.524H601.503C609.748 664.524 617.993 669.993 620.741 678.196L631.734 711.011C638.605 728.786 655.095 739.724 672.959 739.724C686.7 739.724 700.442 732.888 708.686 720.582C716.931 708.277 718.306 693.237 714.183 680.931L619.367 427.983ZM692.128 705.298C691.78 706.219 691.607 706.679 690.569 708.289C689.531 709.898 689.252 710.177 688.695 710.735C684.87 714.565 680.083 716.48 674.333 716.48C666.088 716.48 657.843 711.011 655.095 702.808L644.102 669.993C637.231 652.218 620.741 641.28 602.877 641.28H519.054C501.19 641.28 484.7 652.218 477.83 669.993L465.462 702.808C462.714 711.011 454.469 716.48 446.224 716.48C439.354 716.48 433.857 713.746 429.735 708.277C426.186 703.568 425.692 697.847 426.5 691.984C426.634 691.011 426.701 690.525 426.946 689.557C427.191 688.589 427.461 687.868 428.001 686.428L521.802 436.187C524.551 427.983 532.796 422.514 541.041 422.514H579.517C587.762 422.514 596.006 427.983 598.755 436.187L692.556 686.428C693.085 687.839 693.349 688.544 693.618 689.712C693.886 690.88 693.92 691.251 693.989 691.994C694.424 696.666 693.656 701.248 692.128 705.298Z" fill="#575656"/>
</svg>
