<svg width="60" height="60" viewBox="0 0 60 60" fill="none" xmlns="http://www.w3.org/2000/svg">
<rect width="60" height="60" rx="30" fill="#55ACEE"/>
<g clip-path="url(#clip0_3458_24033)">
<path d="M44.3988 23.1049C43.3839 23.5619 42.2935 23.8707 41.1473 24.0103C42.33 23.2911 43.2148 22.1593 43.6367 20.8259C42.5255 21.4966 41.3094 21.9687 40.0411 22.2217C39.1883 21.2964 38.0587 20.6831 36.8276 20.477C35.5966 20.2709 34.3331 20.4835 33.2332 21.0819C32.1333 21.6803 31.2586 22.631 30.7449 23.7864C30.2312 24.9417 30.1072 26.237 30.3922 27.4713C28.1406 27.3564 25.938 26.7618 23.9273 25.7259C21.9165 24.69 20.1426 23.236 18.7206 21.4584C18.2344 22.3107 17.9548 23.2988 17.9548 24.3512C17.9543 25.2986 18.1839 26.2315 18.6232 27.0671C19.0626 27.9027 19.6981 28.6152 20.4734 29.1413C19.5742 29.1122 18.6949 28.8654 17.9086 28.4212V28.4953C17.9085 29.8241 18.3608 31.1119 19.1888 32.1404C20.0168 33.1688 21.1694 33.8745 22.4511 34.1377C21.617 34.3671 20.7424 34.4009 19.8936 34.2365C20.2552 35.3798 20.9596 36.3796 21.9082 37.0959C22.8568 37.8122 24.002 38.2092 25.1836 38.2312C23.1778 39.8313 20.7006 40.6992 18.1505 40.6954C17.6988 40.6955 17.2475 40.6687 16.7988 40.6151C19.3873 42.3063 22.4004 43.2039 25.4778 43.2004C35.8949 43.2004 41.5897 34.4329 41.5897 26.829C41.5897 26.582 41.5836 26.3325 41.5727 26.0854C42.6804 25.2714 43.6366 24.2634 44.3964 23.1086L44.3988 23.1049Z" fill="white"/>
</g>
<defs>
<clipPath id="clip0_3458_24033">
<rect width="28.8" height="28.8" fill="white" transform="translate(15.5996 18)"/>
</clipPath>
</defs>
</svg>
