<svg width="24" height="24" viewBox="0 0 24 24" fill="none" xmlns="http://www.w3.org/2000/svg">
<g style="mix-blend-mode:luminosity">
<path d="M24 4.25375C23.1542 4.6346 22.2456 4.89193 21.2904 5.00825C22.276 4.40896 23.0133 3.46576 23.3649 2.35462C22.4389 2.91354 21.4254 3.30696 20.3686 3.51777C19.6579 2.74666 18.7165 2.23556 17.6907 2.06381C16.6648 1.89206 15.6119 2.06928 14.6953 2.56796C13.7787 3.06663 13.0498 3.85885 12.6217 4.82163C12.1936 5.78441 12.0903 6.86388 12.3278 7.89244C10.4515 7.79671 8.61598 7.30114 6.94036 6.4379C5.26474 5.57465 3.78646 4.36302 2.60147 2.88164C2.19629 3.59188 1.96331 4.41535 1.96331 5.29235C1.96286 6.08184 2.15419 6.85924 2.52031 7.55558C2.88644 8.25191 3.41604 8.84565 4.06214 9.2841C3.31284 9.25988 2.58007 9.05413 1.92482 8.684V8.74576C1.92475 9.85306 2.30167 10.9263 2.99164 11.7833C3.68161 12.6404 4.64213 13.2284 5.71021 13.4478C5.01511 13.6389 4.28635 13.6671 3.57897 13.5301C3.88032 14.4829 4.46732 15.316 5.25779 15.9129C6.04827 16.5099 7.00265 16.8406 7.98732 16.859C6.31578 18.1924 4.25145 18.9157 2.1264 18.9125C1.74997 18.9126 1.37386 18.8903 1 18.8456C3.15705 20.2549 5.66801 21.0029 8.23245 21C16.9134 21 21.6591 13.6938 21.6591 7.35719C21.6591 7.15132 21.654 6.9434 21.6449 6.73753C22.568 6.05917 23.3648 5.21916 23.998 4.25683L24 4.25375Z" fill="url(#paint0_linear_2907_338)"/>
</g>
<defs>
<linearGradient id="paint0_linear_2907_338" x1="19.8182" y1="18.8229" x2="3.24585" y2="9.6122" gradientUnits="userSpaceOnUse">
<stop stop-color="#4776E6"/>
<stop offset="1" stop-color="#8E54E9"/>
</linearGradient>
</defs>
</svg>
