<svg width="280" height="580" viewBox="0 0 280 580" fill="none" xmlns="http://www.w3.org/2000/svg">
<path d="M207.258 26.9662C232.834 26.9662 244.741 26.9662 244.741 26.9662V39.4121H35.2593V26.9662H72.7419C101.524 26.9662 104.908 0 141.781 0C178.654 0 181.683 26.9662 207.258 26.9662Z" fill="url(#paint0_linear_1989_14013)"/>
<path d="M0 35.2635C0 30.681 3.71438 26.9662 8.2963 26.9662H271.704C276.286 26.9662 280 30.681 280 35.2635V571.703C280 576.285 276.286 580 271.704 580H8.2963C3.71438 580 0 576.285 0 571.703V35.2635Z" fill="url(#paint1_linear_1989_14013)"/>
<defs>
<linearGradient id="paint0_linear_1989_14013" x1="-4.56158e-06" y1="31.4499" x2="339.337" y2="403.759" gradientUnits="userSpaceOnUse">
<stop stop-color="#0A1E3E"/>
<stop offset="0.552083" stop-color="#213960"/>
<stop offset="1" stop-color="#0A1E3E"/>
</linearGradient>
<linearGradient id="paint1_linear_1989_14013" x1="-4.56158e-06" y1="31.4499" x2="339.337" y2="403.759" gradientUnits="userSpaceOnUse">
<stop stop-color="#0A1E3E"/>
<stop offset="0.552083" stop-color="#213960"/>
<stop offset="1" stop-color="#0A1E3E"/>
</linearGradient>
</defs>
</svg>
