<svg width="400" height="440" viewBox="0 0 400 440" fill="none" xmlns="http://www.w3.org/2000/svg">
<path d="M382.441 396.638C364.044 424.696 334.61 440 301.495 440C262.249 440 226.682 415.768 210.738 377.507L208.285 371.13H191.115L188.662 377.507C173.944 415.768 137.151 440 97.9045 440C66.0167 440 35.3554 423.42 16.9587 396.638C-1.4381 369.855 -5.11746 334.145 7.14706 302.261L91.7722 66.3188C106.49 26.7826 143.283 0 183.756 0H218.097C258.57 0 295.363 26.7826 310.081 66.3188L394.706 302.261C404.517 334.145 400.838 368.58 382.441 396.638ZM290.457 73.971C279.419 42.087 248.758 20.4058 216.87 20.4058H182.53C149.415 20.4058 119.981 42.087 108.943 73.971L24.3174 309.913C15.7322 335.42 18.1851 363.478 32.9026 385.159C47.62 406.841 72.149 420.87 97.9045 420.87C131.019 420.87 160.454 399.188 171.492 367.304L176.397 352H220.55L225.455 367.304C236.493 400.464 265.928 422.145 300.269 422.145C326.024 422.145 350.554 409.391 365.271 386.435C379.988 364.754 383.668 336.696 373.856 311.188L290.457 73.971Z" fill="url(#paint0_linear_650_23443)"/>
<path d="M300.877 397.037C320.323 397.037 337.338 388.185 348.276 371.746C359.215 356.571 361.645 335.074 354.353 316.106L270.494 82.164C261.986 58.1375 241.325 42.9629 217.018 42.9629H182.988C159.896 42.9629 138.02 59.4021 129.512 82.164L45.6527 316.106C38.3605 335.074 40.7912 355.307 51.7294 371.746C62.6677 386.921 79.6826 397.037 99.1283 397.037C122.22 397.037 144.096 381.862 152.604 357.836L163.542 328.751H236.464L246.186 357.836C254.694 380.598 276.57 397.037 300.877 397.037Z" fill="url(#paint1_linear_650_23443)"/>
<path d="M217.298 58C233.543 58 248.538 69.7804 254.786 85.4877L341.007 327.642C344.756 339.422 343.506 353.82 336.009 365.601C328.511 377.381 316.015 383.926 303.519 383.926C287.275 383.926 272.28 373.454 266.032 356.438L256.035 325.024C253.536 317.17 246.038 311.934 238.541 311.934H162.316C154.819 311.934 147.321 317.17 144.822 325.024L133.576 356.438C127.328 373.454 112.333 383.926 96.0881 383.926C83.5922 383.926 71.0963 377.381 63.5988 365.601C56.1013 355.129 53.6021 340.731 58.6004 327.642L144.822 85.4877C151.07 68.4715 166.065 58 182.309 58H217.298Z" fill="url(#paint2_linear_650_23443)"/>
<defs>
<linearGradient id="paint0_linear_650_23443" x1="33.655" y1="368.35" x2="364.694" y2="134.956" gradientUnits="userSpaceOnUse">
<stop stop-color="#005BAA"/>
<stop offset="1" stop-color="#00C2F3"/>
</linearGradient>
<linearGradient id="paint1_linear_650_23443" x1="41.4844" y1="43.4694" x2="302.462" y2="434.457" gradientUnits="userSpaceOnUse">
<stop stop-color="#0A1E3E"/>
<stop offset="0.552083" stop-color="#045093"/>
<stop offset="1" stop-color="#0A1E3E"/>
</linearGradient>
<linearGradient id="paint2_linear_650_23443" x1="56" y1="80.3884" x2="275.26" y2="426.833" gradientUnits="userSpaceOnUse">
<stop stop-color="#0A1E3E"/>
<stop offset="0.552083" stop-color="#213960"/>
<stop offset="1" stop-color="#0A1E3E"/>
</linearGradient>
</defs>
</svg>
