<svg width="66" height="70" viewBox="0 0 66 70" fill="none" xmlns="http://www.w3.org/2000/svg">
<path d="M64.3226 33.1976L58.7285 17.6886C54.918 7.12575 45.0269 0 34.0819 0H31.8118C20.9478 0 11.0567 7.12575 7.24623 17.6886L1.6521 33.1976C-1.34765 41.5808 -0.212605 50.8862 4.65186 58.2635C9.5974 65.5569 17.6238 70 26.2987 70C28.4877 70 30.8389 69.6647 33.0279 69.0778C35.2169 69.6647 37.5681 70 39.7571 70C48.3509 70 56.4584 65.6407 61.4039 58.2635C66.2684 50.8862 67.3224 41.497 64.3226 33.1976Z" fill="#0A1E3E"/>
<path fill-rule="evenodd" clip-rule="evenodd" d="M32.3662 20.0612C31.5933 20.2121 30.6967 20.8747 30.2787 21.6041C29.6841 22.6417 29.7118 23.9901 30.3471 24.9324C30.4204 25.041 30.469 25.1397 30.455 25.1516C30.4412 25.1635 30.2974 25.2557 30.1355 25.3564C29.702 25.6262 28.9585 26.345 28.7058 26.7386C28.4921 27.0715 28.4769 27.0808 28.2251 27.0347C27.8567 26.967 26.3383 26.9754 25.9438 27.0473C25.618 27.1065 25.6118 27.1042 25.5683 26.9065C25.078 24.6782 22.4429 23.6706 20.6178 25.0134C19.2102 26.0491 18.9094 28.0118 19.9432 29.4153C20.401 30.0369 21.0805 30.4798 21.8284 30.6441C22.018 30.6858 22.0263 30.703 21.9774 30.9491C21.8349 31.665 21.8323 32.8927 21.9723 33.3337C22.0104 33.4535 21.9563 33.5201 21.6743 33.701C21.2699 33.9603 20.6616 34.5836 20.3272 35.0809C20.1972 35.2744 20.0818 35.4442 20.071 35.4581C20.0601 35.472 19.9623 35.4234 19.8535 35.3502C18.6666 34.5507 16.9628 34.7369 15.9191 35.7801C14.6936 37.0049 14.6936 38.9986 15.9191 40.2233C16.9628 41.2666 18.6666 41.4528 19.8535 40.6533C19.9623 40.58 20.0601 40.5315 20.071 40.5454C20.0818 40.5593 20.1972 40.729 20.3272 40.9226C20.6616 41.4199 21.2699 42.0431 21.6743 42.3025C21.9563 42.4834 22.0104 42.55 21.9723 42.6698C21.8323 43.1108 21.8349 44.3385 21.9774 45.0544C22.0263 45.3005 22.018 45.3177 21.8284 45.3593C19.5993 45.8493 18.5912 48.4832 19.9346 50.3073C20.9708 51.7141 22.9345 52.0147 24.3388 50.9815C24.9607 50.5239 25.4037 49.8449 25.5683 49.097C25.6118 48.8993 25.618 48.8969 25.9438 48.9562C26.3383 49.0281 27.8567 49.0364 28.2251 48.9688C28.4769 48.9226 28.4921 48.932 28.7058 49.2649C28.9585 49.6585 29.702 50.3773 30.1355 50.6471C30.2974 50.7478 30.4412 50.84 30.455 50.8519C30.469 50.8638 30.4204 50.9624 30.3471 51.0711C29.6848 52.0534 29.6834 53.4576 30.3437 54.4852C31.2519 55.8986 32.9164 56.3897 34.3717 55.6735C34.8523 55.4371 35.45 54.8728 35.7213 54.3993C36.3159 53.3618 36.2882 52.0134 35.6529 51.0711C35.5796 50.9624 35.531 50.8638 35.545 50.8519C35.5588 50.84 35.7026 50.7478 35.8645 50.6471C36.298 50.3773 37.0415 49.6585 37.2942 49.2649C37.5079 48.932 37.5231 48.9226 37.7749 48.9688C38.1433 49.0364 39.6617 49.0281 40.0562 48.9562C40.382 48.8969 40.3882 48.8993 40.4317 49.097C40.7553 50.5674 42.026 51.5855 43.538 51.5855C46.1088 51.5855 47.5831 48.6604 46.0568 46.5881C45.599 45.9666 44.9195 45.5237 44.1716 45.3593C43.982 45.3177 43.9737 45.3005 44.0226 45.0544C44.1651 44.3385 44.1677 43.1108 44.0277 42.6698C43.9896 42.55 44.0437 42.4834 44.3257 42.3025C44.7301 42.0431 45.3384 41.4199 45.6728 40.9226C45.8028 40.729 45.9182 40.5593 45.929 40.5454C45.9399 40.5315 46.0377 40.58 46.1465 40.6533C47.3334 41.4528 49.0372 41.2666 50.0809 40.2233C51.3064 38.9986 51.3064 37.0049 50.0809 35.7801C49.0372 34.7369 47.3334 34.5507 46.1465 35.3502C46.0377 35.4234 45.9399 35.472 45.929 35.4581C45.9182 35.4442 45.8028 35.2744 45.6728 35.0809C45.3384 34.5836 44.7301 33.9603 44.3257 33.701C44.0437 33.5201 43.9896 33.4535 44.0277 33.3337C44.1677 32.8927 44.1651 31.665 44.0226 30.9491C43.9737 30.703 43.982 30.6858 44.1716 30.6441C45.6424 30.3209 46.6611 29.0505 46.6611 27.5395C46.6611 24.97 43.7345 23.4964 41.6612 25.022C41.0393 25.4796 40.5963 26.1586 40.4317 26.9065C40.3882 27.1042 40.382 27.1065 40.0562 27.0473C39.6617 26.9754 38.1433 26.967 37.7749 27.0347C37.5231 27.0808 37.5079 27.0715 37.2942 26.7386C37.0415 26.345 36.298 25.6262 35.8645 25.3564C35.7026 25.2557 35.5588 25.1635 35.545 25.1516C35.531 25.1397 35.5796 25.041 35.6529 24.9324C36.3152 23.95 36.3166 22.5459 35.6563 21.5183C34.9092 20.3556 33.6699 19.8068 32.3662 20.0612ZM33.5529 22.2882C34.0335 22.6468 34.178 23.1998 33.9223 23.7008C33.755 24.0286 33.3572 24.2772 33 24.2772C32.285 24.2772 31.7614 23.5004 32.0189 22.8214C32.2595 22.1865 33.049 21.9121 33.5529 22.2882ZM23.0259 26.6631C23.3446 26.8731 23.4927 27.1544 23.4927 27.55C23.4927 28.1693 23.0921 28.5696 22.4725 28.5696C21.8529 28.5696 21.4524 28.1693 21.4524 27.55C21.4524 26.9307 21.8529 26.5304 22.4725 26.5304C22.6993 26.5304 22.8963 26.5776 23.0259 26.6631ZM44.0809 26.6631C44.3996 26.8731 44.5476 27.1544 44.5476 27.55C44.5476 28.1693 44.1471 28.5696 43.5275 28.5696C42.9079 28.5696 42.5073 28.1693 42.5073 27.55C42.5073 26.9307 42.9079 26.5304 43.5275 26.5304C43.7542 26.5304 43.9513 26.5776 44.0809 26.6631ZM33.7369 26.7077C34.7052 26.9599 35.4051 27.5536 35.8845 28.5299C36.1993 29.1711 36.3504 29.3212 36.7784 29.4176C36.9871 29.4647 37.1656 29.4344 37.6727 29.2661C38.9791 28.8322 40.2349 29.0723 41.0893 29.9191C42.0039 30.8259 42.2523 32.0025 41.8099 33.3334C41.642 33.8384 41.6118 34.0167 41.6589 34.2252C41.7554 34.653 41.9056 34.8041 42.5471 35.1187C43.291 35.4837 43.8089 35.9747 44.1234 36.6132C44.9306 38.2521 44.2712 40.0389 42.5471 40.8847C41.9056 41.1994 41.7554 41.3504 41.6589 41.7782C41.6118 41.9868 41.642 42.165 41.8099 42.67C42.2523 44.001 42.0039 45.1776 41.0893 46.0843C40.2349 46.9312 38.9791 47.1713 37.6727 46.7374C37.1656 46.5691 36.9871 46.5388 36.7784 46.5859C36.3504 46.6823 36.1993 46.8324 35.8845 47.4735C35.5193 48.2171 35.0281 48.7347 34.3893 49.049C32.7523 49.8545 30.9615 49.1965 30.1186 47.4799C29.6573 46.5403 29.2945 46.4006 28.2509 46.7606C26.0938 47.5048 23.9742 46.0573 23.9791 43.8433C23.98 43.4323 24.031 43.1486 24.1901 42.67C24.522 41.6715 24.3844 41.3417 23.4434 40.8801C21.7292 40.0392 21.0715 38.2479 21.8766 36.6132C22.1911 35.9747 22.709 35.4837 23.4529 35.1187C24.0944 34.8041 24.2446 34.653 24.3411 34.2252C24.3882 34.0167 24.358 33.8384 24.1901 33.3334C23.7477 32.0025 23.9961 30.8259 24.9107 29.9191C25.7651 29.0723 27.0209 28.8322 28.3273 29.2661C28.8344 29.4344 29.0129 29.4647 29.2216 29.4176C29.6496 29.3212 29.8007 29.1711 30.1155 28.5299C30.8425 27.0496 32.2771 26.3277 33.7369 26.7077ZM31.7447 30.7242C29.8844 31.036 28.1814 32.0816 26.9986 33.6381C26.5156 34.2737 25.9898 35.3718 25.7686 36.207C25.6053 36.8235 25.5822 37.0461 25.5822 38.0017C25.5822 38.9574 25.6053 39.1799 25.7686 39.7965C26.527 42.6598 28.8952 44.8116 31.808 45.2837C36.2746 46.0077 40.3939 42.5141 40.3939 38.0017C40.3939 33.4691 36.2368 29.9713 31.7447 30.7242ZM34.3027 32.8862C36.1963 33.4125 37.6692 34.9141 38.1469 36.8052C38.2022 37.0242 38.2447 37.544 38.2447 38.0017C38.2447 38.4595 38.2022 38.9793 38.1469 39.1982C37.6692 41.0895 36.1877 42.5994 34.3027 43.116C33.6805 43.2865 32.6807 43.314 32.0127 43.179C30.0207 42.7762 28.5287 41.4528 27.8821 39.515C27.7156 39.0161 27.6942 38.8436 27.6942 38.0017C27.6942 37.1599 27.7156 36.9874 27.8821 36.4885C28.513 34.5979 29.9807 33.2662 31.9085 32.8351C32.489 32.7052 33.7485 32.7321 34.3027 32.8862ZM18.6366 37.0877C18.949 37.247 19.1981 37.6525 19.1981 38.0017C19.1981 38.351 18.949 38.7564 18.6366 38.9158C18.4838 38.9937 18.2611 39.0575 18.1418 39.0575C17.606 39.0575 17.0855 38.5373 17.0855 38.0017C17.0855 37.6633 17.3347 37.248 17.632 37.0911C17.9718 36.9119 18.2896 36.9108 18.6366 37.0877ZM48.353 37.0877C48.6654 37.247 48.9145 37.6525 48.9145 38.0017C48.9145 38.121 48.8507 38.3435 48.7727 38.4962C48.6133 38.8085 48.2076 39.0575 47.8582 39.0575C47.5088 39.0575 47.1031 38.8085 46.9437 38.4962C46.7642 38.1445 46.7641 37.859 46.9435 37.5075C47.2038 36.9977 47.8178 36.8148 48.353 37.0877ZM23.0259 47.5665C23.3446 47.7765 23.4927 48.0579 23.4927 48.4535C23.4927 49.0728 23.0921 49.4731 22.4725 49.4731C21.8529 49.4731 21.4524 49.0728 21.4524 48.4535C21.4524 47.8342 21.8529 47.4338 22.4725 47.4338C22.6993 47.4338 22.8963 47.4811 23.0259 47.5665ZM44.0809 47.5665C44.3996 47.7765 44.5476 48.0579 44.5476 48.4535C44.5476 48.6801 44.5004 48.877 44.4149 49.0066C44.2048 49.3252 43.9233 49.4731 43.5275 49.4731C43.1317 49.4731 42.8502 49.3252 42.6401 49.0066C42.5546 48.877 42.5073 48.6801 42.5073 48.4535C42.5073 48.2268 42.5546 48.0299 42.6401 47.9003C42.8502 47.5818 43.1317 47.4338 43.5275 47.4338C43.7542 47.4338 43.9513 47.4811 44.0809 47.5665ZM33.4948 51.8679C34.4493 52.3546 34.0746 53.8729 33 53.8729C32.2113 53.8729 31.7109 53.0213 32.0776 52.3029C32.3459 51.7774 32.9522 51.5912 33.4948 51.8679Z" fill="url(#paint0_linear_1324_12699)"/>
<defs>
<linearGradient id="paint0_linear_1324_12699" x1="18.029" y1="50.1377" x2="45.8805" y2="28.5378" gradientUnits="userSpaceOnUse">
<stop stop-color="#005BAA"/>
<stop offset="1" stop-color="#00C2F3"/>
</linearGradient>
</defs>
</svg>
