<svg width="66" height="70" viewBox="0 0 66 70" fill="none" xmlns="http://www.w3.org/2000/svg">
<path d="M64.3226 33.1976L58.7285 17.6886C54.918 7.12575 45.0269 0 34.0819 0H31.8118C20.9478 0 11.0567 7.12575 7.24623 17.6886L1.6521 33.1976C-1.34765 41.5808 -0.212605 50.8862 4.65186 58.2635C9.5974 65.5569 17.6238 70 26.2987 70C28.4877 70 30.8389 69.6647 33.0279 69.0778C35.2169 69.6647 37.5681 70 39.7571 70C48.3509 70 56.4584 65.6407 61.4039 58.2635C66.2684 50.8862 67.3224 41.497 64.3226 33.1976Z" fill="#0A1E3E"/>
<path fill-rule="evenodd" clip-rule="evenodd" d="M32.7558 22.0728C32.6791 22.1159 32.0119 22.5366 31.2731 23.0077L29.93 23.8642H28.2511C27.3063 23.8642 26.5172 23.8935 26.4465 23.9312C26.3764 23.9685 26.0044 24.6834 25.6068 25.5448L24.8929 27.0914L23.5288 27.9599C22.7785 28.4377 22.1062 28.9064 22.0348 29.0016C21.9072 29.1715 21.9093 29.2048 22.1488 30.8574L22.3927 32.5403L21.6963 34.0588C21.3134 34.894 21 35.6298 21 35.6939C21 35.8888 21.0962 36.0164 22.186 37.2668C22.7643 37.9303 23.2515 38.5356 23.2685 38.612C23.2855 38.6883 23.3962 39.4379 23.5146 40.2776C23.6996 41.59 23.7513 41.8255 23.8824 41.9547C23.9859 42.0567 24.5053 42.2415 25.5 42.5302C26.3058 42.764 27.0175 42.9709 27.0815 42.99C27.1455 43.0091 27.7026 43.6005 28.3194 44.3043C28.9967 45.0771 29.5065 45.6003 29.6068 45.6253C29.7108 45.6513 30.3556 45.4964 31.3346 45.2104C32.1936 44.9594 32.9466 44.754 33.0078 44.754C33.0691 44.754 33.8194 44.9591 34.675 45.21C35.6397 45.4926 36.2932 45.6503 36.395 45.6249C36.493 45.6004 37.0116 45.0677 37.6806 44.3043C38.2974 43.6005 38.8545 43.0097 38.9185 42.9913C41.3657 42.2885 41.9826 42.0888 42.1176 41.9552C42.2487 41.8257 42.3005 41.5894 42.4854 40.2776C42.6038 39.4379 42.7145 38.6883 42.7315 38.612C42.7485 38.5356 43.2357 37.9303 43.814 37.2668C44.9038 36.0164 45 35.8888 45 35.6939C45 35.6298 44.6866 34.894 44.3037 34.0588L43.6073 32.5403L43.8512 30.8574C44.0906 29.206 44.0927 29.1713 43.9656 29.0005C43.8944 28.9048 43.2222 28.436 42.4718 27.9589L41.1075 27.0914L40.3934 25.5448C39.9958 24.6836 39.6235 23.9685 39.5535 23.9312C39.4828 23.8935 38.6946 23.8642 37.7515 23.8642H36.0752L34.9039 23.1139C33.0288 21.9126 33.0357 21.9159 32.7558 22.0728ZM34.086 26.0207C37.6253 26.5104 40.4124 29.2357 40.9887 32.7703C41.3226 34.8187 40.7482 37.1323 39.4945 38.7877C39.0638 39.3564 38.1133 40.2687 37.5672 40.6373C33.4584 43.4113 27.8534 41.9069 25.711 37.4551C24.2236 34.3643 24.8492 30.7483 27.2918 28.3185C27.9788 27.6351 28.6495 27.1624 29.5234 26.7458C30.9529 26.0643 32.5579 25.8093 34.086 26.0207ZM31.7958 27.1618C28.3116 27.8186 25.8633 30.8628 26.0476 34.3091C26.2411 37.9269 29.0491 40.7203 32.686 40.9127C36.0231 41.0893 39.0113 38.8258 39.8007 35.5236C39.86 35.2755 39.9276 34.729 39.9509 34.3091C40.1323 31.0407 37.8873 28.0595 34.6395 27.2561C33.8897 27.0706 32.5204 27.0252 31.7958 27.1618ZM33.3354 28.2886C33.4951 28.4255 35.2329 32.4231 35.2327 32.6531C35.2326 32.7348 35.1776 32.8651 35.1105 32.9427C34.9762 33.0979 33.1983 33.9274 33 33.9274C32.8017 33.9274 31.0238 33.0979 30.8895 32.9427C30.8224 32.8651 30.7674 32.7348 30.7673 32.6531C30.7671 32.4231 32.5049 28.4255 32.6646 28.2886C32.7424 28.2217 32.8934 28.1671 33 28.1671C33.1066 28.1671 33.2576 28.2217 33.3354 28.2886ZM32.2282 34.9094L33 35.2667L33.7718 34.9094C34.1962 34.7128 34.6215 34.552 34.7168 34.552C34.9347 34.552 35.2326 34.8413 35.2326 35.0531C35.2326 35.3116 33.4981 39.569 33.3373 39.7051C33.2584 39.7718 33.1066 39.8265 33 39.8265C32.8934 39.8265 32.7416 39.7718 32.6627 39.7051C32.5019 39.569 30.7674 35.3116 30.7674 35.0531C30.7674 34.8413 31.0653 34.552 31.2832 34.552C31.3785 34.552 31.8038 34.7128 32.2282 34.9094ZM25.0591 44.1757C24.943 44.4747 24.1548 46.4797 23.3077 48.6313C22.4606 50.7829 21.7674 52.5979 21.7674 52.6646C21.7674 52.7312 21.8325 52.8681 21.9121 52.9687C22.1057 53.2135 22.2797 53.2069 23.7042 52.8998C24.3465 52.7614 24.913 52.6443 24.9631 52.6396C25.0131 52.6348 25.4055 53.1304 25.8352 53.7408C26.704 54.9753 26.867 55.1142 27.2394 54.9375C27.4492 54.838 27.5376 54.635 29.0782 50.7183C29.9683 48.4552 30.689 46.596 30.6796 46.5867C30.6703 46.5774 30.49 46.616 30.279 46.6724C29.789 46.8035 29.3039 46.752 28.92 46.5282C28.7357 46.4208 28.2313 45.9049 27.6003 45.1789L26.579 44.0033L26.1093 43.8627C25.1979 43.5897 25.2986 43.5597 25.0591 44.1757ZM40.3953 43.7149C40.2994 43.7482 40.0419 43.8255 39.823 43.8869C39.4337 43.9961 39.4033 44.0238 38.4017 45.1764C37.7693 45.9043 37.2644 46.4207 37.08 46.5282C36.6961 46.752 36.211 46.8035 35.721 46.6724C35.51 46.616 35.3297 46.5774 35.3204 46.5867C35.311 46.596 36.0317 48.4552 36.9218 50.7183C38.4624 54.635 38.5508 54.838 38.7606 54.9375C39.1307 55.1131 39.2929 54.9749 40.1631 53.7415C40.723 52.9478 40.9824 52.6351 41.0721 52.6451C41.1412 52.6528 41.7057 52.7699 42.3267 52.9053C43.7092 53.2069 43.8943 53.2135 44.0879 52.9687C44.1675 52.8681 44.2326 52.7312 44.2326 52.6646C44.2326 52.5979 43.5394 50.7829 42.6923 48.6313C41.8452 46.4797 41.058 44.4772 40.9431 44.1814C40.7302 43.6336 40.7013 43.609 40.3953 43.7149Z" fill="url(#paint0_linear_1325_12704)"/>
<defs>
<linearGradient id="paint0_linear_1325_12704" x1="23.0193" y1="49.6263" x2="45.5781" y2="36.9024" gradientUnits="userSpaceOnUse">
<stop stop-color="#005BAA"/>
<stop offset="1" stop-color="#00C2F3"/>
</linearGradient>
</defs>
</svg>
