<svg width="66" height="70" viewBox="0 0 66 70" fill="none" xmlns="http://www.w3.org/2000/svg">
<path d="M64.3226 33.1976L58.7285 17.6886C54.918 7.12575 45.0269 0 34.0819 0H31.8118C20.9478 0 11.0567 7.12575 7.24623 17.6886L1.6521 33.1976C-1.34765 41.5808 -0.212605 50.8862 4.65186 58.2635C9.5974 65.5569 17.6238 70 26.2987 70C28.4877 70 30.8389 69.6647 33.0279 69.0778C35.2169 69.6647 37.5681 70 39.7571 70C48.3509 70 56.4584 65.6407 61.4039 58.2635C66.2684 50.8862 67.3224 41.497 64.3226 33.1976Z" fill="#0A1E3E"/>
<path fill-rule="evenodd" clip-rule="evenodd" d="M34.1624 22.0418C33.9816 21.9998 33.7935 21.989 33.607 22.0115C33.4056 22.004 33.2032 22.0002 33 22.0002C32.7968 22.0002 32.5944 22.004 32.393 22.0115C32.2065 21.989 32.0184 21.9998 31.8376 22.0418C23.5437 22.6372 17 29.5544 17 38C17 46.4456 23.5437 53.3628 31.8376 53.9582C32.0184 54.0002 32.2065 54.011 32.393 53.9885C32.5944 53.996 32.7968 53.9998 33 53.9998C33.2032 53.9998 33.4056 53.996 33.607 53.9885C33.7935 54.011 33.9816 54.0002 34.1624 53.9582C42.4563 53.3628 49 46.4456 49 38C49 29.5544 42.4563 22.6372 34.1624 22.0418ZM29.1995 25.7738C26.1014 26.7358 23.5074 28.8428 21.9124 31.6001H27.1956C27.6527 29.5947 28.324 27.6412 29.1995 25.7738ZM30.4884 31.6001C31.0476 29.4344 31.8901 27.3438 33 25.3843C34.1099 27.3438 34.9524 29.4344 35.5116 31.6001H30.4884ZM26.6538 34.8H20.6033C20.34 35.8228 20.2 36.8951 20.2 38C20.2 39.1049 20.34 40.1772 20.6033 41.2H26.6538C26.5354 40.1407 26.4755 39.0725 26.4755 38C26.4755 36.9275 26.5354 35.8593 26.6538 34.8ZM29.8763 41.2C29.743 40.1421 29.6755 39.0735 29.6755 38C29.6755 36.9265 29.743 35.8579 29.8763 34.8H36.1237C36.257 35.8579 36.3245 36.9265 36.3245 38C36.3245 39.0735 36.257 40.1421 36.1237 41.2H29.8763ZM27.1956 44.3999H21.9124C23.5074 47.1572 26.1014 49.2643 29.1995 50.2262C28.324 48.3588 27.6527 46.4053 27.1956 44.3999ZM33 50.6157C31.8901 48.6562 31.0476 46.5656 30.4884 44.3999H35.5116C34.9524 46.5656 34.1099 48.6562 33 50.6157ZM36.8005 50.2262C39.8986 49.2642 42.4926 47.1572 44.0876 44.3999H38.8044C38.3473 46.4053 37.676 48.3588 36.8005 50.2262ZM39.3462 41.2H45.3967C45.66 40.1772 45.8 39.1049 45.8 38C45.8 36.8951 45.66 35.8228 45.3967 34.8H39.3462C39.4646 35.8593 39.5245 36.9275 39.5245 38C39.5245 39.0725 39.4646 40.1407 39.3462 41.2ZM38.8044 31.6001H44.0876C42.4926 28.8428 39.8986 26.7358 36.8005 25.7738C37.676 27.6412 38.3473 29.5947 38.8044 31.6001Z" fill="url(#paint0_linear_1324_12697)"/>
<defs>
<linearGradient id="paint0_linear_1324_12697" x1="19.6924" y1="48.7891" x2="44.4493" y2="29.5891" gradientUnits="userSpaceOnUse">
<stop stop-color="#005BAA"/>
<stop offset="1" stop-color="#00C2F3"/>
</linearGradient>
</defs>
</svg>
