<svg width="43" height="12" viewBox="0 0 43 12" fill="#0A8DFF" xmlns="http://www.w3.org/2000/svg">
<path d="M0.912393 6.85664L40.1351 6.85653L36.8231 10.5933C36.7464 10.68 36.6887 10.78 36.6531 10.8876C36.6176 10.9953 36.605 11.1084 36.616 11.2206C36.6382 11.4473 36.7554 11.6563 36.9417 11.8018C37.128 11.9473 37.3682 12.0173 37.6095 11.9964C37.8508 11.9755 38.0733 11.8654 38.2282 11.6904L42.7901 6.54799C42.8208 6.50708 42.8483 6.46411 42.8723 6.41943C42.8723 6.37657 42.9179 6.35086 42.9361 6.30801C42.9775 6.20974 42.9991 6.10513 43 5.99946C42.9991 5.8938 42.9775 5.78919 42.9361 5.69092C42.9361 5.64807 42.8905 5.62235 42.8723 5.5795C42.8483 5.53481 42.8208 5.49184 42.7901 5.45094L38.2282 0.308546C38.1424 0.211798 38.035 0.133993 37.9135 0.0806654C37.7921 0.0273379 37.6597 -0.000202843 37.5256 1.6373e-06C37.3125 -0.000389624 37.1059 0.0693545 36.9417 0.197127C36.8493 0.269077 36.7729 0.357441 36.717 0.457158C36.661 0.556875 36.6265 0.665986 36.6155 0.778242C36.6045 0.890498 36.6171 1.00369 36.6528 1.11134C36.6884 1.21899 36.7463 1.31898 36.8231 1.40559L40.1351 5.1424L0.912393 5.14251C0.670412 5.14251 0.438341 5.2328 0.267234 5.39354C0.096127 5.55427 0 5.77226 0 5.99957C0 6.22688 0.096127 6.44488 0.267234 6.60561C0.438341 6.76634 0.670412 6.85664 0.912393 6.85664Z"/>
</svg>
