<svg width="66" height="70" viewBox="0 0 66 70" fill="none" xmlns="http://www.w3.org/2000/svg">
<path d="M64.3226 33.1976L58.7285 17.6886C54.918 7.12575 45.0269 0 34.0819 0H31.8118C20.9478 0 11.0567 7.12575 7.24623 17.6886L1.6521 33.1976C-1.34765 41.5808 -0.212605 50.8862 4.65186 58.2635C9.5974 65.5569 17.6238 70 26.2987 70C28.4877 70 30.8389 69.6647 33.0279 69.0778C35.2169 69.6647 37.5681 70 39.7571 70C48.3509 70 56.4584 65.6407 61.4039 58.2635C66.2684 50.8862 67.3224 41.497 64.3226 33.1976Z" fill="#0A1E3E"/>
<path fill-rule="evenodd" clip-rule="evenodd" d="M49 38C49 46.8366 41.8366 54 33 54C24.1634 54 17 46.8366 17 38C17 29.1634 24.1634 22 33 22C41.8366 22 49 29.1634 49 38ZM33 50.4444C39.8729 50.4444 45.4444 44.8729 45.4444 38C45.4444 31.1271 39.8729 25.5556 33 25.5556C26.1271 25.5556 20.5556 31.1271 20.5556 38C20.5556 44.8729 26.1271 50.4444 33 50.4444Z" fill="url(#paint0_linear_1325_12702)"/>
<path fill-rule="evenodd" clip-rule="evenodd" d="M33.5342 29.2963C33.7885 29.5052 36.5559 35.6005 36.5556 35.9512C36.5554 36.0758 36.4678 36.2745 36.3609 36.3928C36.1471 36.6294 33.3159 37.8942 33 37.8942C32.6841 37.8942 29.8529 36.6294 29.6391 36.3928C29.5321 36.2745 29.4446 36.0758 29.4444 35.9512C29.4441 35.6005 32.2115 29.5052 32.4658 29.2963C32.5898 29.1944 32.8302 29.1111 33 29.1111C33.1698 29.1111 33.4102 29.1944 33.5342 29.2963ZM31.771 39.3914L33 39.9363L34.229 39.3914C34.905 39.0917 35.5822 38.8466 35.7339 38.8466C36.081 38.8466 36.5553 39.2877 36.5553 39.6106C36.5553 40.0048 33.7932 46.4963 33.5372 46.7037C33.4115 46.8055 33.1698 46.8889 33 46.8889C32.8302 46.8889 32.5885 46.8055 32.4628 46.7037C32.2068 46.4963 29.4447 40.0048 29.4447 39.6106C29.4447 39.2877 29.919 38.8466 30.2661 38.8466C30.4178 38.8466 31.095 39.0917 31.771 39.3914Z" fill="url(#paint1_linear_1325_12702)"/>
<defs>
<linearGradient id="paint0_linear_1325_12702" x1="19.6924" y1="48.7891" x2="44.4493" y2="29.5891" gradientUnits="userSpaceOnUse">
<stop stop-color="#005BAA"/>
<stop offset="1" stop-color="#00C2F3"/>
</linearGradient>
<linearGradient id="paint1_linear_1325_12702" x1="19.6924" y1="48.7891" x2="44.4493" y2="29.5891" gradientUnits="userSpaceOnUse">
<stop stop-color="#005BAA"/>
<stop offset="1" stop-color="#00C2F3"/>
</linearGradient>
</defs>
</svg>
