<svg width="66" height="70" viewBox="0 0 66 70" fill="none" xmlns="http://www.w3.org/2000/svg">
<path d="M64.3226 33.1976L58.7285 17.6886C54.918 7.12575 45.0269 0 34.0819 0H31.8118C20.9478 0 11.0567 7.12575 7.24623 17.6886L1.6521 33.1976C-1.34765 41.5808 -0.212605 50.8862 4.65186 58.2635C9.5974 65.5569 17.6238 70 26.2987 70C28.4877 70 30.8389 69.6647 33.0279 69.0778C35.2169 69.6647 37.5681 70 39.7571 70C48.3509 70 56.4584 65.6407 61.4039 58.2635C66.2684 50.8862 67.3224 41.497 64.3226 33.1976Z" fill="#0A1E3E"/>
<path fill-rule="evenodd" clip-rule="evenodd" d="M32.541 20.1046C32.2891 20.2289 30.0986 22.4921 29.9451 22.7866C29.7001 23.2565 29.9342 23.8991 30.4394 24.1438C30.5991 24.2212 30.8 24.2845 30.8857 24.2845C31.1093 24.2845 31.4581 24.125 31.7225 23.902L31.951 23.7092V25.1655C31.951 26.5324 31.9604 26.6386 32.1045 26.8952C32.397 27.416 33.1102 27.5915 33.562 27.254C34.0119 26.9179 34.0231 26.8714 34.0464 25.2326L34.0678 23.7286L34.382 23.9684C34.5547 24.1004 34.804 24.2286 34.936 24.2534C35.4311 24.3463 35.9572 24.0118 36.1081 23.5078C36.2695 22.9691 36.1907 22.8373 34.893 21.4736C34.2335 20.7806 33.5896 20.1642 33.4621 20.1036C33.1703 19.9651 32.8229 19.9655 32.541 20.1046ZM20.4901 25.048C20.3554 25.1197 20.1745 25.3017 20.0881 25.4525C19.9374 25.7155 19.931 25.7962 19.93 27.4499C19.9288 29.3783 19.9572 29.5174 20.4137 29.8226C21.1149 30.2912 22.0379 29.7448 22.0379 28.861V28.5465L23.0426 29.5432C24.2956 30.7862 24.5504 30.9138 25.1752 30.6111C25.3925 30.5059 25.5141 30.3842 25.6193 30.1669C25.9288 29.5271 25.8254 29.3213 24.5452 28.0303L23.5513 27.0279H23.8679C24.7533 27.0279 25.3001 26.1053 24.8311 25.4028C24.5264 24.9463 24.387 24.9178 22.4586 24.9177C20.9151 24.9176 20.7095 24.9312 20.4901 25.048ZM41.5294 25.0579C40.5892 25.6315 41.0227 27.0279 42.1411 27.0279H42.4556L41.4263 28.0659C40.8603 28.6368 40.3633 29.1928 40.3221 29.3015C40.1301 29.8066 40.3581 30.3797 40.8446 30.6154C41.4596 30.9133 41.7197 30.782 42.9684 29.5432L43.9732 28.5465V28.861C43.9732 29.7448 44.8962 30.2912 45.5974 29.8226C46.0538 29.5174 46.0823 29.3783 46.0811 27.4499C46.0801 25.7962 46.0737 25.7155 45.923 25.4525C45.6317 24.9442 45.5118 24.9175 43.5173 24.9179C41.8864 24.9181 41.7419 24.9283 41.5294 25.0579ZM32.197 30.6826C30.5954 31.0307 29.329 32.2465 28.9261 33.8227C28.2598 36.4294 30.3065 39.0541 33.0055 39.0541C34.9329 39.0541 36.7223 37.6013 37.1181 35.7152C37.5567 33.6251 36.4075 31.5974 34.3584 30.8457C33.8358 30.654 32.7169 30.5696 32.197 30.6826ZM17.798 34.9398C17.489 35.1011 15.2393 37.2873 15.117 37.5453C14.8277 38.1554 15.0042 38.4598 16.4579 39.8574C17.7899 41.1382 17.995 41.263 18.513 41.1077C19.0233 40.9547 19.3584 40.4312 19.2649 39.9329C19.2402 39.8008 19.1107 39.5496 18.9772 39.3747L18.7345 39.0565H20.1531C21.4418 39.0565 21.5991 39.0432 21.8709 38.9116C22.0881 38.8064 22.2097 38.6847 22.3149 38.4673C22.5 38.0847 22.4974 37.8935 22.3016 37.5115C22.0316 36.9847 21.888 36.9462 20.1939 36.9462H18.7345L18.9772 36.6281C19.3516 36.1374 19.3777 35.7821 19.076 35.283C18.8338 34.8825 18.2224 34.7183 17.798 34.9398ZM47.2764 34.9664C46.9973 35.1149 46.7179 35.551 46.7162 35.8406C46.7147 36.1005 46.861 36.4372 47.0973 36.7176L47.29 36.9462H45.8238C44.531 36.9462 44.3287 36.9616 44.1126 37.0766C43.8295 37.2274 43.5541 37.6624 43.5525 37.9616C43.5504 38.3321 43.81 38.7517 44.1402 38.9116C44.4123 39.0434 44.5691 39.0565 45.8716 39.0565H47.3038L47.1229 39.25C46.8821 39.5075 46.7151 39.8498 46.7151 40.086C46.7151 40.445 46.979 40.8645 47.3039 41.0219C47.937 41.3285 48.1762 41.1985 49.6907 39.7234C50.9454 38.5014 51.0745 38.3021 50.9723 37.7443C50.9295 37.511 50.7518 37.3072 49.6801 36.2626C48.9967 35.5966 48.3379 35.003 48.216 34.9437C47.9195 34.7994 47.5743 34.8078 47.2764 34.9664ZM27.9463 39.5277C27.074 40.7089 26.7512 41.7059 26.697 43.3858C26.663 44.4399 26.6705 44.5341 26.8109 44.8094C26.9106 45.005 27.0545 45.1517 27.2387 45.2458C27.5097 45.3842 27.6427 45.3874 33.0107 45.3874H38.5054L38.7786 45.2338C39.2162 44.9876 39.333 44.6616 39.333 43.6861C39.333 41.9748 38.9456 40.7272 38.0258 39.4772L37.7095 39.0474L37.2895 39.4364C34.8492 41.6969 31.2273 41.7227 28.7898 39.4969L28.2997 39.0493L27.9463 39.5277ZM24.2525 45.356C24.1365 45.4157 23.5908 45.9136 23.0398 46.4626L22.0379 47.4607L22.0378 47.145C22.0376 46.4928 21.5947 46.0205 20.9833 46.0205C20.5796 46.0205 20.2283 46.2332 20.0519 46.5846C19.9449 46.7978 19.929 47.0528 19.9289 48.56C19.9288 50.239 19.9335 50.2975 20.0869 50.5231C20.4442 51.0484 20.4418 51.0478 22.412 51.0693C23.9923 51.0865 24.2084 51.0752 24.4269 50.9638C25.1796 50.5798 25.1796 49.4764 24.4269 49.0981C24.2923 49.0305 24.0413 48.975 23.869 48.975L23.5557 48.9749L24.5519 47.9696C25.801 46.7091 25.954 46.3911 25.6048 45.7816C25.3302 45.3024 24.7264 45.1123 24.2525 45.356ZM40.8083 45.3771C40.516 45.5327 40.2497 45.9656 40.2481 46.2878C40.2462 46.6702 40.4287 46.9228 41.4654 47.9725L42.4553 48.9749L42.1421 48.975C41.9698 48.975 41.7188 49.0305 41.5842 49.0981C40.8315 49.4764 40.8315 50.5798 41.5842 50.9638C41.8026 51.0752 42.0188 51.0865 43.5991 51.0693C45.5692 51.0478 45.5668 51.0484 45.9241 50.5231C46.0776 50.2975 46.0823 50.239 46.0822 48.56C46.0821 47.0528 46.0662 46.7978 45.9591 46.5846C45.581 45.8316 44.4744 45.8316 44.0963 46.5846C44.0287 46.7193 43.9733 46.9705 43.9733 47.1429L43.9732 47.4565L42.9357 46.4266C42.3651 45.8603 41.8094 45.3631 41.7008 45.3218C41.4077 45.2103 41.0839 45.2304 40.8083 45.3771ZM32.5287 48.6698C32.4018 48.7324 32.2278 48.882 32.142 49.0023C31.9955 49.208 31.984 49.3133 31.951 50.7587L31.9158 52.2963L31.7752 52.1405C31.5786 51.9225 31.1533 51.7183 30.8964 51.7183C30.15 51.7183 29.621 52.5627 29.9578 53.2166C30.1106 53.5131 32.255 55.7287 32.5387 55.8831C32.8448 56.0498 33.2046 56.0376 33.5058 55.8506C33.8331 55.6471 35.9044 53.5038 36.0547 53.213C36.4713 52.407 35.5982 51.4576 34.7404 51.7839C34.6455 51.82 34.4536 51.9499 34.314 52.0726L34.0601 52.2956V50.8684C34.0601 49.5613 34.0477 49.4157 33.9121 49.1354C33.6629 48.6203 33.0485 48.4135 32.5287 48.6698Z" fill="url(#paint0_linear_1325_12701)"/>
<defs>
<linearGradient id="paint0_linear_1325_12701" x1="18.029" y1="50.1377" x2="45.8805" y2="28.5378" gradientUnits="userSpaceOnUse">
<stop stop-color="#005BAA"/>
<stop offset="1" stop-color="#00C2F3"/>
</linearGradient>
</defs>
</svg>
