<svg width="66" height="70" viewBox="0 0 66 70" fill="none" xmlns="http://www.w3.org/2000/svg">
<path d="M64.3226 33.1976L58.7285 17.6886C54.918 7.12575 45.0269 0 34.0819 0H31.8118C20.9478 0 11.0567 7.12575 7.24623 17.6886L1.6521 33.1976C-1.34765 41.5808 -0.212605 50.8862 4.65186 58.2635C9.5974 65.5569 17.6238 70 26.2987 70C28.4877 70 30.8389 69.6647 33.0279 69.0778C35.2169 69.6647 37.5681 70 39.7571 70C48.3509 70 56.4584 65.6407 61.4039 58.2635C66.2684 50.8862 67.3224 41.497 64.3226 33.1976Z" fill="#0A1E3E"/>
<path d="M22.2857 27.2857C22.2857 26.1491 22.7372 25.059 23.541 24.2553C24.3447 23.4515 25.4348 23 26.5714 23C27.7081 23 28.7982 23.4515 29.6019 24.2553C30.4056 25.059 30.8571 26.1491 30.8571 27.2857C30.8571 28.4224 30.4056 29.5124 29.6019 30.3162C28.7982 31.1199 27.7081 31.5714 26.5714 31.5714C25.4348 31.5714 24.3447 31.1199 23.541 30.3162C22.7372 29.5124 22.2857 28.4224 22.2857 27.2857Z" fill="url(#paint0_linear_1325_12703)"/>
<path d="M36.8121 30.68L36.9021 30.7486C37.8113 31.4225 38.9502 31.7095 40.0702 31.5468C41.1902 31.3842 42.2004 30.7851 42.8803 29.8804C43.5602 28.9756 43.8547 27.8387 43.6994 26.7176C43.5442 25.5966 42.9518 24.5825 42.0516 23.8966C41.1514 23.2107 40.0164 22.9087 38.8943 23.0566C37.7723 23.2045 36.7543 23.7901 36.0625 24.6858C35.3707 25.5815 35.0612 26.7145 35.2017 27.8374C35.3421 28.9604 35.9211 29.9823 36.8121 30.68Z" fill="url(#paint1_linear_1325_12703)"/>
<path d="M29.2886 33.7143C29.5577 33.2046 29.9269 32.7545 30.374 32.3908C30.8212 32.0272 31.337 31.7574 31.8908 31.5977C32.4446 31.438 33.0249 31.3917 33.597 31.4614C34.1692 31.5312 34.7213 31.7156 35.2205 32.0037C35.7197 32.2918 36.1556 32.6777 36.5023 33.1381C36.8489 33.5986 37.0991 34.1242 37.2379 34.6836C37.3767 35.243 37.4012 35.8247 37.31 36.3938C37.2188 36.9628 37.0138 37.5077 36.7071 37.9957C36.1173 38.9346 35.1865 39.6082 34.1103 39.8752C33.0341 40.1422 31.8964 39.9818 30.9361 39.4275C29.9757 38.8733 29.2676 37.9685 28.9604 36.9031C28.6531 35.8377 28.7708 34.6947 29.2886 33.7143Z" fill="url(#paint2_linear_1325_12703)"/>
<path d="M21.2143 33.7143H26.9357C26.7 34.385 26.5714 35.1071 26.5714 35.8571C26.5714 37.5029 27.1907 39.0071 28.2086 40.1429H27.6429C26.5381 40.1427 25.4602 40.484 24.5569 41.12C23.6535 41.756 22.9688 42.6556 22.5964 43.6957C21.8771 43.4068 21.2037 43.0148 20.5971 42.5321C18.9857 41.2357 18 39.32 18 36.9286C18 36.0761 18.3386 35.2585 18.9414 34.6557C19.5442 34.0529 20.3618 33.7143 21.2143 33.7143Z" fill="url(#paint3_linear_1325_12703)"/>
<path d="M38.3571 40.1429C40.6821 40.1429 42.6621 41.6236 43.4014 43.6957C44.13 43.3979 44.805 43.01 45.4029 42.5321C47.0143 41.2357 48 39.32 48 36.9286C48 36.0761 47.6614 35.2585 47.0586 34.6557C46.4558 34.0529 45.6382 33.7143 44.7857 33.7143H39.0643C39.3 34.385 39.4286 35.1071 39.4286 35.8571C39.4306 37.4388 38.8474 38.9653 37.7914 40.1429H38.3571Z" fill="url(#paint4_linear_1325_12703)"/>
<path d="M41.3293 44.2743C41.4857 44.6514 41.5714 45.0671 41.5714 45.5C41.5714 47.8914 40.5879 49.8071 38.9743 51.1036C37.3864 52.3786 35.2564 53 33 53C30.7436 53 28.6136 52.3786 27.0257 51.1036C25.4143 49.8071 24.4286 47.8914 24.4286 45.5C24.4274 45.0776 24.5098 44.6591 24.6709 44.2686C24.8321 43.8781 25.0688 43.5233 25.3675 43.2246C25.6662 42.9259 26.021 42.6892 26.4115 42.5281C26.802 42.367 27.2204 42.2846 27.6429 42.2857H38.3571C38.9938 42.2856 39.6161 42.4745 40.1453 42.8285C40.6744 43.1826 41.0865 43.6857 41.3293 44.2743Z" fill="url(#paint5_linear_1325_12703)"/>
<defs>
<linearGradient id="paint0_linear_1325_12703" x1="20.5241" y1="48.1148" x2="43.7337" y2="30.1148" gradientUnits="userSpaceOnUse">
<stop stop-color="#005BAA"/>
<stop offset="1" stop-color="#00C2F3"/>
</linearGradient>
<linearGradient id="paint1_linear_1325_12703" x1="20.5241" y1="48.1148" x2="43.7337" y2="30.1148" gradientUnits="userSpaceOnUse">
<stop stop-color="#005BAA"/>
<stop offset="1" stop-color="#00C2F3"/>
</linearGradient>
<linearGradient id="paint2_linear_1325_12703" x1="20.5241" y1="48.1148" x2="43.7337" y2="30.1148" gradientUnits="userSpaceOnUse">
<stop stop-color="#005BAA"/>
<stop offset="1" stop-color="#00C2F3"/>
</linearGradient>
<linearGradient id="paint3_linear_1325_12703" x1="20.5241" y1="48.1148" x2="43.7337" y2="30.1148" gradientUnits="userSpaceOnUse">
<stop stop-color="#005BAA"/>
<stop offset="1" stop-color="#00C2F3"/>
</linearGradient>
<linearGradient id="paint4_linear_1325_12703" x1="20.5241" y1="48.1148" x2="43.7337" y2="30.1148" gradientUnits="userSpaceOnUse">
<stop stop-color="#005BAA"/>
<stop offset="1" stop-color="#00C2F3"/>
</linearGradient>
<linearGradient id="paint5_linear_1325_12703" x1="20.5241" y1="48.1148" x2="43.7337" y2="30.1148" gradientUnits="userSpaceOnUse">
<stop stop-color="#005BAA"/>
<stop offset="1" stop-color="#00C2F3"/>
</linearGradient>
</defs>
</svg>
