<svg width="830" height="870" viewBox="0 0 830 870" fill="none" xmlns="http://www.w3.org/2000/svg">
<g style="mix-blend-mode:overlay" opacity="0.1">
<path d="M808.906 412.599L738.555 219.844C690.635 88.5629 566.247 0 428.605 0H400.057C263.435 0 139.047 88.5629 91.1269 219.844L20.7764 412.599C-16.9477 516.79 -2.67371 632.443 58.5006 724.132C120.694 814.778 221.632 870 330.726 870C358.255 870 387.822 865.832 415.351 858.539C442.879 865.832 472.447 870 499.975 870C608.05 870 710.007 815.82 772.201 724.132C833.375 632.443 846.63 515.748 808.906 412.599ZM756.907 713.713C698.792 799.15 601.932 851.245 498.956 851.245C471.427 851.245 443.899 847.078 416.37 839.784L414.331 838.742L412.292 839.784C385.783 847.078 357.235 851.245 329.707 851.245C226.73 851.245 130.89 800.192 71.755 713.713C13.6394 627.234 -0.634571 516.79 36.07 418.85L106.42 226.096C152.301 102.108 269.552 17.7126 400.057 17.7126H428.605C558.091 17.7126 676.361 101.066 722.242 226.096L792.592 418.85C829.297 516.79 815.023 627.234 756.907 713.713ZM778.318 424.06L707.968 231.305C665.146 113.569 552.993 33.3413 429.625 33.3413H401.077C277.709 33.3413 165.556 112.527 122.734 231.305L51.3636 424.06C16.6982 517.832 29.9526 622.024 86.029 704.335C142.105 786.647 232.847 835.617 330.726 835.617C358.255 835.617 387.822 831.449 415.351 823.114C442.879 831.449 471.427 835.617 499.975 835.617C597.854 835.617 688.596 786.647 744.672 704.335C799.729 622.024 811.964 517.832 778.318 424.06ZM729.379 693.916C677.381 771.018 591.737 816.862 498.956 816.862C471.427 816.862 443.899 812.695 417.39 804.359L415.351 803.317L413.312 804.359C386.803 812.695 358.255 816.862 331.746 816.862C239.984 816.862 153.321 771.018 101.323 693.916C49.3245 616.814 37.0896 517.832 68.6963 430.311L139.047 237.557C178.81 126.072 284.846 52.0958 401.077 52.0958H429.625C545.856 52.0958 650.872 127.114 691.655 238.599L762.005 431.353C793.612 517.832 782.397 616.814 729.379 693.916ZM746.712 435.521L676.361 242.766C637.617 138.575 538.719 67.7245 428.605 67.7245H400.057C289.943 67.7245 191.045 138.575 152.301 242.766L81.9508 435.521C51.3636 518.874 62.5789 611.605 112.538 684.539C161.477 757.473 243.043 801.234 329.707 801.234C358.255 801.234 386.803 796.024 414.331 786.647C441.86 796.024 470.408 801.234 498.956 801.234C585.619 801.234 667.185 757.473 716.125 684.539C766.084 611.605 777.299 518.874 746.712 435.521ZM702.87 675.162C655.97 742.886 580.521 783.521 498.956 783.521C471.427 783.521 442.879 778.311 417.39 768.934L414.331 767.892L411.272 768.934C384.764 778.311 357.235 783.521 329.707 783.521C249.161 783.521 172.693 742.886 126.812 675.162C80.9312 606.395 70.7355 519.916 98.2639 441.772L168.614 249.018C204.299 151.078 297.08 85.4371 400.057 85.4371H428.605C531.582 85.4371 624.363 151.078 660.048 249.018L730.398 441.772C758.946 519.916 748.751 606.395 702.87 675.162ZM645.774 255.269C612.128 163.581 524.445 102.108 428.605 102.108H400.057C304.217 102.108 216.534 163.581 183.908 255.269L113.557 448.024C87.0486 520.958 97.2443 602.228 140.066 665.784C182.888 729.341 254.258 766.85 329.707 766.85C358.255 766.85 387.822 761.641 414.331 750.18C440.84 760.599 470.408 766.85 498.956 766.85C574.404 766.85 645.774 729.341 688.596 664.742C731.418 601.186 741.614 519.916 715.105 446.982L645.774 255.269ZM675.342 655.365C635.578 714.754 569.306 749.138 499.975 749.138C472.447 749.138 443.899 743.928 418.409 732.467L415.351 731.425L412.292 732.467C386.803 742.886 358.255 749.138 330.726 749.138C260.376 749.138 195.123 713.713 155.36 655.365C115.597 595.976 106.42 520.958 130.89 454.275L201.241 261.521C231.828 176.084 312.374 119.82 402.096 119.82H430.644C519.347 119.82 599.893 177.126 631.5 261.521L701.85 454.275C724.281 520.958 715.105 595.976 675.342 655.365ZM614.167 266.731C585.619 188.587 511.19 135.449 428.605 135.449H400.057C317.472 135.449 243.043 188.587 214.495 266.731L144.145 459.485C121.714 522 129.871 591.808 166.575 645.988C203.28 700.168 264.454 733.509 329.707 733.509C359.274 733.509 387.822 727.257 414.331 714.754C440.84 727.257 469.388 733.509 498.956 733.509C564.208 733.509 624.363 701.21 662.087 645.988C698.792 591.808 707.968 522 684.518 459.485L614.167 266.731ZM647.813 635.569C614.167 685.581 558.091 714.754 498.956 714.754C471.427 714.754 442.879 708.503 418.409 694.958L414.331 692.874L410.253 694.958C385.783 707.461 357.235 714.754 329.707 714.754C270.572 714.754 214.495 684.539 180.849 635.569C147.203 585.557 139.047 522 160.458 465.737L230.808 272.982C257.317 201.09 325.628 153.162 400.057 153.162H428.605C504.053 153.162 571.345 201.09 597.854 272.982L668.205 465.737C689.616 523.042 681.459 586.599 647.813 635.569ZM583.58 279.234C559.11 213.593 497.936 169.832 428.605 169.832H400.057C331.746 169.832 269.552 213.593 245.082 279.234L174.732 471.988C155.36 524.084 162.497 581.389 194.104 627.234C224.691 673.078 275.669 700.168 329.707 700.168C359.274 700.168 388.842 691.832 414.331 676.204C439.82 691.832 469.388 700.168 498.956 700.168C552.993 700.168 603.972 673.078 634.559 627.234C665.146 581.389 672.283 524.084 653.931 471.988L583.58 279.234ZM620.285 616.814C592.756 657.449 546.876 681.413 498.956 681.413C470.408 681.413 442.879 673.078 419.429 657.449L414.331 654.323L409.233 657.449C385.783 673.078 358.255 681.413 329.707 681.413C281.787 681.413 235.906 657.449 208.378 616.814C180.849 576.18 174.732 524.084 191.045 478.24L261.395 285.485C282.806 227.138 338.883 187.545 400.057 187.545H428.605C489.779 187.545 545.856 227.138 567.267 285.485L637.617 478.24C654.95 524.084 648.833 576.18 620.285 616.814ZM551.973 290.695C532.602 238.599 483.662 203.174 428.605 203.174H400.057C345 203.174 296.061 238.599 276.689 290.695L206.339 483.449C191.045 525.126 197.162 570.97 221.632 607.437C246.102 643.904 286.885 665.784 329.707 665.784C361.313 665.784 390.881 654.323 414.331 634.527C437.781 654.323 467.349 665.784 498.956 665.784C541.778 665.784 582.561 643.904 607.03 607.437C631.5 570.97 637.617 525.126 622.324 483.449L551.973 290.695ZM593.776 597.018C572.365 628.275 537.699 647.03 499.975 647.03C470.408 647.03 442.879 635.569 421.468 614.731L415.351 608.479L409.233 614.731C387.822 635.569 360.294 647.03 330.726 647.03C293.002 647.03 258.337 628.275 236.926 597.018C215.515 565.76 210.417 525.126 223.671 489.701L294.022 296.946C310.335 251.102 354.176 220.886 401.077 220.886H429.625C477.545 220.886 520.367 251.102 536.68 296.946L607.03 489.701C620.285 526.168 615.187 565.76 593.776 597.018ZM521.386 302.156C507.112 262.563 469.388 236.515 428.605 236.515H400.057C359.274 236.515 321.55 262.563 307.276 302.156L236.926 494.91C225.71 526.168 229.789 560.551 248.141 587.641C266.493 614.731 297.08 631.401 329.707 631.401C364.372 631.401 396.998 612.647 414.331 582.431C431.664 612.647 464.29 631.401 498.956 631.401C531.582 631.401 561.15 614.731 580.521 587.641C598.874 560.551 602.952 526.168 591.737 494.91L521.386 302.156ZM566.247 578.263C550.954 601.186 526.484 613.689 498.956 613.689C466.329 613.689 436.762 593.892 423.507 562.635L421.468 557.425H407.194L405.155 562.635C392.92 593.892 362.333 613.689 329.707 613.689C303.198 613.689 277.709 600.144 262.415 578.263C247.121 556.383 244.063 527.21 254.258 501.162L324.609 308.407C336.844 276.108 367.431 254.228 401.077 254.228H429.625C463.271 254.228 493.858 276.108 506.093 308.407L576.443 501.162C584.6 527.21 581.541 555.341 566.247 578.263ZM489.779 314.659C480.603 288.611 455.114 270.898 428.605 270.898H400.057C372.529 270.898 348.059 288.611 338.883 314.659L268.532 507.413C261.395 528.251 263.435 551.174 275.669 568.886C287.904 586.599 308.296 598.06 329.707 598.06C357.235 598.06 381.705 580.347 390.881 554.299L394.959 541.796H431.664L435.742 554.299C444.918 581.389 469.388 599.102 497.936 599.102C519.347 599.102 539.739 588.683 551.973 569.928C564.208 552.216 567.267 529.293 559.11 508.455L489.779 314.659ZM538.719 558.467C529.543 572.012 515.269 579.305 498.956 579.305C478.564 579.305 460.212 565.76 453.075 547.006L444.918 523.042H383.744L374.568 547.006C367.431 566.802 349.079 579.305 329.707 579.305C313.394 579.305 299.12 570.97 289.943 558.467C280.767 544.922 278.728 528.251 284.846 512.623L355.196 319.868C362.333 301.114 380.685 287.569 400.057 287.569H428.605C448.997 287.569 466.329 300.072 473.466 319.868L543.817 512.623C549.934 528.251 547.895 545.964 538.719 558.467ZM459.192 326.12C454.094 313.617 441.86 304.24 428.605 304.24H400.057C386.803 304.24 374.568 312.575 369.47 326.12L299.12 518.874C295.041 529.293 297.08 540.754 303.198 549.09C309.315 558.467 319.511 563.677 329.707 563.677C342.961 563.677 355.196 555.341 360.294 541.796L369.47 516.79C371.509 510.539 377.627 506.371 383.744 506.371H445.938C452.055 506.371 458.173 510.539 460.212 516.79L468.368 541.796C473.466 555.341 485.701 563.677 498.956 563.677C509.151 563.677 519.347 558.467 525.465 549.09C531.582 539.713 532.602 528.251 529.543 518.874L459.192 326.12ZM512.21 539.713C509.151 543.88 505.073 545.964 499.975 545.964C493.858 545.964 487.74 541.796 485.701 535.545L477.545 510.539C472.447 496.994 460.212 488.659 446.957 488.659H384.764C371.509 488.659 359.274 496.994 354.176 510.539L345 535.545C342.961 541.796 336.844 545.964 330.726 545.964C325.628 545.964 321.55 543.88 318.491 539.713C315.433 535.545 315.433 530.335 316.452 525.126L386.803 332.371C388.842 326.12 394.959 321.952 401.077 321.952H429.625C435.742 321.952 441.86 326.12 443.899 332.371L514.249 525.126C515.269 530.335 514.249 535.545 512.21 539.713Z" fill="#0A1E3E"/>
</g>
</svg>
