<svg width="26" height="26" viewBox="0 0 26 26" fill="none" xmlns="http://www.w3.org/2000/svg">
<path fill-rule="evenodd" clip-rule="evenodd" d="M13.9444 0.0339558C13.7975 -0.000201701 13.6447 -0.00895363 13.4932 0.00935685C13.3295 0.00325359 13.1651 0.000174875 13 0.000174875C12.8349 0.000174875 12.6705 0.00325359 12.5068 0.00935685C12.3553 -0.00895363 12.2025 -0.000201701 12.0556 0.0339558C5.31676 0.517758 0 6.13799 0 13C0 19.862 5.31675 25.4822 12.0556 25.966C12.2025 26.0002 12.3553 26.009 12.5068 25.9906C12.6705 25.9967 12.8349 25.9998 13 25.9998C13.1651 25.9998 13.3295 25.9967 13.4932 25.9906C13.6447 26.009 13.7975 26.0002 13.9444 25.966C20.6832 25.4822 26 19.862 26 13C26 6.13799 20.6832 0.517758 13.9444 0.0339558ZM9.91213 3.06621C7.39492 3.8478 5.28728 5.55979 3.99133 7.80007H8.28396C8.65533 6.17071 9.20072 4.58346 9.91213 3.06621ZM10.9594 7.80007C11.4137 6.04046 12.0982 4.34187 13 2.74971C13.9018 4.34187 14.5863 6.04046 15.0406 7.80007H10.9594ZM7.84375 10.4H2.92765C2.71376 11.231 2.6 12.1022 2.6 13C2.6 13.8978 2.71376 14.769 2.92765 15.6H7.84375C7.74753 14.7394 7.69887 13.8714 7.69887 13C7.69887 12.1286 7.74753 11.2606 7.84375 10.4ZM10.462 15.6C10.3537 14.7405 10.2989 13.8722 10.2989 13C10.2989 12.1278 10.3537 11.2595 10.462 10.4H15.538C15.6463 11.2595 15.7011 12.1278 15.7011 13C15.7011 13.8722 15.6463 14.7405 15.538 15.6H10.462ZM8.28396 18.1999H3.99133C5.28728 20.4402 7.39493 22.1522 9.91213 22.9338C9.20073 21.4165 8.65533 19.8293 8.28396 18.1999ZM13 23.2503C12.0982 21.6581 11.4137 19.9595 10.9594 18.1999H15.0406C14.5863 19.9595 13.9018 21.6581 13 23.2503ZM16.0879 22.9338C18.6051 22.1522 20.7127 20.4402 22.0087 18.1999H17.716C17.3447 19.8293 16.7993 21.4165 16.0879 22.9338ZM18.1563 15.6H23.0724C23.2862 14.769 23.4 13.8978 23.4 13C23.4 12.1022 23.2862 11.231 23.0724 10.4H18.1563C18.2525 11.2606 18.3011 12.1286 18.3011 13C18.3011 13.8714 18.2525 14.7394 18.1563 15.6ZM17.716 7.80007H22.0087C20.7127 5.55979 18.6051 3.8478 16.0879 3.06621C16.7993 4.58346 17.3447 6.17071 17.716 7.80007Z" fill="url(#paint0_linear_1403_4584)"/>
</svg>
