<svg width="81" height="42" viewBox="0 0 81 42" fill="none" xmlns="http://www.w3.org/2000/svg">
<path d="M1 41L2.01282 37.497C3.02564 33.9939 5.05128 26.9878 7.07692 26.6373C9.10256 26.2868 11.1282 32.5919 13.1538 34.7142C15.1795 36.8365 17.2051 34.7759 19.2308 34.0255C21.2564 33.275 23.2821 33.8347 25.3077 33.0782C27.3333 32.3217 29.359 30.249 31.3846 25.9106C33.4103 21.5722 35.4359 14.9681 37.4615 15.5234C39.4872 16.0787 41.5128 23.7934 43.5385 23.9818C45.5641 24.1701 47.5897 16.832 49.6154 13.9102C51.641 10.9884 53.6667 12.4828 55.6923 15.2579C57.7179 18.033 59.7436 22.0888 61.7692 20.3745C63.7949 18.6601 65.8205 11.1756 67.8462 10.9771C69.8718 10.7785 71.8974 17.866 73.9231 17.4175C75.9487 16.969 77.9744 8.98448 78.9872 4.99224L80 1" stroke="url(#paint0_linear_2893_415)" stroke-width="1.5"/>
<defs>
<linearGradient id="paint0_linear_2893_415" x1="88.609" y1="-4" x2="-9.69554" y2="41.953" gradientUnits="userSpaceOnUse">
<stop stop-color="#2DB44F"/>
<stop offset="1" stop-color="#4AD66D" stop-opacity="0.33"/>
</linearGradient>
</defs>
</svg>
