<svg width="140" height="160" viewBox="0 0 140 160" fill="none" xmlns="http://www.w3.org/2000/svg">
<path d="M114.842 22.8766C127.119 30.247 133.258 33.9321 136.629 40.0026C140 46.0732 140 53.4435 140 68.1842V91.8447C140 106.572 140 113.935 136.634 119.999C133.269 126.062 127.138 129.742 114.878 137.102L95.1223 148.961C82.8616 156.321 76.7313 160.001 69.9984 160C63.2655 159.999 57.1322 156.317 44.8657 148.954L25.1584 137.123C12.8806 129.753 6.74167 126.068 3.37083 119.997C0 113.927 -1.07194e-07 106.557 0 91.8158L1.72158e-07 68.1553C2.79292e-07 53.4281 3.66798e-07 46.0645 3.36563 40.0015C6.73125 33.9384 12.8616 30.2583 25.1223 22.8983L44.8777 11.0391C57.1384 3.67907 63.2688 -0.000966136 70.0016 1.90258e-07C76.7345 0.000966516 82.8678 3.68277 95.1343 11.0464L114.842 22.8766Z" fill="#141734"/>
</svg>
