<svg width="1156" height="1180" viewBox="0 0 1156 1180" fill="none" xmlns="http://www.w3.org/2000/svg">
<g style="mix-blend-mode:luminosity" opacity="0.15">
<path d="M1126.62 559.617L1028.64 298.18C961.897 120.12 788.653 0 596.949 0H557.188C366.904 0 193.66 120.12 126.919 298.18L28.9368 559.617C-23.6043 700.934 -3.72387 857.796 81.478 982.156C168.1 1105.1 308.683 1180 460.626 1180C495.978 1180 533.745 1175.19 569.474 1166.69C574.075 1165.6 576.376 1165.05 578.489 1165.05C580.601 1165.05 582.902 1165.6 587.503 1166.69C623.232 1175.19 660.999 1180 696.351 1180C846.874 1180 988.877 1106.52 1075.5 982.156C1160.7 857.796 1179.16 699.521 1126.62 559.617ZM1054.2 968.024C973.257 1083.9 838.354 1154.56 694.931 1154.56C656.769 1154.56 618.607 1148.96 580.444 1139.16C580.088 1139.06 579.743 1138.94 579.414 1138.77C577.937 1138.04 576.185 1138.04 574.708 1138.78C574.391 1138.94 574.057 1139.06 573.715 1139.16C536.939 1148.96 497.369 1154.56 459.206 1154.56C315.783 1154.56 182.3 1085.32 99.9383 968.024C18.9966 850.731 -0.883808 700.934 50.2373 568.096L148.219 306.659C212.121 138.491 375.424 24.024 557.188 24.024H596.949C777.293 24.024 942.016 137.078 1005.92 306.659L1103.9 568.096C1155.02 700.934 1135.14 850.731 1054.2 968.024ZM1084.02 575.162L986.037 313.725C926.396 154.036 770.193 45.2216 598.369 45.2216H558.608C386.784 45.2216 230.581 152.623 170.94 313.725L71.5377 575.162C23.2567 702.347 41.7171 843.665 119.819 955.305C197.92 1066.95 324.303 1133.37 460.626 1133.37C495.581 1133.37 532.896 1128.67 568.267 1119.27C573.518 1117.88 576.144 1117.18 578.5 1117.18C580.856 1117.18 583.474 1117.88 588.708 1119.28C623.872 1128.67 660.112 1133.37 696.351 1133.37C832.674 1133.37 959.057 1066.95 1037.16 955.305C1113.84 843.665 1130.88 702.347 1084.02 575.162ZM1015.86 941.174C943.436 1045.75 824.154 1107.93 694.931 1107.93C656.74 1107.93 618.548 1102.32 581.76 1091.1C581.473 1091.01 581.194 1090.9 580.925 1090.77C579.39 1090.01 577.587 1090.01 576.052 1090.77C575.784 1090.9 575.505 1091.01 575.217 1091.1C538.418 1102.32 498.823 1107.93 462.046 1107.93C334.243 1107.93 213.541 1045.75 141.119 941.174C68.6977 836.599 51.6573 702.347 95.6783 583.641L193.66 322.204C249.042 170.994 396.725 70.6587 558.608 70.6587H598.369C760.252 70.6587 906.516 172.407 963.317 323.617L1061.3 585.054C1105.32 702.347 1089.7 836.599 1015.86 941.174ZM1040 590.707L942.016 329.269C888.055 187.952 750.312 91.8563 596.949 91.8563H557.188C403.825 91.8563 266.082 187.952 212.121 329.269L114.139 590.707C71.5377 703.76 87.1581 829.533 156.74 928.455C224.901 1027.38 338.503 1086.73 459.206 1086.73C495.044 1086.73 530.883 1080.99 565.681 1070.54C571.51 1068.79 574.425 1067.92 577.068 1067.92C579.712 1067.92 582.626 1068.79 588.456 1070.54C623.254 1080.99 659.093 1086.73 694.931 1086.73C815.634 1086.73 929.236 1027.38 997.398 928.455C1066.98 829.533 1082.6 703.76 1040 590.707ZM978.937 915.737C913.616 1007.59 808.533 1062.71 694.931 1062.71C656.59 1062.71 616.829 1055.64 581.329 1042.92C578.563 1042 575.574 1042 572.808 1042.92C535.888 1055.64 497.547 1062.71 459.206 1062.71C347.024 1062.71 240.521 1007.59 176.62 915.737C112.719 822.467 98.5183 705.174 136.859 599.186L234.841 337.749C284.542 204.91 413.765 115.88 557.188 115.88H596.949C740.372 115.88 869.595 204.91 919.296 337.749L1017.28 599.186C1057.04 705.174 1042.84 822.467 978.937 915.737ZM899.415 346.228C852.554 221.868 730.432 138.491 596.949 138.491H557.188C423.705 138.491 301.583 221.868 256.142 346.228L158.16 607.665C121.239 706.587 135.439 816.814 195.08 903.018C254.722 989.222 354.124 1040.1 459.206 1040.1C494.191 1040.1 530.274 1034.63 563.588 1022.72C570.663 1020.19 574.2 1018.93 577.23 1018.9C580.261 1018.87 583.734 1020.04 590.68 1022.37C623.957 1033.55 659.992 1040.1 694.931 1040.1C800.013 1040.1 899.415 989.222 959.057 901.605C1018.7 815.401 1032.9 705.174 995.977 606.252L899.415 346.228ZM940.596 888.886C885.215 969.437 792.913 1016.07 696.351 1016.07C658.01 1016.07 618.249 1009.01 582.749 993.461C579.983 992.544 576.994 992.544 574.228 993.461C538.728 1007.59 498.967 1016.07 460.626 1016.07C362.644 1016.07 271.762 968.024 216.381 888.886C161 808.335 148.219 706.587 182.3 616.144L280.282 354.707C322.883 238.826 435.065 162.515 560.028 162.515H599.789C723.332 162.515 835.514 240.24 879.535 354.707L977.517 616.144C1008.76 706.587 995.977 808.335 940.596 888.886ZM855.394 361.772C815.634 255.784 711.971 183.713 596.949 183.713H557.188C442.166 183.713 338.503 255.784 298.743 361.772L200.76 623.21C169.52 708 180.88 802.683 232.001 876.168C283.122 949.653 368.324 994.874 459.206 994.874C494.784 994.874 529.303 988.545 561.846 975.888C569.743 972.816 573.691 971.28 577.068 971.28C580.446 971.28 584.394 972.816 592.292 975.888C624.834 988.545 659.353 994.874 694.931 994.874C785.813 994.874 869.595 951.066 922.136 876.168C973.257 802.683 986.037 708 953.376 623.21L855.394 361.772ZM902.255 862.036C855.394 929.868 777.293 969.437 694.931 969.437C656.59 969.437 616.829 960.958 582.749 942.587C579.171 940.807 574.966 940.807 571.388 942.587C537.308 959.545 497.547 969.437 459.206 969.437C376.844 969.437 298.743 928.455 251.882 862.036C205.021 794.204 193.66 708 223.481 631.689L321.463 370.252C358.384 272.743 453.526 207.737 557.188 207.737H596.949C702.031 207.737 795.753 272.743 832.674 370.252L930.656 631.689C960.477 709.413 949.116 795.617 902.255 862.036ZM812.794 378.731C778.713 289.701 693.511 230.347 596.949 230.347H557.188C462.046 230.347 375.424 289.701 341.344 378.731L243.361 640.168C216.381 710.826 226.321 788.551 270.342 850.731C312.943 912.91 383.944 949.653 459.206 949.653C493.246 949.653 527.285 941.928 558.117 927.278C568.045 922.56 573.009 920.201 577.068 920.201C581.128 920.201 586.092 922.56 596.02 927.278C626.852 941.928 660.891 949.653 694.931 949.653C770.193 949.653 841.194 912.91 883.795 850.731C926.396 788.551 936.336 710.826 910.776 640.168L812.794 378.731ZM863.915 836.599C825.574 891.713 761.672 924.216 694.931 924.216C655.17 924.216 616.829 912.91 584.169 891.713C579.795 889.101 574.342 889.101 569.968 891.713C537.308 912.91 498.967 924.216 459.206 924.216C392.465 924.216 328.563 891.713 290.222 836.599C251.882 781.485 243.361 710.826 266.082 648.647L364.064 387.21C393.885 308.072 471.986 254.371 557.188 254.371H596.949C682.151 254.371 760.252 308.072 790.073 387.21L888.055 648.647C912.196 710.826 903.675 781.485 863.915 836.599ZM768.773 394.275C741.792 323.617 673.631 275.569 596.949 275.569H557.188C480.506 275.569 412.345 323.617 385.364 394.275L287.382 655.713C266.082 712.24 274.602 774.419 308.683 823.88C342.764 873.341 399.565 903.018 459.206 903.018C492.932 903.018 524.991 893.894 552.829 877.551C565.727 869.98 572.175 866.194 577.068 866.194C581.962 866.194 588.41 869.98 601.308 877.551C629.146 893.894 661.205 903.018 694.931 903.018C754.572 903.018 811.373 873.341 845.454 823.88C879.535 774.419 888.055 712.24 866.755 655.713L768.773 394.275ZM826.994 809.749C797.173 852.144 748.892 877.581 696.351 877.581C655.17 877.581 616.829 862.036 587.009 833.772C582.297 829.083 574.681 829.083 569.968 833.772C540.148 862.036 501.807 877.581 460.626 877.581C408.085 877.581 359.804 852.144 329.983 809.749C300.163 767.353 293.062 712.24 311.523 664.192L409.505 402.754C432.225 340.575 493.287 299.593 558.608 299.593H598.369C665.11 299.593 724.752 340.575 747.472 402.754L845.454 664.192C863.915 713.653 856.814 767.353 826.994 809.749ZM726.172 409.82C706.291 356.12 653.75 320.79 596.949 320.79H557.188C500.387 320.79 447.846 356.12 427.965 409.82L329.983 671.258C314.363 713.653 320.043 760.287 345.604 797.03C371.164 833.772 413.765 856.383 459.206 856.383C486.549 856.383 512.982 848.225 535.15 833.704C559.515 817.745 571.698 809.765 577.068 809.765C582.439 809.765 594.622 817.745 618.987 833.704C641.155 848.225 667.588 856.383 694.931 856.383C740.372 856.383 781.553 833.772 808.533 797.03C834.094 760.287 839.774 713.653 824.154 671.258L726.172 409.82ZM788.653 784.311C767.353 815.401 733.272 832.359 694.931 832.359C649.49 832.359 608.309 805.509 589.849 763.114C588.133 758.845 583.994 756.048 579.393 756.048H574.744C570.143 756.048 566.004 758.845 564.288 763.114C547.248 805.509 504.647 832.359 459.206 832.359C422.285 832.359 386.784 813.988 365.484 784.311C344.184 754.635 339.923 715.066 354.124 679.737L452.106 418.299C469.146 374.491 511.747 344.814 558.608 344.814H598.369C645.23 344.814 687.831 374.491 704.871 418.299L802.853 679.737C814.214 715.066 809.953 753.222 788.653 784.311ZM682.151 426.778C669.37 391.449 633.87 367.425 596.949 367.425H557.188C518.847 367.425 484.767 391.449 471.986 426.778L374.004 688.216C364.064 716.479 366.904 747.569 383.944 771.593C400.985 795.617 429.385 811.162 459.206 811.162C497.547 811.162 531.628 787.138 544.408 751.808C545.906 747.335 546.656 745.098 547.797 743.279C550.294 739.303 554.245 736.46 558.808 735.355C560.895 734.85 563.254 734.85 567.972 734.85H583.325C588.043 734.85 590.402 734.85 592.489 735.355C597.052 736.46 601.003 739.303 603.5 743.279C604.641 745.098 605.391 747.335 606.889 751.808C619.669 788.551 653.75 812.575 693.511 812.575C723.332 812.575 751.732 798.443 768.773 773.006C785.813 748.982 790.073 717.892 778.713 689.629L682.151 426.778ZM750.312 757.461C737.532 775.832 717.651 785.725 694.931 785.725C666.53 785.725 640.97 767.353 631.03 741.916L628.1 733.535C624.028 721.883 621.991 716.057 617.312 712.735C612.632 709.413 606.46 709.413 594.116 709.413H558.995C547.12 709.413 541.182 709.413 536.596 712.538C532.01 715.662 529.838 721.188 525.492 732.24L521.687 741.916C511.747 768.766 486.187 785.725 459.206 785.725C436.486 785.725 416.605 774.419 403.825 757.461C391.045 739.09 388.204 716.479 396.725 695.281L494.707 433.844C504.647 408.407 530.208 390.036 557.188 390.036H596.949C625.349 390.036 649.49 406.994 659.43 433.844L757.412 695.281C765.933 716.479 763.092 740.503 750.312 757.461ZM639.55 442.323C632.45 425.365 615.409 412.647 596.949 412.647H557.188C538.728 412.647 521.687 423.952 514.587 442.323L416.605 703.76C410.925 717.892 413.765 733.437 422.285 744.743C430.805 757.461 445.006 764.527 459.206 764.527C477.666 764.527 494.707 753.222 501.807 734.85L514.587 700.934C517.427 692.455 525.947 686.802 534.468 686.802H621.089C629.61 686.802 638.13 692.455 640.97 700.934L652.33 734.85C659.43 753.222 676.471 764.527 694.931 764.527C709.131 764.527 723.332 757.461 731.852 744.743C740.372 732.024 741.792 716.479 737.532 703.76L639.55 442.323ZM714.701 729.048C714.343 729.989 714.164 730.459 713.147 732.038C712.131 733.616 711.844 733.907 711.27 734.487C707.305 738.498 702.331 740.503 696.351 740.503C687.831 740.503 679.311 734.85 676.471 726.371L665.11 692.455C658.01 674.084 640.97 662.779 622.51 662.779H535.888C517.427 662.779 500.387 674.084 493.287 692.455L480.506 726.371C477.666 734.85 469.146 740.503 460.626 740.503C453.526 740.503 447.846 737.677 443.586 732.024C439.899 727.132 439.403 721.181 440.256 715.088C440.395 714.101 440.464 713.608 440.707 712.65C440.951 711.692 441.221 710.972 441.76 709.533L538.728 450.802C541.568 442.323 550.088 436.671 558.608 436.671H598.369C606.889 436.671 615.409 442.323 618.249 450.802L715.217 709.533C715.747 710.946 716.012 711.653 716.278 712.805C716.545 713.957 716.581 714.338 716.655 715.098C717.128 720 716.317 724.808 714.701 729.048Z" fill="#3362D2"/>
</g>
</svg>
