<svg width="16" height="16" viewBox="0 0 16 16" fill="none" xmlns="http://www.w3.org/2000/svg">
<path d="M3.51396 2.24922L8 6.7351L12.4676 2.26768C12.5459 2.18434 12.6402 2.11768 12.7449 2.07168C12.8496 2.02569 12.9625 2.00131 13.0768 2C13.3216 2 13.5564 2.09725 13.7295 2.27035C13.9026 2.44345 13.9999 2.67822 13.9999 2.92302C14.002 3.03618 13.981 3.1486 13.9381 3.25335C13.8953 3.35811 13.8315 3.45301 13.7506 3.53221L9.23689 7.99964L13.7506 12.5132C13.9028 12.662 13.992 12.8636 13.9999 13.0762C13.9999 13.321 13.9026 13.5558 13.7295 13.7289C13.5564 13.902 13.3216 13.9993 13.0768 13.9993C12.9592 14.0042 12.8418 13.9845 12.7321 13.9416C12.6225 13.8987 12.523 13.8335 12.4399 13.7501L8 9.26417L3.52319 13.7408C3.4452 13.8214 3.35202 13.8857 3.24904 13.93C3.14607 13.9744 3.03532 13.9979 2.9232 13.9993C2.67839 13.9993 2.44361 13.902 2.27051 13.7289C2.0974 13.5558 2.00015 13.321 2.00015 13.0762C1.998 12.9631 2.01899 12.8507 2.06185 12.7459C2.10471 12.6412 2.16852 12.5463 2.24937 12.4671L6.76311 7.99964L2.24937 3.48606C2.09724 3.33723 2.00803 3.1357 2.00015 2.92302C2.00015 2.67822 2.0974 2.44345 2.27051 2.27035C2.44361 2.09725 2.67839 2 2.9232 2C3.14474 2.00277 3.35704 2.0923 3.51396 2.24922Z" fill="#0A8DFF"/>
</svg>
