<svg width="16" height="16" viewBox="0 0 16 16" fill="none" xmlns="http://www.w3.org/2000/svg">
<path fill-rule="evenodd" clip-rule="evenodd" d="M5.25245 1.55916C5.62753 1.20114 6.13623 1 6.66667 1H9.79C10.3126 1.00006 10.8144 1.19536 11.1881 1.54409L13.398 3.6071C13.5885 3.78488 13.7399 3.99721 13.8433 4.23161C13.9467 4.46602 14 4.71777 14 4.9721V10.5455C14 11.0518 13.7893 11.5374 13.4142 11.8954C13.0391 12.2534 12.5304 12.4545 12 12.4545H11.3333V13.0909C11.3333 13.5972 11.1226 14.0828 10.7475 14.4408C10.3725 14.7989 9.86377 15 9.33333 15H4C3.46957 15 2.96086 14.7989 2.58579 14.4408C2.21071 14.0828 2 13.5972 2 13.0909V6.09091C2 5.58459 2.21071 5.099 2.58579 4.74098C2.96086 4.38295 3.46957 4.18182 4 4.18182H4.66667V2.90909C4.66667 2.40277 4.87738 1.91718 5.25245 1.55916ZM4.66667 5.45455H4C3.82319 5.45455 3.65362 5.52159 3.5286 5.64093C3.40357 5.76027 3.33333 5.92213 3.33333 6.09091V13.0909C3.33333 13.2597 3.40357 13.4215 3.5286 13.5409C3.65362 13.6602 3.82319 13.7273 4 13.7273H9.33333C9.51014 13.7273 9.67971 13.6602 9.80474 13.5409C9.92976 13.4215 10 13.2597 10 13.0909V12.4545H6.66667C6.13623 12.4545 5.62753 12.2534 5.25245 11.8954C4.87738 11.5374 4.66667 11.0518 4.66667 10.5455V5.45455ZM6.66667 11.1818C6.48986 11.1818 6.32029 11.1148 6.19526 10.9954C6.07024 10.8761 6 10.7142 6 10.5455V2.90909C6 2.74032 6.07024 2.57846 6.19526 2.45911C6.32029 2.33977 6.48986 2.27273 6.66667 2.27273H9.78992C9.96406 2.27277 10.1314 2.33785 10.2559 2.45405L12.4659 4.51714C12.5294 4.5764 12.58 4.64729 12.6144 4.72543C12.6489 4.80354 12.6666 4.88743 12.6667 4.97218V10.5455C12.6667 10.7142 12.5964 10.8761 12.4714 10.9954C12.3464 11.1148 12.1768 11.1818 12 11.1818H6.66667Z" fill="#0A8DFF"/>
</svg>
