<svg width="24" height="24" viewBox="0 0 24 24" fill="none" xmlns="http://www.w3.org/2000/svg">
<circle cx="12" cy="12" r="12" fill="#0083F5"/>
<path d="M15.9932 15.2466C15.7503 15.2472 15.5194 15.152 15.35 14.9813C15.1805 14.8106 15.086 14.578 15.0866 14.3334L15.1299 10.0891L8.54445 16.7227C8.37152 16.8969 8.13882 16.9966 7.89753 16.9999C7.65624 17.0032 7.42613 16.9098 7.25783 16.7403C7.08953 16.5708 6.99681 16.339 7.00008 16.0959C7.00335 15.8529 7.10234 15.6185 7.27527 15.4443L13.7956 8.87635L9.72433 8.93194C9.48059 8.93526 9.24815 8.84092 9.07814 8.66967C8.90812 8.49842 8.81447 8.26427 8.81777 8.01876C8.82108 7.77324 8.92107 7.53645 9.09575 7.36049C9.27044 7.18453 9.5055 7.08381 9.74924 7.08048L17 7L16.9153 14.3177C16.9137 14.438 16.8886 14.5575 16.8414 14.6693C16.7941 14.7812 16.7258 14.8831 16.6401 14.9694C16.5545 15.0556 16.4533 15.1245 16.3423 15.1721C16.2313 15.2196 16.1126 15.2449 15.9932 15.2466Z" fill="white"/>
</svg>
