<svg width="30" height="30" viewBox="0 0 30 30" fill="#0A8DFF" xmlns="http://www.w3.org/2000/svg">
<path d="M13.3752 12.5555C13.855 12.2357 14.4189 12.0648 14.9951 12.0648C15.7678 12.0667 16.5076 12.374 17.0544 12.9193C17.6001 13.465 17.9089 14.2044 17.9102 14.9759C17.9102 15.5515 17.7393 16.1142 17.4194 16.593C17.2693 16.8164 17.0898 17.0169 16.8872 17.1896C16.6565 17.3868 16.394 17.5476 16.1108 17.6651C15.5786 17.8854 14.9915 17.9431 14.4263 17.8305C13.8611 17.7182 13.3411 17.4411 12.9333 17.034C12.6782 16.7789 12.4744 16.4801 12.3291 16.1536C12.2424 15.9589 12.1777 15.7544 12.1362 15.5435C12.0239 14.9789 12.0813 14.3936 12.3022 13.8617C12.5232 13.3298 12.8967 12.8754 13.3752 12.5555Z" />
<path fill-rule="evenodd" clip-rule="evenodd" d="M11.4221 7.83844C12.3413 7.79755 12.5964 7.78595 14.9622 7.78595C17.3267 7.78595 17.5732 7.78595 18.5132 7.83936C19.0662 7.84607 19.6155 7.94708 20.1355 8.14117C20.5127 8.28766 20.8557 8.51105 21.1414 8.797C21.427 9.08295 21.6504 9.42535 21.7969 9.80225C21.9885 10.3207 22.0898 10.8679 22.0996 11.4206C22.1411 12.3471 22.1521 12.5967 22.1521 14.967C22.1521 17.3373 22.1521 17.5848 22.1094 18.5123H22.0996C22.0972 18.7289 22.0801 18.945 22.0483 19.1589C21.9995 19.4971 21.9153 19.8294 21.7969 20.1501C21.6504 20.5267 21.427 20.8685 21.1414 21.1539C20.8545 21.4395 20.5127 21.6623 20.1355 21.8085C19.6155 22.0013 19.0674 22.1036 18.5132 22.1103C17.5928 22.153 17.3462 22.1646 14.9622 22.1646C13.6951 22.1646 13.0359 22.1646 12.5525 22.1564C12.1338 22.149 11.8469 22.1356 11.4111 22.1103C11.001 22.1057 10.5933 22.049 10.2002 21.9409C10.061 21.9031 9.92432 21.8588 9.78882 21.8085C9.02222 21.5155 8.41553 20.9119 8.1189 20.1483C8.00415 19.8367 7.92114 19.5148 7.87109 19.1876C7.83813 18.9694 7.81982 18.7491 7.81616 18.5278C7.77344 17.5937 7.76489 17.3111 7.76489 14.9826C7.76489 12.6257 7.76489 12.3792 7.81616 11.4392C7.82227 10.8801 7.9248 10.3262 8.1189 9.80225C8.26538 9.42413 8.48999 9.08112 8.77686 8.79517C9.06494 8.50891 9.40918 8.28613 9.7876 8.14117C10.3076 7.94861 10.8569 7.84668 11.4111 7.83936L11.4221 7.83844ZM12.4988 18.7097C13.2373 19.2023 14.1064 19.4647 14.9951 19.4644C16.1853 19.4617 17.3267 18.988 18.1677 18.147C19.01 17.3062 19.4824 16.1664 19.4849 14.9777C19.4836 14.0906 19.22 13.2233 18.7268 12.4857C18.2324 11.748 17.5305 11.1731 16.7102 10.834C16.3794 10.6973 16.0352 10.6012 15.6848 10.5466C15.166 10.466 14.6338 10.4761 14.1138 10.5795C13.2434 10.7529 12.4426 11.1804 11.814 11.8082C11.1865 12.4359 10.7593 13.2355 10.5859 14.1058C10.4126 14.9759 10.5029 15.878 10.8435 16.6974C11.1841 17.5171 11.7603 18.2172 12.4988 18.7097ZM19.259 11.2921C19.386 11.3449 19.5215 11.3727 19.6594 11.373C19.9365 11.3742 20.2039 11.265 20.4016 11.0693C20.5981 10.874 20.7092 10.6085 20.7104 10.3311C20.7117 10.0537 20.6018 9.78729 20.4065 9.59015C20.2112 9.39331 19.9451 9.28223 19.6667 9.28131C19.3896 9.28009 19.1223 9.38934 18.9258 9.58466C18.728 9.78027 18.6169 10.0458 18.6157 10.3232C18.6145 10.6006 18.7244 10.867 18.9197 11.0638C19.0161 11.1615 19.1321 11.239 19.259 11.2921Z" />
<path fill-rule="evenodd" clip-rule="evenodd" d="M15 30C23.2837 30 30 23.2843 30 15C30 6.7157 23.2837 0 15 0C6.71631 0 0 6.7157 0 15C0 23.2843 6.71631 30 15 30ZM11.3904 23.6966C12.323 23.7375 12.605 23.75 14.9951 23.75C17.3718 23.75 17.6758 23.75 18.6035 23.6966C19.032 23.688 19.458 23.6365 19.8743 23.5437C20.1636 23.479 20.4492 23.3945 20.7275 23.2901C21.3086 23.0649 21.8359 22.7216 22.2766 22.2818C22.7173 21.842 23.0615 21.3159 23.2874 20.7364C23.5425 20.0565 23.6816 19.3384 23.6951 18.6124C23.7366 17.6935 23.75 17.3831 23.75 15.0156C23.75 13.6197 23.75 12.9413 23.739 12.4289C23.7305 12.0721 23.717 11.7963 23.6951 11.4148C23.6865 10.7843 23.5828 10.159 23.3887 9.55872C23.3569 9.45953 23.3228 9.36127 23.2861 9.26361C23.0615 8.68408 22.7173 8.15735 22.2766 7.7179C21.8359 7.27814 21.3086 6.93481 20.7275 6.7099C20.0476 6.45386 19.3274 6.31592 18.5999 6.30249L18.5889 6.30157C17.6794 6.26251 17.395 6.25 14.9951 6.25C12.6257 6.25 12.3206 6.25 11.3916 6.30249C10.6665 6.31622 9.94873 6.45386 9.27002 6.7099C8.68896 6.93451 8.16162 7.27783 7.72095 7.71759C7.28027 8.15704 6.93726 8.68378 6.71143 9.26361C6.4563 9.94202 6.31836 10.6586 6.30493 11.3828C6.26221 12.3093 6.25 12.5888 6.25 14.9826C6.25 17.3511 6.25 17.6556 6.30493 18.5852C6.31836 19.3106 6.4563 20.0281 6.71143 20.7071C6.93726 21.2863 7.28027 21.8124 7.72095 22.2519C8.1604 22.6913 8.68774 23.0347 9.26758 23.2599C9.94507 23.5251 10.6628 23.6728 11.3904 23.6966Z" />
</svg>
