<svg width="16" height="16" viewBox="0 0 16 16" fill="none" xmlns="http://www.w3.org/2000/svg">
<path d="M3.43759 1H9.90676C10.288 1 10.6537 1.1475 10.9233 1.41005C11.1929 1.6726 11.3444 2.0287 11.3444 2.4V3.1C11.3444 3.28565 11.2686 3.4637 11.1338 3.59497C10.999 3.72625 10.8162 3.8 10.6256 3.8C10.4349 3.8 10.2521 3.72625 10.1173 3.59497C9.98249 3.4637 9.90676 3.28565 9.90676 3.1V2.4H3.43759V13.6H9.90676V12.9C9.90676 12.7143 9.98249 12.5363 10.1173 12.405C10.2521 12.2737 10.4349 12.2 10.6256 12.2C10.8162 12.2 10.999 12.2737 11.1338 12.405C11.2686 12.5363 11.3444 12.7143 11.3444 12.9V13.6C11.3444 13.9713 11.1929 14.3274 10.9233 14.5899C10.6537 14.8525 10.288 15 9.90676 15H3.43759C3.05632 15 2.69066 14.8525 2.42106 14.5899C2.15146 14.3274 2 13.9713 2 13.6V2.4C2 2.0287 2.15146 1.6726 2.42106 1.41005C2.69066 1.1475 3.05632 1 3.43759 1Z" fill="#006DCC"/>
<path d="M11.197 11.0065C11.4773 11.2795 11.9302 11.2795 12.2105 11.0065L14.7895 8.4949C14.9243 8.36363 15 8.18561 15 8C15 7.81438 14.9243 7.63637 14.7895 7.5051L12.2105 4.9935C12.0739 4.87323 11.895 4.80869 11.7109 4.81322C11.5268 4.81775 11.3515 4.89099 11.2213 5.01782C11.091 5.14464 11.0158 5.31535 11.0112 5.49465C11.0065 5.67395 11.0728 5.84814 11.1963 5.9812L12.5447 7.3H6.31278C6.12214 7.3 5.93931 7.37375 5.80451 7.50502C5.66971 7.6363 5.59398 7.81435 5.59398 8C5.59398 8.18565 5.66971 8.3637 5.80451 8.49497C5.93931 8.62625 6.12214 8.7 6.31278 8.7H12.5447L11.1963 10.0188C11.0621 10.15 10.9868 10.3276 10.987 10.5128C10.9871 10.698 11.0626 10.8755 11.197 11.0065Z" fill="#006DCC"/>
</svg>
