<svg width="24" height="24" viewBox="0 0 24 24" fill="none" xmlns="http://www.w3.org/2000/svg">
<path d="M12 24C15.1826 24 18.2348 22.7357 20.4853 20.4853C22.7357 18.2348 24 15.1826 24 12C24 8.8174 22.7357 5.76516 20.4853 3.51472C18.2348 1.26428 15.1826 0 12 0C8.8174 0 5.76516 1.26428 3.51472 3.51472C1.26428 5.76516 0 8.8174 0 12C0 15.1826 1.26428 18.2348 3.51472 20.4853C5.76516 22.7357 8.8174 24 12 24ZM10.2 17.4C10.2 16.9226 10.3896 16.4648 10.7272 16.1272C11.0648 15.7896 11.5226 15.6 12 15.6C12.4774 15.6 12.9352 15.7896 13.2728 16.1272C13.6104 16.4648 13.8 16.9226 13.8 17.4C13.8 17.8774 13.6104 18.3352 13.2728 18.6728C12.9352 19.0104 12.4774 19.2 12 19.2C11.5226 19.2 11.0648 19.0104 10.7272 18.6728C10.3896 18.3352 10.2 17.8774 10.2 17.4ZM10.8192 5.784C10.8693 5.50732 11.015 5.25702 11.2308 5.07678C11.4466 4.89654 11.7188 4.7978 12 4.7978C12.2812 4.7978 12.5534 4.89654 12.7692 5.07678C12.985 5.25702 13.1307 5.50732 13.1808 5.784L13.2 6V12L13.1808 12.216C13.1307 12.4927 12.985 12.743 12.7692 12.9232C12.5534 13.1035 12.2812 13.2022 12 13.2022C11.7188 13.2022 11.4466 13.1035 11.2308 12.9232C11.015 12.743 10.8693 12.4927 10.8192 12.216L10.8 12V6L10.8192 5.784Z" fill="#D90429"/>
</svg>
