<svg width="24" height="24" viewBox="0 0 24 24" fill="none" xmlns="http://www.w3.org/2000/svg">
<path d="M9.33929 12C9.33929 12.6378 9.60995 13.2495 10.0917 13.7005C10.5735 14.1515 11.2269 14.4049 11.9082 14.4049C12.5896 14.4049 13.243 14.1515 13.7248 13.7005C14.2065 13.2495 14.4772 12.6378 14.4772 12C14.4772 11.3622 14.2065 10.7505 13.7248 10.2995C13.243 9.84847 12.5896 9.59509 11.9082 9.59509C11.2269 9.59509 10.5735 9.84847 10.0917 10.2995C9.60995 10.7505 9.33929 11.3622 9.33929 12ZM21.8675 11.446C19.6931 7.15798 16.4062 5 12 5C7.59148 5 4.30689 7.15798 2.13245 11.4482C2.04523 11.621 2 11.8099 2 12.0011C2 12.1923 2.04523 12.3811 2.13245 12.554C4.30689 16.842 7.59378 19 12 19C16.4085 19 19.6931 16.842 21.8675 12.5518C22.0442 12.204 22.0442 11.8003 21.8675 11.446ZM11.9082 15.7791C9.67876 15.7791 7.87132 14.0871 7.87132 12C7.87132 9.91288 9.67876 8.22086 11.9082 8.22086C14.1377 8.22086 15.9452 9.91288 15.9452 12C15.9452 14.0871 14.1377 15.7791 11.9082 15.7791Z" fill="#fff"/>
</svg>
