<svg width="24" height="24" viewBox="0 0 24 24" fill="none" xmlns="http://www.w3.org/2000/svg">
<path d="M12.122 14.4506C12.7492 14.4506 13.3508 14.2057 13.7944 13.7697C14.2379 13.3337 14.4871 12.7424 14.4871 12.1258C14.4871 12.0577 14.4839 11.9902 14.478 11.9236L11.9163 14.4417C11.9841 14.4475 12.0525 14.4506 12.122 14.4506ZM19.9505 4.93453L19.0483 4.0486C19.0167 4.01748 18.9737 4 18.9289 4C18.8841 4 18.8412 4.01748 18.8095 4.0486L16.501 6.31844C15.2275 5.67869 13.796 5.35882 12.2064 5.35882C8.14777 5.35882 5.1196 7.43665 3.12194 11.5923C3.04164 11.7595 3 11.942 3 12.1268C3 12.3117 3.04164 12.4942 3.12194 12.6613C3.92016 14.3141 4.88133 15.6387 6.00546 16.6354L3.7715 18.8305C3.73984 18.8616 3.72206 18.9039 3.72206 18.9479C3.72206 18.9919 3.73984 19.0341 3.7715 19.0653L4.67298 19.9514C4.70466 19.9825 4.74761 20 4.7924 20C4.83718 20 4.88013 19.9825 4.91181 19.9514L19.9505 5.16951C19.9662 5.15409 19.9786 5.13577 19.9871 5.11561C19.9956 5.09545 20 5.07384 20 5.05202C20 5.0302 19.9956 5.00859 19.9871 4.98843C19.9786 4.96827 19.9662 4.94996 19.9505 4.93453ZM8.4054 12.1258C8.40534 11.4948 8.57156 10.8745 8.88785 10.3254C9.20415 9.77629 9.65974 9.31708 10.2102 8.99249C10.7608 8.66791 11.3874 8.48903 12.0291 8.47326C12.6709 8.4575 13.3058 8.6054 13.8722 8.90255L12.8454 9.91179C12.4314 9.78146 11.9888 9.76577 11.5663 9.86642C11.1437 9.96708 10.7576 10.1802 10.4501 10.4824C10.1427 10.7846 9.9259 11.1642 9.8235 11.5795C9.7211 11.9949 9.73707 12.4299 9.86965 12.8369L8.84294 13.8462C8.55482 13.317 8.4045 12.726 8.4054 12.1258Z" fill="#fff"/>
<path d="M20.8799 11.7416C20.148 10.2121 19.2769 8.96489 18.2665 8L15.2696 10.9741C15.5222 11.6294 15.5782 12.3433 15.4308 13.0295C15.2834 13.7157 14.9389 14.3449 14.4389 14.841C13.939 15.3371 13.3049 15.679 12.6134 15.8252C11.9219 15.9715 11.2024 15.9159 10.542 15.6652L8 18.1877C9.17933 18.7292 10.491 19 11.9351 19C15.9314 19 18.913 16.9347 20.8799 12.8042C20.959 12.6381 21 12.4566 21 12.2729C21 12.0892 20.959 11.9077 20.8799 11.7416Z" fill="#fff"/>
</svg>
