<svg width="1920" height="2015" viewBox="0 0 1920 2015" fill="none" xmlns="http://www.w3.org/2000/svg">
<g>
<path d="M1871.2 955.617L1708.46 509.18C1597.61 205.12 1309.87 0 991.472 0H925.433C609.391 0 321.65 205.12 210.8 509.18L48.0612 955.617C-39.2044 1196.93 -6.18497 1464.8 135.327 1677.16C279.197 1887.1 512.691 2015 765.054 2015C828.734 2015 897.131 2005.35 960.811 1988.46C1024.49 2005.35 1092.89 2015 1156.57 2015C1406.57 2015 1642.43 1889.52 1786.3 1677.16C1927.81 1464.8 1958.47 1194.52 1871.2 955.617ZM1750.92 1653.02C1616.48 1850.9 1392.42 1971.56 1154.21 1971.56C1090.53 1971.56 1026.85 1961.91 963.17 1945.02L958.453 1942.6L953.736 1945.02C892.414 1961.91 826.375 1971.56 762.695 1971.56C524.484 1971.56 302.782 1853.32 165.988 1653.02C31.5515 1452.73 -1.46792 1196.93 83.4391 970.096L246.177 523.659C352.311 236.491 623.542 41.024 925.433 41.024H991.472C1291.01 41.024 1564.59 234.078 1670.73 523.659L1833.47 970.096C1918.37 1196.93 1885.35 1452.73 1750.92 1653.02ZM1800.45 982.162L1637.71 535.725C1538.65 263.036 1279.21 77.2216 993.831 77.2216H927.792C642.41 77.2216 382.972 260.623 283.914 535.725L118.817 982.162C38.6271 1199.35 69.2879 1440.66 199.007 1631.31C328.726 1821.95 538.635 1935.37 765.054 1935.37C828.734 1935.37 897.131 1925.71 960.811 1906.41C1024.49 1925.71 1090.53 1935.37 1156.57 1935.37C1382.99 1935.37 1592.9 1821.95 1722.62 1631.31C1849.98 1440.66 1878.28 1199.35 1800.45 982.162ZM1687.24 1607.17C1566.95 1785.75 1368.84 1891.93 1154.21 1891.93C1090.53 1891.93 1026.85 1882.28 965.528 1862.97L960.811 1860.56L956.094 1862.97C894.773 1882.28 828.734 1891.93 767.412 1891.93C555.145 1891.93 354.67 1785.75 234.385 1607.17C114.1 1428.6 85.7976 1199.35 158.912 996.641L321.65 550.204C413.633 291.994 658.92 120.659 927.792 120.659H993.831C1262.7 120.659 1505.63 294.407 1599.97 552.617L1762.71 999.054C1835.83 1199.35 1809.88 1428.6 1687.24 1607.17ZM1727.33 1008.71L1564.59 562.269C1474.97 320.952 1246.19 156.856 991.472 156.856H925.433C670.712 156.856 441.935 320.952 352.311 562.269L189.573 1008.71C118.817 1201.76 144.761 1416.53 260.329 1585.46C373.538 1754.38 562.22 1855.73 762.695 1855.73C828.734 1855.73 894.773 1843.66 958.453 1821.95C1022.13 1843.66 1088.17 1855.73 1154.21 1855.73C1354.69 1855.73 1543.37 1754.38 1656.58 1585.46C1772.15 1416.53 1798.09 1201.76 1727.33 1008.71ZM1625.92 1563.74C1517.42 1720.59 1342.89 1814.71 1154.21 1814.71C1090.53 1814.71 1024.49 1802.64 965.528 1780.92L958.453 1778.51L951.377 1780.92C890.056 1802.64 826.375 1814.71 762.695 1814.71C576.371 1814.71 399.482 1720.59 293.348 1563.74C187.214 1404.47 163.629 1204.17 227.309 1023.19L390.048 576.749C472.596 349.91 687.222 197.88 925.433 197.88H991.472C1229.68 197.88 1444.31 349.91 1526.86 576.749L1689.6 1023.19C1755.64 1204.17 1732.05 1404.47 1625.92 1563.74ZM1493.84 591.228C1416.01 378.868 1213.17 236.491 991.472 236.491H925.433C703.732 236.491 500.898 378.868 425.426 591.228L262.687 1037.66C201.365 1206.59 224.951 1394.81 324.009 1542.02C423.067 1689.22 588.164 1776.1 762.695 1776.1C828.734 1776.1 897.131 1764.03 958.453 1737.49C1019.77 1761.62 1088.17 1776.1 1154.21 1776.1C1328.74 1776.1 1493.84 1689.22 1592.9 1539.6C1691.95 1392.4 1715.54 1204.17 1654.22 1035.25L1493.84 591.228ZM1562.24 1517.89C1470.25 1655.44 1316.95 1735.07 1156.57 1735.07C1092.89 1735.07 1026.85 1723.01 967.887 1696.46L960.811 1694.05L953.736 1696.46C894.773 1720.59 828.734 1735.07 765.054 1735.07C602.315 1735.07 451.369 1653.02 359.387 1517.89C267.404 1380.34 246.177 1206.59 302.782 1052.14L465.521 605.707C536.276 407.826 722.6 277.515 930.15 277.515H996.189C1201.38 277.515 1387.7 410.24 1460.82 605.707L1623.56 1052.14C1675.45 1206.59 1654.22 1380.34 1562.24 1517.89ZM1420.72 617.772C1354.69 436.784 1182.51 313.713 991.472 313.713H925.433C734.393 313.713 562.22 436.784 496.181 617.772L333.443 1064.21C281.555 1209 300.424 1370.68 385.331 1496.17C470.238 1621.65 611.749 1698.87 762.695 1698.87C831.092 1698.87 897.131 1684.4 958.453 1655.44C1019.77 1684.4 1085.81 1698.87 1154.21 1698.87C1305.16 1698.87 1444.31 1624.07 1531.57 1496.17C1616.48 1370.68 1637.71 1209 1583.46 1064.21L1420.72 617.772ZM1498.56 1472.04C1420.72 1587.87 1291.01 1655.44 1154.21 1655.44C1090.53 1655.44 1024.49 1640.96 967.887 1609.59L958.453 1604.76L949.019 1609.59C892.414 1638.55 826.375 1655.44 762.695 1655.44C625.9 1655.44 496.181 1585.46 418.35 1472.04C340.519 1356.2 321.65 1209 371.179 1078.69L533.918 632.252C595.24 465.743 753.261 354.737 925.433 354.737H991.472C1166 354.737 1321.67 465.743 1382.99 632.252L1545.73 1078.69C1595.26 1211.41 1576.39 1358.62 1498.56 1472.04ZM1349.97 646.731C1293.36 494.701 1151.85 393.347 991.472 393.347H925.433C767.412 393.347 623.542 494.701 566.937 646.731L404.199 1093.17C359.387 1213.83 375.897 1346.55 449.011 1452.73C519.767 1558.91 637.693 1621.65 762.695 1621.65C831.092 1621.65 899.49 1602.35 958.453 1566.15C1017.42 1602.35 1085.81 1621.65 1154.21 1621.65C1279.21 1621.65 1397.14 1558.91 1467.89 1452.73C1538.65 1346.55 1555.16 1213.83 1512.71 1093.17L1349.97 646.731ZM1434.88 1428.6C1371.2 1522.71 1265.06 1578.22 1154.21 1578.22C1088.17 1578.22 1024.49 1558.91 970.245 1522.71L958.453 1515.47L946.66 1522.71C892.414 1558.91 828.734 1578.22 762.695 1578.22C651.844 1578.22 545.711 1522.71 482.03 1428.6C418.35 1334.49 404.199 1213.83 441.935 1107.65L604.674 661.21C654.203 526.072 783.922 434.371 925.433 434.371H991.472C1132.98 434.371 1262.7 526.072 1312.23 661.21L1474.97 1107.65C1515.07 1213.83 1500.91 1334.49 1434.88 1428.6ZM1276.85 673.275C1232.04 552.617 1118.83 470.569 991.472 470.569H925.433C798.073 470.569 684.864 552.617 640.052 673.275L477.313 1119.71C441.935 1216.24 456.086 1322.42 512.691 1406.88C569.296 1491.34 663.637 1542.02 762.695 1542.02C835.809 1542.02 904.207 1515.47 958.453 1469.62C1012.7 1515.47 1081.1 1542.02 1154.21 1542.02C1253.27 1542.02 1347.61 1491.34 1404.21 1406.88C1460.82 1322.42 1474.97 1216.24 1439.59 1119.71L1276.85 673.275ZM1373.55 1382.75C1324.02 1455.14 1243.83 1498.58 1156.57 1498.58C1088.17 1498.58 1024.49 1472.04 974.963 1423.77L960.811 1409.29L946.66 1423.77C897.131 1472.04 833.451 1498.58 765.054 1498.58C677.788 1498.58 597.598 1455.14 548.069 1382.75C498.54 1310.35 486.747 1216.24 517.408 1134.19L680.147 687.755C717.883 581.575 819.3 511.593 927.792 511.593H993.831C1104.68 511.593 1203.74 581.575 1241.48 687.755L1404.21 1134.19C1434.88 1218.65 1423.08 1310.35 1373.55 1382.75ZM1206.1 699.82C1173.08 608.12 1085.81 547.79 991.472 547.79H925.433C831.092 547.79 743.827 608.12 710.807 699.82L548.069 1146.26C522.125 1218.65 531.559 1298.29 574.013 1361.03C616.466 1423.77 687.222 1462.38 762.695 1462.38C842.885 1462.38 918.358 1418.95 958.453 1348.96C998.548 1418.95 1074.02 1462.38 1154.21 1462.38C1229.68 1462.38 1298.08 1423.77 1342.89 1361.03C1385.35 1298.29 1394.78 1218.65 1368.84 1146.26L1206.1 699.82ZM1309.87 1339.31C1274.5 1392.4 1217.89 1421.36 1154.21 1421.36C1078.74 1421.36 1010.34 1375.51 979.68 1303.11L974.963 1291.05H941.943L937.226 1303.11C908.924 1375.51 838.168 1421.36 762.695 1421.36C701.373 1421.36 642.41 1389.99 607.032 1339.31C571.654 1288.63 564.579 1221.07 588.164 1160.74L750.902 714.299C779.205 639.491 849.961 588.814 927.792 588.814H993.831C1071.66 588.814 1142.42 639.491 1170.72 714.299L1333.46 1160.74C1352.33 1221.07 1345.25 1286.22 1309.87 1339.31Z" fill="#000E30"/>
</g>
<defs>
</defs>
</svg>
