<svg width="24" height="24" viewBox="0 0 24 24" fill="none" xmlns="http://www.w3.org/2000/svg">
<path fill-rule="evenodd" clip-rule="evenodd" d="M5.11543 5.11543C6.46992 3.76094 8.307 3 10.2225 3C11.171 3 12.1102 3.18682 12.9865 3.54978C13.8628 3.91275 14.659 4.44476 15.3296 5.11543C16.0003 5.7861 16.5323 6.58231 16.8953 7.45859C17.2582 8.33487 17.4451 9.27406 17.4451 10.2225C17.4451 11.171 17.2582 12.1102 16.8953 12.9865C16.7013 13.4548 16.459 13.9003 16.1731 14.3159L21 19.1429L19.1429 21L14.3159 16.1731C13.9003 16.459 13.4548 16.7013 12.9865 16.8953C12.1102 17.2582 11.171 17.4451 10.2225 17.4451C8.307 17.4451 6.46992 16.6841 5.11543 15.3296C3.76094 13.9751 3 12.1381 3 10.2225C3 8.307 3.76094 6.46992 5.11543 5.11543ZM10.2225 5.62637C9.00355 5.62637 7.8345 6.11061 6.97256 6.97256C6.11061 7.8345 5.62637 9.00355 5.62637 10.2225C5.62637 11.4415 6.11061 12.6106 6.97256 13.4725C7.8345 14.3345 9.00355 14.8187 10.2225 14.8187C10.8261 14.8187 11.4238 14.6998 11.9814 14.4688C12.539 14.2378 13.0457 13.8993 13.4725 13.4725C13.8993 13.0457 14.2378 12.539 14.4688 11.9814C14.6998 11.4238 14.8187 10.8261 14.8187 10.2225C14.8187 9.61895 14.6998 9.02129 14.4688 8.46366C14.2378 7.90603 13.8993 7.39935 13.4725 6.97256C13.0457 6.54577 12.539 6.20722 11.9814 5.97624C11.4238 5.74526 10.8261 5.62637 10.2225 5.62637Z" fill="#005BAA"/>
</svg>
