<svg width="71" height="75" viewBox="0 0 71 75" fill="none" xmlns="http://www.w3.org/2000/svg">
<path d="M68.8931 35.5689L62.9014 18.9521C58.8202 7.63473 48.2263 0 36.5036 0H34.0722C22.4363 0 11.8424 7.63473 7.76112 18.9521L1.76949 35.5689C-1.44341 44.5509 -0.227712 54.521 4.9824 62.4252C10.2793 70.2395 18.876 75 28.1674 75C30.5119 75 33.0301 74.6407 35.3747 74.012C37.7192 74.6407 40.2375 75 42.582 75C51.7865 75 60.4701 70.3293 65.767 62.4252C70.9771 54.521 72.106 44.4611 68.8931 35.5689Z" fill="url(#paint0_linear)"/>
<defs>
<linearGradient id="paint0_linear" x1="5.94765" y1="62.7869" x2="63.0304" y2="21.0613" gradientUnits="userSpaceOnUse">
<stop stop-color="#005BAA"/>
<stop offset="1" stop-color="#00C2F3"/>
</linearGradient>
</defs>
</svg>
