<svg width="24" height="24" viewBox="0 0 24 24" fill="none" xmlns="http://www.w3.org/2000/svg">
<path fill-rule="evenodd" clip-rule="evenodd" d="M0.0179909 11.3489L4.39403 2.10314C4.40836 2.072 4.43133 2.04569 4.46019 2.02739C4.48905 2.0091 4.52255 1.99959 4.55666 2.00001H19.444C19.4779 1.99992 19.5112 2.00967 19.5398 2.02808C19.5683 2.0465 19.5911 2.0728 19.6052 2.10385L23.9812 11.3496C23.9979 11.384 24.0031 11.4229 23.9963 11.4605C23.9894 11.4981 23.9708 11.5325 23.943 11.5587L12.1244 22.9495C12.0908 22.9819 12.0461 23 11.9996 23C11.9531 23 11.9084 22.9819 11.8748 22.9495L0.0561725 11.558C0.028458 11.5318 0.00980167 11.4974 0.00293176 11.4598C-0.00393815 11.4222 0.00133879 11.3833 0.0179909 11.3489ZM12.017 12.3311C12.9949 12.3311 13.4333 12.3048 13.5181 12.2984L13.5153 12.2977C16.5154 12.1639 18.7533 11.6376 18.7533 11.0089C18.7533 10.3802 16.5147 9.85393 13.5153 9.71951V11.7749C13.4312 11.7827 12.9638 11.8219 12.0305 11.8219C11.2527 11.8219 10.6899 11.7884 10.4933 11.7742V9.71808C7.48755 9.85321 5.24402 10.3788 5.24402 11.0089C5.24402 11.6391 7.48755 12.1654 10.4933 12.2984C10.687 12.3076 11.2393 12.3311 12.017 12.3311ZM13.5181 9.50618V9.50685L13.5174 9.50614C13.5177 9.50615 13.5179 9.50616 13.5181 9.50618ZM13.5181 7.66694V9.50618C16.9138 9.66413 19.4653 10.3412 19.4653 11.1526C19.4653 11.9641 16.9113 12.6412 13.5174 12.7984V18.6964H10.4926V12.8005C7.09089 12.6426 4.53271 11.9655 4.53271 11.1533C4.53271 10.3411 7.09089 9.66332 10.4926 9.50614V7.66694H6.30745V4.86121H17.704V7.66694H13.5181Z" fill="#005BAA"/>
</svg>
