<svg viewBox="0 0 137 56" fill="none" xmlns="http://www.w3.org/2000/svg">
<path d="M52.0634 26.5581L47.5355 14.1509C44.4512 5.7006 36.4453 0 27.5862 0H25.7488C16.9554 0 8.94944 5.7006 5.86519 14.1509L1.33723 26.5581C-1.0908 33.2647 -0.172088 40.709 3.76526 46.6108C7.76824 52.4455 14.2649 56 21.2865 56C23.0583 56 24.9613 55.7317 26.7331 55.2623C28.505 55.7317 30.408 56 32.1798 56C39.1358 56 45.6981 52.5126 49.701 46.6108C53.6384 40.709 54.4915 33.1976 52.0634 26.5581ZM48.7167 45.9401C44.9762 51.4395 38.7421 54.7928 32.1142 54.7928C30.3424 54.7928 28.5706 54.5246 26.7988 54.0551L26.6675 53.988L26.5363 54.0551C24.8301 54.5246 22.9927 54.7928 21.2209 54.7928C14.593 54.7928 8.42446 51.5066 4.61836 45.9401C0.877873 40.3737 -0.0408425 33.2647 2.32157 26.9605L6.84952 14.5533C9.80254 6.57246 17.3491 1.14012 25.7488 1.14012H27.5862C35.9203 1.14012 43.5325 6.50539 46.4855 14.5533L51.0135 26.9605C53.3759 33.2647 52.4572 40.3737 48.7167 45.9401ZM50.0948 27.2958L45.5668 14.8886C42.8107 7.31018 35.5922 2.14611 27.6519 2.14611H25.8144C17.8741 2.14611 10.6556 7.24311 7.89948 14.8886L3.30591 27.2958C1.07474 33.3317 1.92783 40.0383 5.53707 45.3365C9.14631 50.6347 14.9867 53.7868 21.2865 53.7868C23.0583 53.7868 24.9613 53.5186 26.7331 52.982C28.505 53.5186 30.3424 53.7868 32.1798 53.7868C38.4796 53.7868 44.32 50.6347 47.9292 45.3365C51.4728 40.0383 52.2603 33.3317 50.0948 27.2958ZM46.9449 44.6659C43.5981 49.6287 38.0858 52.5796 32.1142 52.5796C30.3424 52.5796 28.5706 52.3114 26.8644 51.7748L26.7331 51.7078L26.6019 51.7748C24.8957 52.3114 23.0583 52.5796 21.3521 52.5796C15.4461 52.5796 9.86816 49.6287 6.52141 44.6659C3.17466 39.703 2.38719 33.3317 4.42149 27.6982L8.94944 15.291C11.5087 8.11497 18.3335 3.35329 25.8144 3.35329H27.6519C35.1328 3.35329 41.892 8.18204 44.5169 15.3581L49.0448 27.7653C51.0791 33.3317 50.3573 39.703 46.9449 44.6659ZM48.0605 28.0335L43.5325 15.6263C41.0389 8.91976 34.6735 4.35928 27.5862 4.35928H25.7488C18.6616 4.35928 12.2962 8.91976 9.80254 15.6263L5.27458 28.0335C3.30591 33.3988 4.02775 39.3677 7.24326 44.0623C10.3931 48.7569 15.6429 51.5737 21.2209 51.5737C23.0583 51.5737 24.8957 51.2383 26.6675 50.6347C28.4393 51.2383 30.2768 51.5737 32.1142 51.5737C37.6921 51.5737 42.9419 48.7569 46.0918 44.0623C49.3073 39.3677 50.0292 33.3988 48.0605 28.0335ZM45.2387 43.4587C42.2201 47.818 37.364 50.4335 32.1142 50.4335C30.3424 50.4335 28.505 50.0982 26.8644 49.4946L26.6675 49.4275L26.4707 49.4946C24.7645 50.0982 22.9927 50.4335 21.2209 50.4335C16.0367 50.4335 11.115 47.818 8.16197 43.4587C5.20896 39.0323 4.55273 33.4659 6.32454 28.4359L10.8525 16.0287C13.1493 9.72455 19.1209 5.4994 25.7488 5.4994H27.5862C34.2141 5.4994 40.1858 9.72455 42.4826 16.0287L47.0105 28.4359C48.8479 33.4659 48.1917 39.0323 45.2387 43.4587ZM41.5638 16.4311C39.3983 10.5293 33.7548 6.57246 27.5862 6.57246H25.7488C19.5803 6.57246 13.9368 10.5293 11.8368 16.4311L7.30888 28.8383C5.60269 33.5329 6.25892 38.7641 9.01507 42.8551C11.7712 46.9461 16.3648 49.3605 21.2209 49.3605C23.0583 49.3605 24.9613 49.0252 26.6675 48.2874C28.3737 48.9581 30.2768 49.3605 32.1142 49.3605C36.9703 49.3605 41.5638 46.9461 44.32 42.788C47.0761 38.697 47.7324 33.4659 46.0262 28.7713L41.5638 16.4311ZM43.4669 42.1844C40.9076 46.0072 36.6422 48.2204 32.1798 48.2204C30.408 48.2204 28.5706 47.885 26.93 47.1473L26.7331 47.0802L26.5363 47.1473C24.8957 47.818 23.0583 48.2204 21.2865 48.2204C16.7585 48.2204 12.5587 45.9401 9.9994 42.1844C7.44013 38.3617 6.84952 33.5329 8.42446 29.2407L12.9524 16.8335C14.9211 11.3341 20.1053 7.71257 25.8801 7.71257H27.7175C33.4266 7.71257 38.6108 11.4012 40.6451 16.8335L45.1731 29.2407C46.6168 33.5329 46.0262 38.3617 43.4669 42.1844ZM39.5295 17.1689C37.6921 12.1389 32.9017 8.71856 27.5862 8.71856H25.7488C20.4334 8.71856 15.6429 12.1389 13.8055 17.1689L9.27756 29.576C7.83386 33.6 8.35884 38.0934 10.7213 41.5808C13.0837 45.0683 17.021 47.2144 21.2209 47.2144C23.1239 47.2144 24.9613 46.812 26.6675 46.0072C28.3737 46.812 30.2111 47.2144 32.1142 47.2144C36.314 47.2144 40.1858 45.1353 42.6138 41.5808C44.9762 38.0934 45.5668 33.6 44.0575 29.576L39.5295 17.1689ZM41.6951 40.9102C39.5295 44.1293 35.9203 46.0072 32.1142 46.0072C30.3424 46.0072 28.505 45.6048 26.93 44.7329L26.6675 44.5988L26.405 44.7329C24.8301 45.5377 22.9927 46.0072 21.2209 46.0072C17.4148 46.0072 13.8055 44.0623 11.64 40.9102C9.47442 37.691 8.94944 33.6 10.3275 29.9784L14.8555 17.5713C16.5617 12.9437 20.9584 9.85868 25.7488 9.85868H27.5862C32.4423 9.85868 36.7734 12.9437 38.4796 17.5713L43.0075 29.9784C44.3856 33.6671 43.8606 37.7581 41.6951 40.9102ZM37.5609 17.9737C35.9859 13.7485 32.0486 10.9317 27.5862 10.9317H25.7488C21.3521 10.9317 17.3491 13.7485 15.7742 17.9737L11.2462 30.3808C9.9994 33.7341 10.4588 37.4228 12.4931 40.3737C14.4617 43.3246 17.7429 45.0683 21.2209 45.0683C23.1239 45.0683 25.027 44.5317 26.6675 43.5258C28.3081 44.5317 30.2111 45.0683 32.1142 45.0683C35.5922 45.0683 38.8733 43.3246 40.842 40.3737C42.8107 37.4228 43.27 33.7341 42.0888 30.3808L37.5609 17.9737ZM39.9233 39.703C38.1515 42.3186 35.1985 43.8611 32.1142 43.8611C30.2768 43.8611 28.505 43.3246 26.9956 42.3186L26.6675 42.1174L26.3394 42.3186C24.8301 43.3246 23.0583 43.8611 21.2209 43.8611C18.1366 43.8611 15.1836 42.3186 13.4118 39.703C11.64 37.0874 11.2462 33.7341 12.2962 30.7832L16.8241 18.376C18.2022 14.6204 21.8115 12.0719 25.7488 12.0719H27.5862C31.5236 12.0719 35.1328 14.6204 36.5109 18.376L41.0389 30.7832C42.1544 33.7341 41.7607 37.0874 39.9233 39.703ZM35.5266 18.7114C34.2797 15.3581 31.1299 13.0778 27.5862 13.0778H25.7488C22.2052 13.0778 19.0553 15.3581 17.8085 18.7114L13.2805 31.1186C12.2962 33.8012 12.6899 36.7521 14.2649 39.0994C15.8398 41.4467 18.4647 42.8551 21.2209 42.8551C23.2552 42.8551 25.1582 42.1174 26.6675 40.8431C28.1768 42.1174 30.0799 42.8551 32.1142 42.8551C34.8703 42.8551 37.4952 41.4467 39.0702 39.0994C40.6451 36.7521 41.0389 33.8012 40.0545 31.1186L35.5266 18.7114ZM38.2171 38.4287C36.839 40.4407 34.6079 41.6479 32.1798 41.6479C30.2768 41.6479 28.505 40.9102 27.1269 39.5689L26.7331 39.1665L26.3394 39.5689C24.9613 40.9102 23.1895 41.6479 21.2865 41.6479C18.8584 41.6479 16.6273 40.4407 15.2492 38.4287C13.8711 36.4168 13.543 33.8012 14.3961 31.521L18.9241 19.1138C19.974 16.1629 22.7958 14.218 25.8144 14.218H27.6519C30.7361 14.218 33.4923 16.1629 34.5422 19.1138L39.0702 31.521C39.9233 33.8683 39.5952 36.4168 38.2171 38.4287ZM33.5579 19.4491C32.6392 16.9006 30.2111 15.224 27.5862 15.224H25.7488C23.1239 15.224 20.6959 16.9006 19.7772 19.4491L15.2492 31.8563C14.5274 33.8683 14.7898 36.0814 15.9711 37.8252C17.1523 39.5689 19.1209 40.6419 21.2209 40.6419C23.452 40.6419 25.5519 39.4347 26.6675 37.4898C27.7831 39.4347 29.883 40.6419 32.1142 40.6419C34.2141 40.6419 36.1172 39.5689 37.364 37.8252C38.5452 36.0814 38.8077 33.8683 38.0858 31.8563L33.5579 19.4491ZM36.4453 37.2216C35.4609 38.697 33.886 39.5018 32.1142 39.5018C30.0143 39.5018 28.1112 38.2275 27.2581 36.2156L27.1269 35.8802H26.2082L26.0769 36.2156C25.2895 38.2275 23.3208 39.5018 21.2209 39.5018C19.5147 39.5018 17.8741 38.6299 16.8898 37.2216C15.9054 35.8132 15.7086 33.9353 16.3648 32.2587L20.8927 19.8515C21.6802 17.7725 23.6489 16.3641 25.8144 16.3641H27.6519C29.8174 16.3641 31.7861 17.7725 32.5736 19.8515L37.1015 32.2587C37.6265 33.9353 37.4296 35.7461 36.4453 37.2216ZM31.5236 20.2539C30.933 18.5772 29.2924 17.4371 27.5862 17.4371H25.7488C23.977 17.4371 22.4021 18.5772 21.8115 20.2539L17.2835 32.6611C16.8241 34.0024 16.9554 35.4778 17.7429 36.618C18.5303 37.7581 19.8428 38.4958 21.2209 38.4958C22.9927 38.4958 24.5676 37.3557 25.1582 35.679L25.4207 34.8743H27.7831L28.0456 35.679C28.6362 37.4228 30.2111 38.5629 32.0486 38.5629C33.4266 38.5629 34.7391 37.8922 35.5266 36.685C36.314 35.5449 36.5109 34.0695 35.9859 32.7281L31.5236 20.2539ZM34.6735 35.9473C34.0829 36.8192 33.1642 37.2886 32.1142 37.2886C30.8017 37.2886 29.6205 36.4168 29.1612 35.2096L28.6362 33.6671H24.6989L24.1082 35.2096C23.6489 36.4838 22.4677 37.2886 21.2209 37.2886C20.1709 37.2886 19.2522 36.7521 18.6616 35.9473C18.071 35.0755 17.9397 34.0024 18.3335 32.9964L22.8614 20.5892C23.3208 19.382 24.502 18.5102 25.7488 18.5102H27.5862C28.8987 18.5102 30.0143 19.315 30.4736 20.5892L35.0016 32.9964C35.3953 34.0024 35.2641 35.1425 34.6735 35.9473ZM29.5549 20.9916C29.2268 20.1868 28.4393 19.5832 27.5862 19.5832H25.7488C24.8957 19.5832 24.1082 20.1198 23.7801 20.9916L19.2522 33.3988C18.9897 34.0695 19.1209 34.8072 19.5147 35.3437C19.9084 35.9473 20.5646 36.2826 21.2209 36.2826C22.0739 36.2826 22.8614 35.7461 23.1895 34.8743L23.7801 33.2647C23.9114 32.8623 24.3051 32.594 24.6989 32.594H28.7018C29.0956 32.594 29.4893 32.8623 29.6205 33.2647L30.1455 34.8743C30.4736 35.7461 31.2611 36.2826 32.1142 36.2826C32.7704 36.2826 33.4266 35.9473 33.8204 35.3437C34.2141 34.7401 34.2797 34.0024 34.0829 33.3988L29.5549 20.9916ZM32.9673 34.7401C32.7704 35.0084 32.5079 35.1425 32.1798 35.1425C31.7861 35.1425 31.3923 34.8743 31.2611 34.4719L30.7361 32.8623C30.408 31.9904 29.6205 31.4539 28.7674 31.4539H24.7645C23.9114 31.4539 23.1239 31.9904 22.7958 32.8623L22.2052 34.4719C22.0739 34.8743 21.6802 35.1425 21.2865 35.1425C20.9584 35.1425 20.6959 35.0084 20.499 34.7401C20.3021 34.4719 20.3021 34.1365 20.3678 33.8012L24.8957 21.394C25.027 20.9916 25.4207 20.7234 25.8144 20.7234H27.6519C28.0456 20.7234 28.4393 20.9916 28.5706 21.394L33.0985 33.8012C33.1642 34.1365 33.0985 34.4719 32.9673 34.7401Z" fill="url(#paint0_linear_1316:7294)"/>
<path d="M81.7303 23.644H73.1994L71.3619 28.741H66.834L74.7087 7.21289H80.1554L88.0301 28.741H83.4365L81.7303 23.644ZM80.221 19.4189L77.4648 11.5722L74.7087 19.4189H80.221Z" fill="white"/>
<path d="M90.8516 5H95.1827V28.6743H90.8516V5Z" fill="white"/>
<path d="M115.525 11.7745V28.8763C115.525 33.9062 112.309 37.1254 107.322 37.1254C103.319 37.1254 99.5785 35.0463 98.9222 30.62H103.385C103.844 32.4978 105.419 33.2355 107.191 33.2355C109.816 33.2355 111.194 31.8272 111.194 29.0104V26.1936C110.012 27.8032 108.306 28.8092 106.01 28.8092C101.678 28.8092 98.4629 25.1876 98.4629 20.0906C98.4629 14.9936 101.744 11.3721 106.01 11.3721C108.306 11.3721 110.078 12.4451 111.194 14.0547V11.7074H115.525V11.7745ZM111.259 20.0906C111.259 17.4751 109.422 15.5972 106.994 15.5972C104.566 15.5972 102.794 17.4751 102.794 20.0906C102.794 22.7062 104.631 24.5841 106.994 24.5841C109.422 24.6511 111.259 22.7733 111.259 20.0906Z" fill="white"/>
<path d="M136.001 11.7741V28.6747H131.67V26.3945C130.555 28.0041 128.783 29.0101 126.486 29.0101C122.155 29.0101 118.939 25.3885 118.939 20.1574C118.939 14.9262 122.221 11.3047 126.486 11.3047C128.848 11.3047 130.555 12.4448 131.736 14.0544V11.7071H136.001V11.7741ZM131.67 20.2244C131.67 17.4747 129.833 15.5969 127.405 15.5969C124.977 15.5969 123.205 17.4747 123.205 20.2244C123.205 23.0412 125.042 24.852 127.405 24.852C129.833 24.852 131.67 23.0412 131.67 20.2244Z" fill="white"/>
<path d="M67.6153 37.9333V39.294H70.0285V40.1444H67.6153V41.6752H70.1949V42.5256H66.7832V37.168H70.1949V38.0184H67.6153V37.9333Z" fill="white"/>
<path d="M75.0215 39.8064C75.0215 38.1906 76.1864 37 77.6842 37C78.9324 37 79.8477 37.7654 80.1806 38.8709H79.2653C79.0156 38.2756 78.4331 37.8504 77.6842 37.8504C76.6025 37.8504 75.8536 38.7008 75.8536 39.8064C75.8536 40.9119 76.6025 41.7623 77.6842 41.7623C78.4331 41.7623 79.0156 41.3371 79.2653 40.7418H80.1806C79.8477 41.8474 78.8492 42.6127 77.6842 42.6127C76.1864 42.6127 75.0215 41.4222 75.0215 39.8064Z" fill="white"/>
<path d="M90.4959 39.8064C90.4959 41.4222 89.3309 42.6127 87.7499 42.6127C86.1689 42.6127 85.0039 41.4222 85.0039 39.8064C85.0039 38.1906 86.1689 37 87.7499 37C89.3309 37 90.4959 38.1906 90.4959 39.8064ZM85.9192 39.8064C85.9192 40.9119 86.7513 41.7623 87.7499 41.7623C88.8316 41.7623 89.5805 40.9119 89.5805 39.8064C89.5805 38.7008 88.7484 37.8504 87.7499 37.8504C86.6681 37.8504 85.9192 38.7008 85.9192 39.8064Z" fill="white"/>
<path d="M70.9437 49.8875C70.9437 51.0781 69.9452 51.5033 69.0299 51.5033C67.5321 51.5033 66.9496 50.6529 66.7832 49.7174H67.6153C67.7817 50.3127 68.1978 50.6529 69.0299 50.6529C69.6956 50.6529 70.1116 50.3977 70.1116 49.8875C70.1116 49.3772 69.6956 49.2922 68.697 49.1221C67.6985 48.867 66.8664 48.6119 66.8664 47.5914C66.8664 46.4858 67.7817 45.9756 68.7802 45.9756C70.1116 45.9756 70.6941 46.6559 70.8605 47.5063H70.0284C69.862 47.0811 69.5291 46.741 68.7802 46.741C68.1146 46.741 67.6985 47.0811 67.6985 47.5063C67.6985 47.9315 68.0314 48.0166 68.8635 48.1867C70.1948 48.6119 70.9437 48.867 70.9437 49.8875Z" fill="white"/>
<path d="M78.0995 49.6323V51.5032H77.2674V49.6323L75.3535 46.0605H76.3521L77.6835 48.6118L79.0148 46.0605H79.9302L78.0995 49.6323Z" fill="white"/>
<path d="M88.5844 49.8875C88.5844 51.0781 87.5859 51.5033 86.6705 51.5033C85.1727 51.5033 84.5903 50.6529 84.4238 49.7174H85.2559C85.4224 50.3127 85.8384 50.6529 86.6705 50.6529C87.3362 50.6529 87.7523 50.3977 87.7523 49.8875C87.7523 49.3772 87.3362 49.2922 86.3377 49.1221C85.3392 48.867 84.507 48.6119 84.507 47.5914C84.507 46.4858 85.4224 45.9756 86.4209 45.9756C87.7523 45.9756 88.3348 46.6559 88.5012 47.5063H87.6691C87.5027 47.0811 87.1698 46.741 86.4209 46.741C85.7552 46.741 85.3392 47.0811 85.3392 47.5063C85.3392 47.9315 85.672 48.0166 86.5041 48.1867C87.8355 48.6119 88.5844 48.867 88.5844 49.8875Z" fill="white"/>
<path d="M97.2363 46.911H95.6553V51.4182H94.8232V46.911H93.2422V46.0605H97.3195V46.911H97.2363Z" fill="white"/>
<path d="M102.979 46.9099V48.2706H105.392V49.121H102.979V50.6517H105.558V51.5022H102.146V46.1445H105.558V46.9949H102.979V46.9099Z" fill="white"/>
<path d="M115.624 46.0605V51.4182H114.792V47.2511L113.211 49.7173H113.128L111.547 47.2511V51.4182H110.715V46.0605H111.713L113.211 48.3567L114.709 46.0605H115.624Z" fill="white"/>
<defs>
<linearGradient id="paint0_linear_1316:7294" x1="4.49473" y1="46.8809" x2="47.2698" y2="15.2349" gradientUnits="userSpaceOnUse">
<stop stop-color="#005BAA"/>
<stop offset="1" stop-color="#00C2F3"/>
</linearGradient>
</defs>
</svg>
