<svg viewBox="0 0 99 40" fill="none" xmlns="http://www.w3.org/2000/svg">
<path d="M38.2917 18.9701L35.0289 10.1078C32.8064 4.07186 27.0374 0 20.6537 0H19.3297C12.9932 0 7.22425 4.07186 5.00177 10.1078L1.73898 18.9701C-0.0106293 23.7605 0.651386 29.0778 3.4886 33.2934C6.37309 37.4611 11.0545 40 16.1142 40C17.3909 40 18.7622 39.8084 20.039 39.4731C21.3157 39.8084 22.687 40 23.9638 40C28.9762 40 33.7049 37.509 36.5894 33.2934C39.4266 29.0778 40.0413 23.7126 38.2917 18.9701ZM35.8801 32.8144C33.1847 36.7425 28.6925 39.1377 23.9165 39.1377C22.6398 39.1377 21.363 38.9461 20.0863 38.6108L19.9917 38.5629L19.8971 38.6108C18.6677 38.9461 17.3436 39.1377 16.0669 39.1377C11.2909 39.1377 6.84596 36.7904 4.10332 32.8144C1.40798 28.8383 0.74596 23.7605 2.44829 19.2575L5.71108 10.3952C7.83898 4.69461 13.277 0.814371 19.3297 0.814371H20.6537C26.6591 0.814371 32.1444 4.64671 34.2723 10.3952L37.5351 19.2575C39.2374 23.7605 38.5754 28.8383 35.8801 32.8144ZM36.8731 19.497L33.6103 10.6347C31.6243 5.22156 26.4227 1.53293 20.701 1.53293H19.377C13.6553 1.53293 8.45371 5.17365 6.46767 10.6347L3.15759 19.497C1.54984 23.8084 2.16456 28.5988 4.76534 32.3832C7.36611 36.1677 11.5746 38.4192 16.1142 38.4192C17.3909 38.4192 18.7622 38.2275 20.039 37.8443C21.3157 38.2275 22.6398 38.4192 23.9638 38.4192C28.5033 38.4192 32.7118 36.1677 35.3126 32.3832C37.8661 28.5988 38.4336 23.8084 36.8731 19.497ZM34.6033 31.9042C32.1917 35.4491 28.2196 37.5569 23.9165 37.5569C22.6398 37.5569 21.363 37.3653 20.1336 36.982L20.039 36.9341L19.9444 36.982C18.7149 37.3653 17.3909 37.5569 16.1615 37.5569C11.9056 37.5569 7.88627 35.4491 5.47464 31.9042C3.06301 28.3593 2.49557 23.8084 3.96146 19.7844L7.22425 10.9222C9.06844 5.79641 13.9863 2.39521 19.377 2.39521H20.701C26.0917 2.39521 30.9622 5.84431 32.8537 10.9701L36.1165 19.8323C37.5824 23.8084 37.0622 28.3593 34.6033 31.9042ZM35.4072 20.024L32.1444 11.1617C30.3475 6.37126 25.7607 3.11377 20.6537 3.11377H19.3297C14.2227 3.11377 9.63588 6.37126 7.83898 11.1617L4.57619 20.024C3.15759 23.8563 3.67774 28.1198 5.9948 31.4731C8.26456 34.8263 12.0475 36.8383 16.0669 36.8383C17.3909 36.8383 18.715 36.5988 19.9917 36.1677C21.2684 36.5988 22.5925 36.8383 23.9165 36.8383C27.9359 36.8383 31.7188 34.8263 33.9886 31.4731C36.3056 28.1198 36.8258 23.8563 35.4072 20.024ZM33.3739 31.0419C31.1987 34.1557 27.6994 36.0239 23.9165 36.0239C22.6398 36.0239 21.3157 35.7844 20.1336 35.3533L19.9917 35.3054L19.8498 35.3533C18.6204 35.7844 17.3436 36.0239 16.0669 36.0239C12.3312 36.0239 8.78472 34.1557 6.65681 31.0419C4.52891 27.8802 4.05604 23.9042 5.33278 20.3114L8.59557 11.4491C10.2506 6.94611 14.5537 3.92814 19.3297 3.92814H20.6537C25.4297 3.92814 29.7328 6.94611 31.3878 11.4491L34.6506 20.3114C35.9746 23.9042 35.5018 27.8802 33.3739 31.0419ZM30.7258 11.7365C29.1653 7.52096 25.0987 4.69461 20.6537 4.69461H19.3297C14.8847 4.69461 10.8181 7.52096 9.30487 11.7365L6.04208 20.5988C4.81263 23.9521 5.28549 27.6886 7.27154 30.6108C9.25759 33.5329 12.5677 35.2575 16.0669 35.2575C17.3909 35.2575 18.7622 35.018 19.9917 34.491C21.2212 34.9701 22.5925 35.2575 23.9165 35.2575C27.4157 35.2575 30.7258 33.5329 32.7118 30.5629C34.6979 27.6407 35.1708 23.9042 33.9413 20.5509L30.7258 11.7365ZM32.0971 30.1317C30.2529 32.8623 27.1793 34.4431 23.9638 34.4431C22.687 34.4431 21.363 34.2036 20.1808 33.6766L20.039 33.6287L19.8971 33.6766C18.7149 34.1557 17.3909 34.4431 16.1142 34.4431C12.8514 34.4431 9.82503 32.8144 7.98084 30.1317C6.13666 27.4012 5.71108 23.9521 6.84596 20.8862L10.1087 12.024C11.5274 8.09581 15.263 5.50898 19.4243 5.50898H20.7483C24.8622 5.50898 28.5979 8.14371 30.0638 12.024L33.3266 20.8862C34.3669 23.9521 33.9413 27.4012 32.0971 30.1317ZM29.2599 12.2635C27.9359 8.67066 24.4839 6.22754 20.6537 6.22754H19.3297C15.4994 6.22754 12.0475 8.67066 10.7235 12.2635L7.46069 21.1257C6.42038 24 6.79867 27.2096 8.501 29.7006C10.2033 32.1916 13.0405 33.7246 16.0669 33.7246C17.4382 33.7246 18.7622 33.4371 19.9917 32.8623C21.2212 33.4371 22.5452 33.7246 23.9165 33.7246C26.9429 33.7246 29.7328 32.2395 31.4824 29.7006C33.1847 27.2096 33.6103 24 32.5227 21.1257L29.2599 12.2635ZM30.8204 29.2216C29.2599 31.521 26.6591 32.8623 23.9165 32.8623C22.6398 32.8623 21.3157 32.5748 20.1808 31.9521L19.9917 31.8563L19.8025 31.9521C18.6677 32.5269 17.3436 32.8623 16.0669 32.8623C13.3243 32.8623 10.7235 31.4731 9.16301 29.2216C7.60255 26.9222 7.22425 24 8.21728 21.4132L11.4801 12.5509C12.7095 9.24551 15.8777 7.04192 19.3297 7.04192H20.6537C24.1529 7.04192 27.2739 9.24551 28.5033 12.5509L31.7661 21.4132C32.7591 24.0479 32.3808 26.9701 30.8204 29.2216ZM27.8413 12.8383C26.7064 9.82036 23.8692 7.80838 20.6537 7.80838H19.3297C16.1615 7.80838 13.277 9.82036 12.1421 12.8383L8.87929 21.7006C7.98084 24.0958 8.31185 26.7305 9.77774 28.8383C11.1963 30.9461 13.5607 32.1916 16.0669 32.1916C17.4382 32.1916 18.8095 31.8084 19.9917 31.0898C21.1739 31.8084 22.5452 32.1916 23.9165 32.1916C26.4227 32.1916 28.787 30.9461 30.2056 28.8383C31.6243 26.7305 31.9553 24.0958 31.1041 21.7006L27.8413 12.8383ZM29.5436 28.3593C28.2669 30.2275 26.139 31.3293 23.9165 31.3293C22.5925 31.3293 21.3157 30.9461 20.2281 30.2275L19.9917 30.0838L19.7553 30.2275C18.6677 30.9461 17.3909 31.3293 16.0669 31.3293C13.8444 31.3293 11.7165 30.2275 10.4398 28.3593C9.16301 26.491 8.87929 24.0958 9.63588 21.988L12.8987 13.1257C13.8917 10.4431 16.4925 8.62275 19.3297 8.62275H20.6537C23.4909 8.62275 26.0917 10.4431 27.0847 13.1257L30.3475 21.988C31.1514 24.0958 30.8677 26.491 29.5436 28.3593ZM26.3754 13.3653C25.477 10.9701 23.2072 9.34132 20.6537 9.34132H19.3297C16.7762 9.34132 14.5064 10.9701 13.608 13.3653L10.3452 22.2275C9.63588 24.1437 9.9196 26.2515 11.0545 27.9281C12.1894 29.6048 14.0808 30.6108 16.0669 30.6108C17.5328 30.6108 18.9041 30.0838 19.9917 29.1737C21.0793 30.0838 22.4506 30.6108 23.9165 30.6108C25.9025 30.6108 27.794 29.6048 28.9289 27.9281C30.0638 26.2515 30.3475 24.1437 29.6382 22.2275L26.3754 13.3653ZM28.3142 27.4491C27.3212 28.8862 25.7134 29.7485 23.9638 29.7485C22.5925 29.7485 21.3157 29.2216 20.3227 28.2635L20.039 27.976L19.7553 28.2635C18.7622 29.2216 17.4855 29.7485 16.1142 29.7485C14.3646 29.7485 12.7568 28.8862 11.7638 27.4491C10.7708 26.012 10.5343 24.1437 11.1491 22.515L14.4119 13.6527C15.1684 11.5449 17.2018 10.1557 19.377 10.1557H20.701C22.9235 10.1557 24.9095 11.5449 25.6661 13.6527L28.9289 22.515C29.5436 24.1916 29.3072 26.012 28.3142 27.4491ZM24.9568 13.8922C24.2948 12.0719 22.5452 10.8743 20.6537 10.8743H19.3297C17.4382 10.8743 15.6886 12.0719 15.0266 13.8922L11.7638 22.7545C11.2436 24.1916 11.4328 25.7725 12.2839 27.018C13.1351 28.2635 14.5537 29.0299 16.0669 29.0299C17.6746 29.0299 19.1878 28.1677 19.9917 26.7784C20.7956 28.1677 22.3087 29.0299 23.9165 29.0299C25.4297 29.0299 26.801 28.2635 27.6994 27.018C28.5506 25.7725 28.7398 24.1916 28.2196 22.7545L24.9568 13.8922ZM27.0374 26.5868C26.3281 27.6407 25.1932 28.2156 23.9165 28.2156C22.4033 28.2156 21.032 27.3054 20.4173 25.8683L20.3227 25.6287H19.6607L19.5661 25.8683C18.9987 27.3054 17.5801 28.2156 16.0669 28.2156C14.8374 28.2156 13.6553 27.5928 12.946 26.5868C12.2367 25.5808 12.0948 24.2395 12.5677 23.0419L15.8305 14.1796C16.3979 12.6946 17.8165 11.6886 19.377 11.6886H20.701C22.2615 11.6886 23.6801 12.6946 24.2475 14.1796L27.5103 23.0419C27.8886 24.2395 27.7467 25.5329 27.0374 26.5868ZM23.4909 14.4671C23.0653 13.2695 21.8832 12.4551 20.6537 12.4551H19.3297C18.0529 12.4551 16.9181 13.2695 16.4925 14.4671L13.2297 23.3293C12.8987 24.2874 12.9932 25.3413 13.5607 26.1557C14.1281 26.9701 15.0739 27.497 16.0669 27.497C17.3436 27.497 18.4785 26.6826 18.9041 25.485L19.0932 24.9102H20.7956L20.9847 25.485C21.4103 26.7305 22.5452 27.5449 23.8692 27.5449C24.8622 27.5449 25.808 27.0659 26.3754 26.2036C26.9429 25.3892 27.0847 24.3353 26.7064 23.3772L23.4909 14.4671ZM25.7607 25.6766C25.3351 26.2994 24.6731 26.6347 23.9165 26.6347C22.9708 26.6347 22.1196 26.012 21.7886 25.1497L21.4103 24.0479H18.5731L18.1475 25.1497C17.8165 26.0599 16.9653 26.6347 16.0669 26.6347C15.3103 26.6347 14.6483 26.2515 14.2227 25.6766C13.7971 25.0539 13.7025 24.2874 13.9863 23.5689L17.2491 14.7066C17.5801 13.8443 18.4312 13.2216 19.3297 13.2216H20.6537C21.5994 13.2216 22.4033 13.7964 22.7343 14.7066L25.9971 23.5689C26.2808 24.2874 26.1863 25.1018 25.7607 25.6766ZM22.0723 14.994C21.8359 14.4192 21.2684 13.988 20.6537 13.988H19.3297C18.7149 13.988 18.1475 14.3713 17.9111 14.994L14.6483 23.8563C14.4591 24.3353 14.5537 24.8623 14.8374 25.2455C15.1212 25.6766 15.594 25.9162 16.0669 25.9162C16.6816 25.9162 17.2491 25.5329 17.4855 24.9102L17.9111 23.7605C18.0056 23.4731 18.2894 23.2814 18.5731 23.2814H21.4576C21.7413 23.2814 22.025 23.4731 22.1196 23.7605L22.4979 24.9102C22.7343 25.5329 23.3018 25.9162 23.9165 25.9162C24.3894 25.9162 24.8622 25.6766 25.146 25.2455C25.4297 24.8144 25.477 24.2874 25.3351 23.8563L22.0723 14.994ZM24.5312 24.8144C24.3894 25.006 24.2002 25.1018 23.9638 25.1018C23.6801 25.1018 23.3963 24.9102 23.3018 24.6228L22.9235 23.4731C22.687 22.8503 22.1196 22.4671 21.5049 22.4671H18.6204C18.0056 22.4671 17.4382 22.8503 17.2018 23.4731L16.7762 24.6228C16.6816 24.9102 16.3979 25.1018 16.1142 25.1018C15.8777 25.1018 15.6886 25.006 15.5467 24.8144C15.4049 24.6228 15.4049 24.3832 15.4522 24.1437L18.7149 15.2814C18.8095 14.994 19.0932 14.8024 19.377 14.8024H20.701C20.9847 14.8024 21.2684 14.994 21.363 15.2814L24.6258 24.1437C24.6731 24.3832 24.6258 24.6228 24.5312 24.8144Z" fill="url(#paint0_linear_1526_13242)"/>
<path d="M59.6677 16.8889H53.5204L52.1964 20.5296H48.9336L54.608 5.15234H58.5328L64.2072 20.5296H60.8972L59.6677 16.8889ZM58.5801 13.8709L56.5941 8.26612L54.608 13.8709H58.5801Z" fill="white"/>
<path d="M66.2402 3.57129H69.3612V20.4815H66.2402V3.57129Z" fill="white"/>
<path d="M84.0212 8.41047V20.626C84.0212 24.2189 81.7041 26.5183 78.1103 26.5183C75.2258 26.5183 72.5304 25.0332 72.0576 21.8716H75.2731C75.6041 23.2129 76.739 23.7398 78.0157 23.7398C79.9072 23.7398 80.9002 22.7338 80.9002 20.7219V18.7099C80.0491 19.8596 78.8196 20.5781 77.1646 20.5781C74.0436 20.5781 71.7266 17.9913 71.7266 14.3506C71.7266 10.7099 74.0909 8.12305 77.1646 8.12305C78.8196 8.12305 80.0964 8.88951 80.9002 10.0392V8.36257H84.0212V8.41047ZM80.9475 14.3506C80.9475 12.4823 79.6235 11.141 77.8739 11.141C76.1242 11.141 74.8475 12.4823 74.8475 14.3506C74.8475 16.2189 76.1715 17.5602 77.8739 17.5602C79.6235 17.6081 80.9475 16.2668 80.9475 14.3506Z" fill="white"/>
<path d="M98.775 8.41052V20.4824H95.6541V18.8536C94.8502 20.0033 93.5735 20.7219 91.9184 20.7219C88.7975 20.7219 86.4805 18.1351 86.4805 14.3985C86.4805 10.662 88.8448 8.0752 91.9184 8.0752C93.6208 8.0752 94.8502 8.88957 95.7014 10.0393V8.36262H98.775V8.41052ZM95.6541 14.4464C95.6541 12.4824 94.3301 11.1411 92.5805 11.1411C90.8309 11.1411 89.5541 12.4824 89.5541 14.4464C89.5541 16.4584 90.8781 17.7518 92.5805 17.7518C94.3301 17.7518 95.6541 16.4584 95.6541 14.4464Z" fill="white"/>
<path d="M49.4981 27.0955V28.0674H51.2369V28.6749H49.4981V29.7683H51.3568V30.3757H48.8984V26.5488H51.3568V27.1563H49.4981V27.0955Z" fill="white"/>
<path d="M54.834 28.4333C54.834 27.2791 55.6734 26.4287 56.7527 26.4287C57.6521 26.4287 58.3117 26.9754 58.5516 27.7651H57.892C57.7121 27.3399 57.2924 27.0362 56.7527 27.0362C55.9732 27.0362 55.4336 27.6436 55.4336 28.4333C55.4336 29.2229 55.9732 29.8304 56.7527 29.8304C57.2924 29.8304 57.7121 29.5266 57.892 29.1014H58.5516C58.3117 29.8911 57.5922 30.4378 56.7527 30.4378C55.6734 30.4378 54.834 29.5874 54.834 28.4333Z" fill="white"/>
<path d="M65.9848 28.4333C65.9848 29.5874 65.1453 30.4378 64.0061 30.4378C62.8668 30.4378 62.0273 29.5874 62.0273 28.4333C62.0273 27.2791 62.8668 26.4287 64.0061 26.4287C65.1453 26.4287 65.9848 27.2791 65.9848 28.4333ZM62.6869 28.4333C62.6869 29.2229 63.2865 29.8304 64.0061 29.8304C64.7856 29.8304 65.3252 29.2229 65.3252 28.4333C65.3252 27.6436 64.7256 27.0362 64.0061 27.0362C63.2266 27.0362 62.6869 27.6436 62.6869 28.4333Z" fill="white"/>
<path d="M51.8965 35.6341C51.8965 36.4845 51.1769 36.7882 50.5174 36.7882C49.4381 36.7882 49.0184 36.1807 48.8984 35.5126H49.498C49.618 35.9378 49.9178 36.1807 50.5174 36.1807C50.9971 36.1807 51.2969 35.9985 51.2969 35.6341C51.2969 35.2696 50.997 35.2089 50.2775 35.0874C49.558 34.9051 48.9584 34.7229 48.9584 33.994C48.9584 33.2043 49.618 32.8398 50.3375 32.8398C51.2969 32.8398 51.7166 33.3258 51.8365 33.9332H51.2369C51.117 33.6295 50.8771 33.3865 50.3375 33.3865C49.8578 33.3865 49.558 33.6295 49.558 33.9332C49.558 34.2369 49.7978 34.2977 50.3975 34.4192C51.3568 34.7229 51.8965 34.9051 51.8965 35.6341Z" fill="white"/>
<path d="M57.053 35.4516V36.788H56.4533V35.4516L55.0742 32.9004H55.7938L56.7531 34.7227L57.7125 32.9004H58.3721L57.053 35.4516Z" fill="white"/>
<path d="M64.6074 35.6341C64.6074 36.4845 63.8879 36.7882 63.2283 36.7882C62.149 36.7882 61.7293 36.1807 61.6094 35.5126H62.209C62.3289 35.9378 62.6287 36.1807 63.2283 36.1807C63.708 36.1807 64.0078 35.9985 64.0078 35.6341C64.0078 35.2696 63.708 35.2089 62.9885 35.0874C62.269 34.9051 61.6693 34.7229 61.6693 33.994C61.6693 33.2043 62.3289 32.8398 63.0485 32.8398C64.0078 32.8398 64.4276 33.3258 64.5475 33.9332H63.9479C63.8279 33.6295 63.5881 33.3865 63.0485 33.3865C62.5688 33.3865 62.269 33.6295 62.269 33.9332C62.269 34.2369 62.5088 34.2977 63.1084 34.4192C64.0678 34.7229 64.6074 34.9051 64.6074 35.6341Z" fill="white"/>
<path d="M70.843 33.5078H69.7037V36.7273H69.1041V33.5078H67.9648V32.9004H70.9029V33.5078H70.843Z" fill="white"/>
<path d="M74.9805 33.5076V34.4795H76.7194V35.087H74.9805V36.1804H76.8393V36.7878H74.3809V32.9609H76.8393V33.5684H74.9805V33.5076Z" fill="white"/>
<path d="M84.0924 32.9004V36.7273H83.4928V33.7508L82.3535 35.5124H82.2936L81.1543 33.7508V36.7273H80.5547V32.9004H81.2742L82.3535 34.5405L83.4328 32.9004H84.0924Z" fill="white"/>
<defs>
<linearGradient id="paint0_linear_1526_13242" x1="4.01424" y1="33.4864" x2="34.6454" y2="10.6247" gradientUnits="userSpaceOnUse">
<stop stop-color="#005BAA"/>
<stop offset="1" stop-color="#00C2F3"/>
</linearGradient>
</defs>
</svg>
