<svg width="199" height="56" viewBox="0 0 199 56" fill="none" xmlns="http://www.w3.org/2000/svg">
<path d="M52.0069 26.5581L47.4838 14.1509C44.4029 5.7006 36.4057 0 27.5563 0H25.7208C16.937 0 8.93972 5.7006 5.85881 14.1509L1.33578 26.5581C-1.08962 33.2647 -0.171901 40.709 3.76117 46.6108C7.7598 52.4455 14.2494 56 21.2633 56C23.0332 56 24.9342 55.7317 26.7041 55.2623C28.474 55.7317 30.375 56 32.1449 56C39.0933 56 45.6484 52.5126 49.647 46.6108C53.5801 40.709 54.4323 33.1976 52.0069 26.5581ZM48.6638 45.9401C44.9273 51.4395 38.7 54.7928 32.0793 54.7928C30.3094 54.7928 28.5395 54.5246 26.7697 54.0551L26.6385 53.988L26.5074 54.0551C24.8031 54.5246 22.9677 54.7928 21.1978 54.7928C14.5771 54.7928 8.41531 51.5066 4.61334 45.9401C0.876919 40.3737 -0.0407982 33.2647 2.31905 26.9605L6.84208 14.5533C9.79189 6.57246 17.3303 1.14012 25.7208 1.14012H27.5563C35.8813 1.14012 43.4852 6.50539 46.435 14.5533L50.9581 26.9605C53.3179 33.2647 52.4002 40.3737 48.6638 45.9401ZM50.0403 27.2958L45.5173 14.8886C42.7642 7.31018 35.5535 2.14611 27.6218 2.14611H25.7864C17.8547 2.14611 10.6441 7.24311 7.8909 14.8886L3.30231 27.2958C1.07357 33.3317 1.92574 40.0383 5.53106 45.3365C9.13637 50.6347 14.9704 53.7868 21.2633 53.7868C23.0332 53.7868 24.9342 53.5186 26.7041 52.982C28.474 53.5186 30.3094 53.7868 32.1449 53.7868C38.4378 53.7868 44.2718 50.6347 47.8771 45.3365C51.4169 40.0383 52.2035 33.3317 50.0403 27.2958ZM46.8939 44.6659C43.5508 49.6287 38.0445 52.5796 32.0793 52.5796C30.3094 52.5796 28.5395 52.3114 26.8352 51.7748L26.7041 51.7078L26.573 51.7748C24.8687 52.3114 23.0332 52.5796 21.3289 52.5796C15.4293 52.5796 9.85744 49.6287 6.51432 44.6659C3.17121 39.703 2.3846 33.3317 4.41669 27.6982L8.93972 15.291C11.4962 8.11497 18.3135 3.35329 25.7864 3.35329H27.6218C35.0947 3.35329 41.8464 8.18204 44.4685 15.3581L48.9915 27.7653C51.0236 33.3317 50.3025 39.703 46.8939 44.6659ZM48.0083 28.0335L43.4852 15.6263C40.9943 8.91976 34.6358 4.35928 27.5563 4.35928H25.7208C18.6413 4.35928 12.2828 8.91976 9.79189 15.6263L5.26885 28.0335C3.30231 33.3988 4.02338 39.3677 7.23539 44.0623C10.3818 48.7569 15.6259 51.5737 21.1978 51.5737C23.0332 51.5737 24.8687 51.2383 26.6385 50.6347C28.4084 51.2383 30.2439 51.5737 32.0793 51.5737C37.6512 51.5737 42.8953 48.7569 46.0417 44.0623C49.2537 39.3677 49.9748 33.3988 48.0083 28.0335ZM45.1895 43.4587C42.1742 47.818 37.3234 50.4335 32.0793 50.4335C30.3094 50.4335 28.474 50.0982 26.8352 49.4946L26.6385 49.4275L26.4419 49.4946C24.7376 50.0982 22.9677 50.4335 21.1978 50.4335C16.0193 50.4335 11.1029 47.818 8.1531 43.4587C5.2033 39.0323 4.54779 33.4659 6.31767 28.4359L10.8407 16.0287C13.135 9.72455 19.1002 5.4994 25.7208 5.4994H27.5563C34.1769 5.4994 40.1421 9.72455 42.4364 16.0287L46.9594 28.4359C48.7949 33.4659 48.1394 39.0323 45.1895 43.4587ZM41.5187 16.4311C39.3555 10.5293 33.7181 6.57246 27.5563 6.57246H25.7208C19.559 6.57246 13.9216 10.5293 11.824 16.4311L7.30094 28.8383C5.59661 33.5329 6.25212 38.7641 9.00527 42.8551C11.7584 46.9461 16.347 49.3605 21.1978 49.3605C23.0332 49.3605 24.9342 49.0252 26.6385 48.2874C28.3429 48.9581 30.2439 49.3605 32.0793 49.3605C36.9301 49.3605 41.5187 46.9461 44.2718 42.788C47.025 38.697 47.6805 33.4659 45.9762 28.7713L41.5187 16.4311ZM43.4197 42.1844C40.8632 46.0072 36.6023 48.2204 32.1449 48.2204C30.375 48.2204 28.5395 47.885 26.9008 47.1473L26.7041 47.0802L26.5074 47.1473C24.8687 47.818 23.0332 48.2204 21.2633 48.2204C16.7403 48.2204 12.545 45.9401 9.98854 42.1844C7.43204 38.3617 6.84208 33.5329 8.41531 29.2407L12.9383 16.8335C14.9049 11.3341 20.0834 7.71257 25.8519 7.71257H27.6874C33.3903 7.71257 38.5689 11.4012 40.601 16.8335L45.124 29.2407C46.5661 33.5329 45.9762 38.3617 43.4197 42.1844ZM39.4866 17.1689C37.6512 12.1389 32.8659 8.71856 27.5563 8.71856H25.7208C20.4112 8.71856 15.6259 12.1389 13.7905 17.1689L9.26748 29.576C7.82535 33.6 8.34976 38.0934 10.7096 41.5808C13.0694 45.0683 17.0025 47.2144 21.1978 47.2144C23.0988 47.2144 24.9342 46.812 26.6385 46.0072C28.3429 46.812 30.1783 47.2144 32.0793 47.2144C36.2746 47.2144 40.1421 45.1353 42.5675 41.5808C44.9273 38.0934 45.5173 33.6 44.0096 29.576L39.4866 17.1689ZM41.6498 40.9102C39.4866 44.1293 35.8813 46.0072 32.0793 46.0072C30.3094 46.0072 28.474 45.6048 26.9008 44.7329L26.6385 44.5988L26.3763 44.7329C24.8031 45.5377 22.9677 46.0072 21.1978 46.0072C17.3958 46.0072 13.7905 44.0623 11.6273 40.9102C9.46413 37.691 8.93972 33.6 10.3163 29.9784L14.8393 17.5713C16.5437 12.9437 20.9356 9.85868 25.7208 9.85868H27.5563C32.4071 9.85868 36.7334 12.9437 38.4378 17.5713L42.9608 29.9784C44.3374 33.6671 43.813 37.7581 41.6498 40.9102ZM37.5201 17.9737C35.9468 13.7485 32.0137 10.9317 27.5563 10.9317H25.7208C21.3289 10.9317 17.3303 13.7485 15.757 17.9737L11.234 30.3808C9.98854 33.7341 10.4474 37.4228 12.4795 40.3737C14.446 43.3246 17.7236 45.0683 21.1978 45.0683C23.0988 45.0683 24.9998 44.5317 26.6385 43.5258C28.2773 44.5317 30.1783 45.0683 32.0793 45.0683C35.5535 45.0683 38.8311 43.3246 40.7976 40.3737C42.7642 37.4228 43.223 33.7341 42.0431 30.3808L37.5201 17.9737ZM39.8799 39.703C38.11 42.3186 35.1602 43.8611 32.0793 43.8611C30.2439 43.8611 28.474 43.3246 26.9663 42.3186L26.6385 42.1174L26.3108 42.3186C24.8031 43.3246 23.0332 43.8611 21.1978 43.8611C18.1169 43.8611 15.1671 42.3186 13.3972 39.703C11.6273 37.0874 11.234 33.7341 12.2828 30.7832L16.8059 18.376C18.1824 14.6204 21.7878 12.0719 25.7208 12.0719H27.5563C31.4893 12.0719 35.0947 14.6204 36.4712 18.376L40.9943 30.7832C42.1086 33.7341 41.7153 37.0874 39.8799 39.703ZM35.488 18.7114C34.2425 15.3581 31.096 13.0778 27.5563 13.0778H25.7208C22.1811 13.0778 19.0346 15.3581 17.7891 18.7114L13.2661 31.1186C12.2828 33.8012 12.6761 36.7521 14.2494 39.0994C15.8226 41.4467 18.4446 42.8551 21.1978 42.8551C23.2299 42.8551 25.1309 42.1174 26.6385 40.8431C28.1462 42.1174 30.0472 42.8551 32.0793 42.8551C34.8325 42.8551 37.4545 41.4467 39.0277 39.0994C40.601 36.7521 40.9943 33.8012 40.011 31.1186L35.488 18.7114ZM38.1756 38.4287C36.799 40.4407 34.5702 41.6479 32.1449 41.6479C30.2439 41.6479 28.474 40.9102 27.0974 39.5689L26.7041 39.1665L26.3108 39.5689C24.9342 40.9102 23.1643 41.6479 21.2633 41.6479C18.838 41.6479 16.6092 40.4407 15.2326 38.4287C13.8561 36.4168 13.5283 33.8012 14.3805 31.521L18.9035 19.1138C19.9523 16.1629 22.771 14.218 25.7864 14.218H27.6218C30.7027 14.218 33.4559 16.1629 34.5047 19.1138L39.0277 31.521C39.8799 33.8683 39.5521 36.4168 38.1756 38.4287ZM33.5214 19.4491C32.6037 16.9006 30.1783 15.224 27.5563 15.224H25.7208C23.0988 15.224 20.6734 16.9006 19.7557 19.4491L15.2326 31.8563C14.5116 33.8683 14.7738 36.0814 15.9537 37.8252C17.1336 39.5689 19.1002 40.6419 21.1978 40.6419C23.4265 40.6419 25.5242 39.4347 26.6385 37.4898C27.7529 39.4347 29.8506 40.6419 32.0793 40.6419C34.1769 40.6419 36.0779 39.5689 37.3234 37.8252C38.5033 36.0814 38.7655 33.8683 38.0445 31.8563L33.5214 19.4491ZM36.4057 37.2216C35.4224 38.697 33.8492 39.5018 32.0793 39.5018C29.9817 39.5018 28.0807 38.2275 27.2285 36.2156L27.0974 35.8802H26.1797L26.0486 36.2156C25.262 38.2275 23.2954 39.5018 21.1978 39.5018C19.4935 39.5018 17.8547 38.6299 16.8714 37.2216C15.8881 35.8132 15.6915 33.9353 16.347 32.2587L20.87 19.8515C21.6567 17.7725 23.6232 16.3641 25.7864 16.3641H27.6218C29.785 16.3641 31.7515 17.7725 32.5382 19.8515L37.0612 32.2587C37.5856 33.9353 37.389 35.7461 36.4057 37.2216ZM31.4893 20.2539C30.8994 18.5772 29.2606 17.4371 27.5563 17.4371H25.7208C23.9509 17.4371 22.3777 18.5772 21.7878 20.2539L17.2647 32.6611C16.8059 34.0024 16.937 35.4778 17.7236 36.618C18.5102 37.7581 19.8212 38.4958 21.1978 38.4958C22.9677 38.4958 24.5409 37.3557 25.1309 35.679L25.3931 34.8743H27.7529L28.0151 35.679C28.6051 37.4228 30.1783 38.5629 32.0138 38.5629C33.3903 38.5629 34.7014 37.8922 35.488 36.685C36.2746 35.5449 36.4712 34.0695 35.9468 32.7281L31.4893 20.2539ZM34.6358 35.9473C34.0458 36.8192 33.1281 37.2886 32.0793 37.2886C30.7683 37.2886 29.5884 36.4168 29.1295 35.2096L28.6051 33.6671H24.672L24.0821 35.2096C23.6232 36.4838 22.4433 37.2886 21.1978 37.2886C20.149 37.2886 19.2313 36.7521 18.6413 35.9473C18.0513 35.0755 17.9202 34.0024 18.3135 32.9964L22.8366 20.5892C23.2954 19.382 24.4754 18.5102 25.7208 18.5102H27.5563C28.8673 18.5102 29.9817 19.315 30.4405 20.5892L34.9636 32.9964C35.3569 34.0024 35.2258 35.1425 34.6358 35.9473ZM29.5228 20.9916C29.195 20.1868 28.4084 19.5832 27.5563 19.5832H25.7208C24.8687 19.5832 24.0821 20.1198 23.7543 20.9916L19.2313 33.3988C18.9691 34.0695 19.1002 34.8072 19.4935 35.3437C19.8868 35.9473 20.5423 36.2826 21.1978 36.2826C22.05 36.2826 22.8366 35.7461 23.1643 34.8743L23.7543 33.2647C23.8854 32.8623 24.2787 32.594 24.672 32.594H28.6706C29.0639 32.594 29.4573 32.8623 29.5884 33.2647L30.1128 34.8743C30.4405 35.7461 31.2271 36.2826 32.0793 36.2826C32.7348 36.2826 33.3903 35.9473 33.7836 35.3437C34.1769 34.7401 34.2425 34.0024 34.0458 33.3988L29.5228 20.9916ZM32.9315 34.7401C32.7348 35.0084 32.4726 35.1425 32.1449 35.1425C31.7515 35.1425 31.3582 34.8743 31.2271 34.4719L30.7027 32.8623C30.375 31.9904 29.5884 31.4539 28.7362 31.4539H24.7376C23.8854 31.4539 23.0988 31.9904 22.771 32.8623L22.1811 34.4719C22.05 34.8743 21.6567 35.1425 21.2633 35.1425C20.9356 35.1425 20.6734 35.0084 20.4767 34.7401C20.2801 34.4719 20.2801 34.1365 20.3456 33.8012L24.8687 21.394C24.9998 20.9916 25.3931 20.7234 25.7864 20.7234H27.6218C28.0151 20.7234 28.4084 20.9916 28.5395 21.394L33.0626 33.8012C33.1281 34.1365 33.0626 34.4719 32.9315 34.7401Z" fill="url(#paint0_linear)"/>
<path d="M76.9797 30.5146H68.4581L66.6226 35.6116H62.0996L69.9658 14.0835H75.4065L83.2726 35.6116H78.6841L76.9797 30.5146ZM75.4721 26.2895L72.7189 18.4428L69.9658 26.2895H75.4721Z" fill="white"/>
<path d="M86.0918 11.8701H90.4182V35.5444H86.0918V11.8701Z" fill="white"/>
<path d="M110.739 18.6446V35.7464C110.739 40.7763 107.527 43.9955 102.545 43.9955C98.5461 43.9955 94.8097 41.9164 94.1542 37.4901H98.6117C99.0705 39.3679 100.644 40.1057 102.414 40.1057C105.036 40.1057 106.412 38.6973 106.412 35.8805V33.0637C105.232 34.6733 103.528 35.6793 101.234 35.6793C96.9073 35.6793 93.6953 32.0578 93.6953 26.9608C93.6953 21.8637 96.9729 18.2422 101.234 18.2422C103.528 18.2422 105.298 19.3152 106.412 20.9248V18.5775H110.739V18.6446ZM106.478 26.9608C106.478 24.3452 104.642 22.4673 102.217 22.4673C99.7916 22.4673 98.0217 24.3452 98.0217 26.9608C98.0217 29.5763 99.8571 31.4542 102.217 31.4542C104.642 31.5212 106.478 29.6434 106.478 26.9608Z" fill="white"/>
<path d="M131.192 18.6448V35.5453H126.865V33.2651C125.751 34.8747 123.981 35.8807 121.687 35.8807C117.36 35.8807 114.148 32.2591 114.148 27.028C114.148 21.7968 117.426 18.1753 121.687 18.1753C124.047 18.1753 125.751 19.3154 126.931 20.925V18.5777H131.192V18.6448ZM126.865 27.0951C126.865 24.3454 125.03 22.4675 122.605 22.4675C120.179 22.4675 118.409 24.3454 118.409 27.0951C118.409 29.9118 120.245 31.7226 122.605 31.7226C125.03 31.7226 126.865 29.9118 126.865 27.0951Z" fill="white"/>
<path d="M134.469 27.0949C134.469 22.0649 138.14 18.2422 143.122 18.2422C147.186 18.2422 150.725 20.7236 151.381 25.0158H146.989C146.465 23.138 144.891 22.2661 143.187 22.2661C140.565 22.2661 138.861 24.211 138.926 27.0278C138.926 29.8446 140.631 31.7895 143.187 31.7895C144.957 31.7895 146.53 30.8506 147.055 29.0398H151.447C150.791 33.5332 147.12 35.8805 143.187 35.8805C138.14 35.9476 134.469 32.1248 134.469 27.0949Z" fill="white"/>
<path d="M171.242 27.0949C171.242 32.1919 167.44 35.9476 162.589 35.9476C157.804 35.9476 154.002 32.1919 154.002 27.0949C154.002 21.9979 157.869 18.2422 162.589 18.2422C167.44 18.2422 171.242 21.9979 171.242 27.0949ZM158.328 27.0949C158.328 29.9116 160.164 31.7224 162.589 31.7224C165.015 31.7224 166.85 29.8446 166.85 27.0949C166.85 24.3452 165.015 22.4673 162.589 22.4673C160.164 22.4673 158.328 24.3452 158.328 27.0949Z" fill="white"/>
<path d="M179.438 13.4129C179.438 14.8884 178.323 16.0285 176.75 16.0285C175.242 16.0285 174.062 14.8884 174.062 13.4129C174.062 11.9375 175.242 10.7974 176.75 10.7974C178.323 10.7974 179.438 11.8704 179.438 13.4129ZM174.587 18.6441H178.913V35.5447H174.587V18.6441Z" fill="white"/>
<path d="M198.054 24.9488V35.5452H193.728V25.8877C193.728 23.6745 192.941 22.4673 190.647 22.4673C188.221 22.4673 186.91 23.9428 186.91 26.6925V35.5452H182.584V18.6446H186.91V20.9248C188.09 19.1811 189.795 18.2422 192.023 18.2422C195.825 18.2422 198.054 20.7907 198.054 24.9488Z" fill="white"/>
<path d="M137.157 41.4449V42.518H139.058V43.1886H137.157V44.3958H139.19V45.0665H136.502V40.8413H139.19V41.512H137.157V41.4449Z" fill="white"/>
<path d="M142.99 42.9222C142.99 41.6479 143.908 40.709 145.088 40.709C146.071 40.709 146.792 41.3126 147.054 42.1844H146.333C146.137 41.715 145.678 41.3796 145.088 41.3796C144.236 41.3796 143.646 42.0503 143.646 42.9222C143.646 43.794 144.236 44.4647 145.088 44.4647C145.678 44.4647 146.137 44.1293 146.333 43.6599H147.054C146.792 44.5317 146.006 45.1353 145.088 45.1353C143.908 45.1353 142.99 44.1964 142.99 42.9222Z" fill="white"/>
<path d="M155.182 42.9222C155.182 44.1964 154.264 45.1353 153.019 45.1353C151.773 45.1353 150.855 44.1964 150.855 42.9222C150.855 41.6479 151.773 40.709 153.019 40.709C154.264 40.709 155.182 41.6479 155.182 42.9222ZM151.577 42.9222C151.577 43.794 152.232 44.4647 153.019 44.4647C153.871 44.4647 154.461 43.794 154.461 42.9222C154.461 42.0503 153.805 41.3796 153.019 41.3796C152.166 41.3796 151.577 42.0503 151.577 42.9222Z" fill="white"/>
<path d="M162.264 43.794C162.264 44.7329 161.477 45.0683 160.756 45.0683C159.576 45.0683 159.117 44.3976 158.986 43.6599H159.642C159.773 44.1293 160.101 44.3976 160.756 44.3976C161.281 44.3976 161.608 44.1964 161.608 43.794C161.608 43.3916 161.281 43.3245 160.494 43.1904C159.707 42.9892 159.052 42.788 159.052 41.9832C159.052 41.1114 159.773 40.709 160.56 40.709C161.608 40.709 162.067 41.2455 162.198 41.9162H161.543C161.412 41.5808 161.149 41.3126 160.56 41.3126C160.035 41.3126 159.707 41.5808 159.707 41.9162C159.707 42.2515 159.97 42.3186 160.625 42.4527C161.674 42.788 162.264 42.9892 162.264 43.794Z" fill="white"/>
<path d="M167.901 43.5931V45.0686H167.246V43.5931L165.738 40.7764H166.525L167.574 42.7883L168.623 40.7764H169.344L167.901 43.5931Z" fill="white"/>
<path d="M176.16 43.794C176.16 44.7329 175.374 45.0683 174.653 45.0683C173.473 45.0683 173.014 44.3976 172.883 43.6599H173.538C173.669 44.1293 173.997 44.3976 174.653 44.3976C175.177 44.3976 175.505 44.1964 175.505 43.794C175.505 43.3916 175.177 43.3245 174.39 43.1904C173.604 42.9892 172.948 42.788 172.948 41.9832C172.948 41.1114 173.669 40.709 174.456 40.709C175.505 40.709 175.964 41.2455 176.095 41.9162H175.439C175.308 41.5808 175.046 41.3126 174.456 41.3126C173.932 41.3126 173.604 41.5808 173.604 41.9162C173.604 42.2515 173.866 42.3186 174.522 42.4527C175.57 42.788 176.16 42.9892 176.16 43.794Z" fill="white"/>
<path d="M182.977 41.447H181.731V45.0015H181.076V41.447H179.83V40.7764H183.042V41.447H182.977Z" fill="white"/>
<path d="M187.499 41.4464V42.5194H189.4V43.1901H187.499V44.3973H189.531V45.0679H186.844V40.8428H189.531V41.5134H187.499V41.4464Z" fill="white"/>
<path d="M197.463 40.7764V45.0015H196.808V41.7153L195.562 43.6602H195.497L194.251 41.7153V45.0015H193.596V40.7764H194.382L195.562 42.5872L196.742 40.7764H197.463Z" fill="white"/>
<defs>
<linearGradient id="paint0_linear" x1="4.48984" y1="46.8809" x2="47.2512" y2="15.2793" gradientUnits="userSpaceOnUse">
<stop stop-color="#005BAA"/>
<stop offset="1" stop-color="#00C2F3"/>
</linearGradient>
</defs>
</svg>
