<svg width="164" height="50" viewBox="0 0 164 50" fill="none" xmlns="http://www.w3.org/2000/svg">
<path d="M47.7547 23.7126L43.6014 12.6347C40.7724 5.08982 33.4291 0 25.3032 0H23.6178C15.5522 0 8.20879 5.08982 5.37978 12.6347L1.22656 23.7126C-1.00053 29.7006 -0.157846 36.3473 3.45365 41.6168C7.12534 46.8263 13.0843 50 19.5248 50C21.15 50 22.8955 49.7605 24.5207 49.3413C26.1459 49.7605 27.8914 50 29.5166 50C35.8969 50 41.9161 46.8862 45.5878 41.6168C49.1993 36.3473 49.9818 29.6407 47.7547 23.7126ZM44.6849 41.018C41.254 45.9281 35.5358 48.9222 29.4564 48.9222C27.8312 48.9222 26.2061 48.6826 24.5809 48.2635L24.4605 48.2036L24.3401 48.2635C22.7752 48.6826 21.0898 48.9222 19.4646 48.9222C13.3853 48.9222 7.72725 45.988 4.23614 41.018C0.80522 36.0479 -0.0374625 29.7006 2.12943 24.0719L6.28266 12.994C8.99128 5.86826 15.9133 1.01796 23.6178 1.01796H25.3032C32.9475 1.01796 39.9298 5.80838 42.6384 12.994L46.7916 24.0719C48.9585 29.7006 48.1158 36.0479 44.6849 41.018ZM45.9489 24.3713L41.7957 13.2934C39.2676 6.52695 32.6466 1.91617 25.3634 1.91617H23.678C16.3948 1.91617 9.77377 6.46707 7.24572 13.2934L3.03231 24.3713C0.985795 29.7605 1.76829 35.7485 5.07882 40.479C8.38936 45.2096 13.7464 48.0239 19.5248 48.0239C21.15 48.0239 22.8955 47.7844 24.5207 47.3054C26.1459 47.7844 27.8312 48.0239 29.5166 48.0239C35.295 48.0239 40.6521 45.2096 43.9626 40.479C47.2129 35.7485 47.9352 29.7605 45.9489 24.3713ZM43.0597 39.8802C39.9899 44.3114 34.9339 46.9461 29.4564 46.9461C27.8312 46.9461 26.2061 46.7066 24.6411 46.2275L24.5207 46.1677L24.4003 46.2275C22.8353 46.7066 21.15 46.9461 19.585 46.9461C14.1678 46.9461 9.05147 44.3114 5.9817 39.8802C2.91193 35.4491 2.18963 29.7605 4.05557 24.7305L8.20879 13.6527C10.5563 7.24551 16.8162 2.99401 23.678 2.99401H25.3634C32.2252 2.99401 38.425 7.30539 40.8326 13.7126L44.9859 24.7904C46.8518 29.7605 46.1897 35.4491 43.0597 39.8802ZM44.083 25.0299L39.9298 13.9521C37.6425 7.96407 31.8039 3.89222 25.3032 3.89222H23.6178C17.1171 3.89222 11.2786 7.96407 8.99128 13.9521L4.83806 25.0299C3.03231 29.8204 3.69442 35.1497 6.64381 39.3413C9.533 43.5329 14.3483 46.0479 19.4646 46.0479C21.15 46.0479 22.8353 45.7485 24.4605 45.2096C26.0857 45.7485 27.7711 46.0479 29.4564 46.0479C34.5727 46.0479 39.388 43.5329 42.2772 39.3413C45.2266 35.1497 45.8887 29.8204 44.083 25.0299ZM41.4947 38.8024C38.7259 42.6946 34.2717 45.0299 29.4564 45.0299C27.8312 45.0299 26.1459 44.7305 24.6411 44.1916L24.4605 44.1317L24.2799 44.1916C22.715 44.7305 21.0898 45.0299 19.4646 45.0299C14.7095 45.0299 10.1951 42.6946 7.48649 38.8024C4.77787 34.8503 4.17595 29.8802 5.80112 25.3892L9.95434 14.3114C12.061 8.68263 17.5385 4.91018 23.6178 4.91018H25.3032C31.3825 4.91018 36.86 8.68263 38.9667 14.3114L43.1199 25.3892C44.8053 29.8802 44.2034 34.8503 41.4947 38.8024ZM38.124 14.6707C36.1377 9.4012 30.9612 5.86826 25.3032 5.86826H23.6178C17.9598 5.86826 12.7833 9.4012 10.8572 14.6707L6.704 25.7485C5.13901 29.9401 5.74093 34.6108 8.26898 38.2635C10.797 41.9162 15.0104 44.0719 19.4646 44.0719C21.15 44.0719 22.8955 43.7725 24.4605 43.1138C26.0255 43.7126 27.7711 44.0719 29.4564 44.0719C33.9106 44.0719 38.124 41.9162 40.6521 38.2036C43.1801 34.5509 43.782 29.8802 42.217 25.6886L38.124 14.6707ZM39.8696 37.6647C37.5221 41.0778 33.6096 43.0539 29.5166 43.0539C27.8914 43.0539 26.2061 42.7545 24.7013 42.0958L24.5207 42.0359L24.3401 42.0958C22.8353 42.6946 21.15 43.0539 19.5248 43.0539C15.3716 43.0539 11.5193 41.018 9.17185 37.6647C6.82438 34.2515 6.28265 29.9401 7.72725 26.1078L11.8805 15.0299C13.6862 10.1198 18.4414 6.88623 23.7382 6.88623H25.4236C30.6602 6.88623 35.4154 10.1796 37.2813 15.0299L41.4345 26.1078C42.7588 29.9401 42.217 34.2515 39.8696 37.6647ZM36.2581 15.3293C34.5727 10.8383 30.1787 7.78443 25.3032 7.78443H23.6178C18.7423 7.78443 14.3483 10.8383 12.663 15.3293L8.50974 26.4072C7.18553 30 7.66706 34.012 9.83396 37.1257C12.0009 40.2395 15.6124 42.1557 19.4646 42.1557C21.2102 42.1557 22.8955 41.7964 24.4605 41.0778C26.0255 41.7964 27.7109 42.1557 29.4564 42.1557C33.3087 42.1557 36.86 40.2994 39.0871 37.1257C41.254 34.012 41.7957 30 40.4113 26.4072L36.2581 15.3293ZM38.2444 36.5269C36.2581 39.4012 32.9475 41.0778 29.4564 41.0778C27.8312 41.0778 26.1459 40.7186 24.7013 39.9401L24.4605 39.8204L24.2197 39.9401C22.7752 40.6587 21.0898 41.0778 19.4646 41.0778C15.9735 41.0778 12.663 39.3413 10.6766 36.5269C8.69032 33.6527 8.20879 30 9.47281 26.7665L13.626 15.6886C15.191 11.5569 19.2238 8.80239 23.6178 8.80239H25.3032C29.7574 8.80239 33.73 11.5569 35.295 15.6886L39.4482 26.7665C40.7122 30.0599 40.2307 33.7126 38.2444 36.5269ZM34.4523 16.0479C33.0077 12.2754 29.3962 9.76048 25.3032 9.76048H23.6178C19.585 9.76048 15.9133 12.2754 14.4687 16.0479L10.3155 27.1257C9.17185 30.1198 9.59319 33.4132 11.4591 36.0479C13.2649 38.6826 16.2745 40.2395 19.4646 40.2395C21.2102 40.2395 22.9557 39.7605 24.4605 38.8623C25.9653 39.7605 27.7109 40.2395 29.4564 40.2395C32.6466 40.2395 35.6562 38.6826 37.4619 36.0479C39.2676 33.4132 39.689 30.1198 38.6055 27.1257L34.4523 16.0479ZM36.6192 35.4491C34.994 37.7844 32.2854 39.1617 29.4564 39.1617C27.7711 39.1617 26.1459 38.6826 24.7615 37.7844L24.4605 37.6048L24.1596 37.7844C22.7752 38.6826 21.15 39.1617 19.4646 39.1617C16.6356 39.1617 13.927 37.7844 12.3018 35.4491C10.6766 33.1138 10.3155 30.1198 11.2786 27.485L15.4318 16.4072C16.6958 13.0539 20.0063 10.7784 23.6178 10.7784H25.3032C28.9147 10.7784 32.2252 13.0539 33.4893 16.4072L37.6425 27.485C38.6657 30.1198 38.3046 33.1138 36.6192 35.4491ZM32.5864 16.7066C31.4427 13.7126 28.5535 11.6766 25.3032 11.6766H23.6178C20.3675 11.6766 17.4783 13.7126 16.3347 16.7066L12.1814 27.7844C11.2786 30.1796 11.6397 32.8144 13.0843 34.9102C14.5289 37.006 16.9366 38.2635 19.4646 38.2635C21.3306 38.2635 23.0761 37.6048 24.4605 36.4671C25.8449 37.6048 27.5905 38.2635 29.4564 38.2635C31.9845 38.2635 34.3921 37.006 35.8367 34.9102C37.2813 32.8144 37.6425 30.1796 36.7396 27.7844L32.5864 16.7066ZM35.0542 34.3114C33.7902 36.1078 31.7437 37.1856 29.5166 37.1856C27.7711 37.1856 26.1459 36.5269 24.8819 35.3293L24.5207 34.9701L24.1596 35.3293C22.8955 36.5269 21.2704 37.1856 19.5248 37.1856C17.2977 37.1856 15.2512 36.1078 13.9872 34.3114C12.7232 32.515 12.4222 30.1796 13.2047 28.1437L17.3579 17.0659C18.321 14.4311 20.9092 12.6946 23.678 12.6946H25.3634C28.1924 12.6946 30.7204 14.4311 31.6835 17.0659L35.8367 28.1437C36.6192 30.2395 36.3183 32.515 35.0542 34.3114ZM30.7806 17.3653C29.938 15.0898 27.7109 13.5928 25.3032 13.5928H23.6178C21.2102 13.5928 18.9831 15.0898 18.1404 17.3653L13.9872 28.4431C13.3251 30.2395 13.5658 32.2156 14.6493 33.7725C15.7327 35.3293 17.5385 36.2874 19.4646 36.2874C21.5111 36.2874 23.4373 35.2096 24.4605 33.4731C25.4838 35.2096 27.4099 36.2874 29.4564 36.2874C31.3825 36.2874 33.1281 35.3293 34.2717 33.7725C35.3552 32.2156 35.596 30.2395 34.9339 28.4431L30.7806 17.3653ZM33.4291 33.2335C32.5262 34.5509 31.0816 35.2695 29.4564 35.2695C27.5303 35.2695 25.7847 34.1317 25.0022 32.3353L24.8819 32.0359H24.0392L23.9188 32.3353C23.1965 34.1317 21.3907 35.2695 19.4646 35.2695C17.8996 35.2695 16.3948 34.491 15.492 33.2335C14.5891 31.976 14.4085 30.2994 15.0104 28.8024L19.1637 17.7246C19.886 15.8683 21.6917 14.6108 23.678 14.6108H25.3634C27.3497 14.6108 29.1555 15.8683 29.8778 17.7246L34.031 28.8024C34.5125 30.2994 34.3319 31.9162 33.4291 33.2335ZM28.9147 18.0838C28.373 16.5868 26.8682 15.5689 25.3032 15.5689H23.6178C21.9927 15.5689 20.5481 16.5868 20.0063 18.0838L15.8531 29.1617C15.4318 30.3593 15.5522 31.6766 16.2745 32.6946C16.9968 33.7126 18.2006 34.3713 19.4646 34.3713C21.0898 34.3713 22.5344 33.3533 23.0761 31.8563L23.3169 31.1377H25.4838L25.7245 31.8563C26.2663 33.4132 27.7109 34.4311 29.3962 34.4311C30.6603 34.4311 31.8641 33.8323 32.5864 32.7545C33.3087 31.7365 33.4893 30.4192 33.0077 29.2216L28.9147 18.0838ZM31.8039 32.0958C31.2622 32.8742 30.4195 33.2934 29.4564 33.2934C28.2526 33.2934 27.1691 32.515 26.7478 31.4371L26.2663 30.0599H22.6548L22.113 31.4371C21.6917 32.5748 20.6083 33.2934 19.4646 33.2934C18.5015 33.2934 17.6589 32.8144 17.1171 32.0958C16.5754 31.3174 16.455 30.3593 16.8162 29.4611L20.9694 18.3832C21.3907 17.3054 22.4742 16.5269 23.6178 16.5269H25.3032C26.507 16.5269 27.5303 17.2455 27.9516 18.3832L32.1049 29.4611C32.466 30.3593 32.3456 31.3772 31.8039 32.0958ZM27.1089 18.7425C26.808 18.024 26.0857 17.485 25.3032 17.485H23.6178C22.8353 17.485 22.113 17.9641 21.8121 18.7425L17.6589 29.8204C17.4181 30.4192 17.5385 31.0778 17.8996 31.5569C18.2608 32.0958 18.8627 32.3952 19.4646 32.3952C20.2471 32.3952 20.9694 31.9162 21.2704 31.1377L21.8121 29.7006C21.9325 29.3413 22.2936 29.1018 22.6548 29.1018H26.3265C26.6876 29.1018 27.0488 29.3413 27.1691 29.7006L27.6507 31.1377C27.9516 31.9162 28.6739 32.3952 29.4564 32.3952C30.0583 32.3952 30.6602 32.0958 31.0214 31.5569C31.3825 31.018 31.4427 30.3593 31.2622 29.8204L27.1089 18.7425ZM30.2389 31.018C30.0583 31.2575 29.8176 31.3772 29.5166 31.3772C29.1555 31.3772 28.7943 31.1377 28.6739 30.7784L28.1924 29.3413C27.8914 28.5629 27.1691 28.0838 26.3866 28.0838H22.715C21.9325 28.0838 21.2102 28.5629 20.9092 29.3413L20.3675 30.7784C20.2471 31.1377 19.886 31.3772 19.5248 31.3772C19.2238 31.3772 18.9831 31.2575 18.8025 31.018C18.6219 30.7784 18.6219 30.479 18.6821 30.1796L22.8353 19.1018C22.9557 18.7425 23.3169 18.503 23.678 18.503H25.3634C25.7245 18.503 26.0857 18.7425 26.2061 19.1018L30.3593 30.1796C30.4195 30.479 30.3593 30.7784 30.2389 31.018Z" fill="url(#paint0_linear_2401_15426)"/>
<path d="M73.296 31H75.728L71.536 19.8H68.64L64.448 31H66.864L67.824 28.36H72.352L73.296 31ZM68.608 26.184L70.08 22.12L71.552 26.184H68.608ZM79.3559 28.824V19.8H77.0679V31H84.1559V28.824H79.3559ZM89.7796 24.92V26.84H93.5396C93.1556 28.28 91.8916 29.08 90.3556 29.08C88.1636 29.08 86.9156 27.48 86.9156 25.448C86.9156 23.288 88.3236 21.784 90.3876 21.784C91.7636 21.784 92.8356 22.44 93.3636 23.512H95.8116C95.1556 21.208 93.0756 19.608 90.4036 19.608C87.0596 19.608 84.6116 22.072 84.6116 25.416C84.6116 28.776 87.0596 31.192 90.1796 31.192C92.0676 31.192 93.4436 30.312 93.9556 29.112V31H95.9076V24.92H89.7796ZM105.899 31H108.331L104.139 19.8H101.243L97.0505 31H99.4665L100.427 28.36H104.955L105.899 31ZM101.211 26.184L102.683 22.12L104.155 26.184H101.211Z" fill="white"/>
<defs>
<linearGradient id="paint0_linear_2401_15426" x1="24.5" y1="0" x2="24.5" y2="50" gradientUnits="userSpaceOnUse">
<stop stop-color="#4AD66D"/>
<stop offset="1" stop-color="#04AC2E"/>
</linearGradient>
</defs>
</svg>
