<svg width="30" height="30" viewBox="0 0 30 30" fill="none" xmlns="http://www.w3.org/2000/svg">
<circle cx="15" cy="15" r="15" fill="white"/>
<g clip-path="url(#clip0_3289_25618)">
<path d="M15.0017 5.04208L17.4689 7.5612L11.2563 13.7553L8.78906 11.2954L15.0017 5.04208Z" fill="#F0B90B"/>
<path fill-rule="evenodd" clip-rule="evenodd" d="M15.0008 4.99982L17.5097 7.56145L11.2553 13.7972L8.74609 11.2955L15.0008 4.99982ZM8.82997 11.2953L11.2553 13.7133L17.4261 7.56095L15.0005 5.08435L8.82997 11.2953Z" fill="#F0B90B"/>
<path d="M18.7471 8.7763L21.2144 11.2954L11.2563 21.2237L8.78906 18.7639L18.7471 8.7763Z" fill="#F0B90B"/>
<path fill-rule="evenodd" clip-rule="evenodd" d="M18.7463 8.73407L21.2552 11.2957L11.2553 21.2656L8.74609 18.7639L18.7463 8.73407ZM8.83005 18.7638L11.2553 21.1818L21.1716 11.2952L18.746 8.81853L8.83005 18.7638Z" fill="#F0B90B"/>
<path d="M7.5102 12.5105L9.97742 15.0296L7.5102 17.4895L5.04297 15.0296L7.5102 12.5105Z" fill="#F0B90B"/>
<path fill-rule="evenodd" clip-rule="evenodd" d="M7.50902 12.4681L10.018 15.0299L7.50902 17.5314L5 15.0299L7.50902 12.4681ZM5.08358 15.0294L7.50902 17.4476L9.93446 15.0294L7.50902 12.5529L5.08358 15.0294Z" fill="#F0B90B"/>
<path d="M22.4893 12.5105L24.9566 15.0296L14.9985 24.9579L12.5312 22.4981L22.4893 12.5105Z" fill="#F0B90B"/>
<path fill-rule="evenodd" clip-rule="evenodd" d="M22.4924 12.4683L25.0013 15.0299L15.0014 24.9998L12.4922 22.4981L22.4924 12.4683ZM12.5761 22.498L15.0014 24.916L24.9177 15.0294L22.4921 12.5527L12.5761 22.498Z" fill="#F0B90B"/>
</g>
<defs>
<clipPath id="clip0_3289_25618">
<rect width="20" height="20" fill="white" transform="translate(5 5)"/>
</clipPath>
</defs>
</svg>
