<svg width="30" height="30" viewBox="0 0 30 30" fill="none" xmlns="http://www.w3.org/2000/svg">
<g clip-path="url(#clip0_3289_27589)">
<path fill-rule="evenodd" clip-rule="evenodd" d="M15 0C23.2849 0 30 6.71514 30 15C30 23.2849 23.2849 30 15 30C6.71514 30 0 23.2849 0 15C0 6.71514 6.71514 0 15 0Z" fill="#F0B90B"/>
<path d="M8.24399 15L8.25481 18.9663L11.625 20.9495V23.2716L6.28245 20.1382V13.8401L8.24399 15ZM8.24399 11.0337V13.345L6.28125 12.1839V9.8726L8.24399 8.71154L10.2163 9.8726L8.24399 11.0337ZM13.0325 9.8726L14.9952 8.71154L16.9675 9.8726L14.9952 11.0337L13.0325 9.8726Z" fill="white"/>
<path d="M9.66211 18.1442V15.8221L11.6248 16.9832V19.2945L9.66211 18.1442ZM13.0323 21.7812L14.995 22.9423L16.9674 21.7812V24.0925L14.995 25.2536L13.0323 24.0925V21.7812ZM19.7823 9.8726L21.745 8.71154L23.7174 9.8726V12.1839L21.745 13.345V11.0337L19.7823 9.8726ZM21.745 18.9663L21.7559 15L23.7186 13.8389V20.137L18.3761 23.2704V20.9483L21.745 18.9663Z" fill="white"/>
<path d="M20.3377 18.1442L18.375 19.2945V16.9832L20.3377 15.8221V18.1442Z" fill="white"/>
<path d="M20.3376 11.8558L20.3484 14.1779L16.9686 16.1611V20.137L15.0059 21.2873L13.0431 20.137V16.1611L9.66331 14.1779V11.8558L11.6345 10.6947L14.9938 12.6875L18.3736 10.6947L20.346 11.8558H20.3376ZM9.66211 7.89063L14.995 4.7464L20.3376 7.89063L18.3749 9.05168L14.995 7.0589L11.6248 9.05168L9.66211 7.89063Z" fill="white"/>
</g>
<defs>
<clipPath id="clip0_3289_27589">
<rect width="30" height="30" fill="white"/>
</clipPath>
</defs>
</svg>
