<svg width="30" height="30" viewBox="0 0 30 30" fill="none" xmlns="http://www.w3.org/2000/svg">
<path d="M15 30C23.2843 30 30 23.2843 30 15C30 6.71573 23.2843 0 15 0C6.71573 0 0 6.71573 0 15C0 23.2843 6.71573 30 15 30Z" fill="white"/>
<g clip-path="url(#clip0_3289_25894)">
<path fill-rule="evenodd" clip-rule="evenodd" d="M8.02786 7.08839L4.01649 15.0133C4.00123 15.0428 3.99639 15.0761 4.00269 15.1084C4.00898 15.1406 4.02609 15.1701 4.05149 15.1926L14.8852 24.9567C14.916 24.9845 14.957 25 14.9996 25C15.0423 25 15.0833 24.9845 15.114 24.9567L25.9478 15.1932C25.9732 15.1707 25.9903 15.1412 25.9966 15.109C26.0029 15.0767 25.9981 15.0434 25.9828 15.014L21.9714 7.089C21.9585 7.06238 21.9377 7.03984 21.9114 7.02405C21.8852 7.00827 21.8548 6.99992 21.8236 7H8.17694C8.14567 6.99963 8.11496 7.00778 8.08851 7.02347C8.06206 7.03915 8.04099 7.0617 8.02786 7.08839Z" fill="#50AF95"/>
<path fill-rule="evenodd" clip-rule="evenodd" d="M16.3929 15.8272C16.3151 15.8327 15.9133 15.8552 15.0169 15.8552C14.3039 15.8552 13.7977 15.8351 13.6201 15.8272C10.8649 15.7132 8.80828 15.2621 8.80828 14.722C8.80828 14.1818 10.8649 13.7313 13.6201 13.6155V15.3779C13.8003 15.3901 14.3162 15.4187 15.0292 15.4187C15.8847 15.4187 16.3132 15.3852 16.3903 15.3785V13.6167C19.1397 13.7319 21.1918 14.1831 21.1918 14.722C21.1918 15.2608 19.1404 15.712 16.3903 15.8266L16.3929 15.8272ZM16.3929 13.4345V11.8574H20.2299V9.45247H9.7831V11.8574H13.6195V13.4338C10.5012 13.5686 8.15625 14.1495 8.15625 14.8457C8.15625 15.5419 10.5012 16.1222 13.6195 16.2576V21.3112H16.3922V16.2557C19.5033 16.121 21.8444 15.5407 21.8444 14.8451C21.8444 14.1495 19.5053 13.5692 16.3922 13.4338L16.3929 13.4345Z" fill="white"/>
</g>
<defs>
<clipPath id="clip0_3289_25894">
<rect width="22" height="18" fill="white" transform="translate(4 7)"/>
</clipPath>
</defs>
</svg>
