<svg width="30" height="30" viewBox="0 0 30 30" fill="none" xmlns="http://www.w3.org/2000/svg">
<circle cx="15" cy="15" r="15" fill="white"/>
<g clip-path="url(#clip0_3289_27157)">
<path d="M9 15.9811C11.1143 17.252 13.3206 18.5824 15.0247 19.6118L21 15.9811C18.8364 19.6192 17.0337 22.648 15.0247 26C13.012 22.6554 10.7893 18.9648 9 15.9811ZM9.22981 14.9776L15.0312 11.4736L20.757 14.9519L15.0345 18.4598L9.22981 14.9776ZM15.0247 10.351L9 13.9408L14.9984 4L21 13.9631L15.0247 10.351Z" fill="#3AB83A"/>
<path d="M15.0243 19.6118L20.9997 15.9811C18.8361 19.6192 15.0243 26 15.0243 26V19.6118ZM15.0309 11.4736L20.7567 14.9519L15.0341 18.4598L15.0309 11.4736ZM15.0243 10.3512L14.998 4L20.9997 13.9631L15.0243 10.3512Z" fill="#0B8311"/>
<path d="M9.23047 14.9776L15.0322 15.5165L20.758 14.9554L15.0351 18.4635L9.23047 14.9776Z" fill="#0B8311"/>
<path d="M15.0312 15.5165L20.7571 14.9554L15.0345 18.4635L15.0312 15.5165Z" fill="#146714"/>
</g>
<defs>
<clipPath id="clip0_3289_27157">
<rect width="12" height="22" fill="white" transform="translate(9 4)"/>
</clipPath>
</defs>
</svg>
