<svg width="30" height="30" viewBox="0 0 30 30" fill="none" xmlns="http://www.w3.org/2000/svg">
<circle cx="15" cy="15" r="15" fill="white"/>
<path fill-rule="evenodd" clip-rule="evenodd" d="M14.9431 18.8559C14.9527 18.8559 14.9605 18.8641 14.9605 18.8743L14.9605 20.1394C14.9605 20.1495 14.9527 20.1578 14.9431 20.1578C14.9336 20.1578 14.9258 20.1495 14.9258 20.1394L14.9258 18.8743C14.9258 18.8641 14.9335 18.8559 14.9431 18.8559Z" fill="#14044D"/>
<path fill-rule="evenodd" clip-rule="evenodd" d="M14.9434 13.3274L21.1325 16.259L14.9434 20.1394V13.3274Z" fill="#14044D" fill-opacity="0.795578"/>
<path fill-rule="evenodd" clip-rule="evenodd" d="M14.9401 13.3223C14.9418 13.3211 14.9438 13.321 14.9456 13.3218L21.1347 16.2534C21.1367 16.2543 21.138 16.2564 21.1382 16.2586C21.1383 16.2609 21.1372 16.2631 21.1353 16.2643L14.9462 20.1447C14.9444 20.1458 14.9422 20.1458 14.9404 20.1447C14.9386 20.1436 14.9375 20.1416 14.9375 20.1394V13.3274C14.9375 13.3253 14.9385 13.3234 14.9401 13.3223ZM14.9491 13.3369V20.1286L21.1198 16.2598L14.9491 13.3369Z" fill="#14044D"/>
<path fill-rule="evenodd" clip-rule="evenodd" d="M14.9433 13.3274V20.1394L8.76562 16.2712L14.9433 13.3274Z" fill="url(#paint0_linear_3289_26964)" fill-opacity="0.795578"/>
<path fill-rule="evenodd" clip-rule="evenodd" d="M14.9463 13.3223C14.948 13.3234 14.949 13.3253 14.949 13.3274V20.1394C14.949 20.1416 14.9479 20.1436 14.9461 20.1447C14.9443 20.1458 14.942 20.1458 14.9403 20.1447L8.76261 16.2764C8.76075 16.2753 8.75965 16.2731 8.75977 16.2708C8.75989 16.2685 8.76121 16.2665 8.76318 16.2656L14.9408 13.3218C14.9426 13.321 14.9447 13.3211 14.9463 13.3223ZM8.7781 16.2719L14.9374 20.1286V13.3369L8.7781 16.2719Z" fill="#14044D"/>
<path d="M14.9434 20.1394V25.5038L21.121 16.259L14.9434 20.1394Z" fill="#37367B" fill-opacity="0.796849"/>
<path fill-rule="evenodd" clip-rule="evenodd" d="M21.1252 16.2548C21.127 16.257 21.1272 16.2602 21.1256 16.2625L14.948 25.5074C14.9465 25.5095 14.9439 25.5105 14.9415 25.5096C14.9391 25.5088 14.9375 25.5065 14.9375 25.5038V20.1394C14.9375 20.1372 14.9386 20.1352 14.9403 20.1341L21.118 16.2537C21.1203 16.2522 21.1233 16.2527 21.1252 16.2548ZM14.9491 20.1429V25.4846L21.1005 16.279L14.9491 20.1429Z" fill="#14044D"/>
<path d="M8.76562 16.2712L14.9433 25.5038V20.1394L8.76562 16.2712Z" fill="#716B94" fill-opacity="0.801464"/>
<path fill-rule="evenodd" clip-rule="evenodd" d="M8.76129 16.267C8.76314 16.2649 8.76614 16.2644 8.76848 16.2659L14.9461 20.1341C14.9479 20.1352 14.949 20.1372 14.949 20.1394V25.5038C14.949 25.5065 14.9473 25.5088 14.945 25.5096C14.9426 25.5105 14.9399 25.5095 14.9385 25.5074L8.76083 16.2747C8.75925 16.2724 8.75944 16.2691 8.76129 16.267ZM8.78595 16.2911L14.9374 25.4846V20.1429L8.78595 16.2911Z" fill="#14044D"/>
<path fill-rule="evenodd" clip-rule="evenodd" d="M14.9433 13.3274L21.1209 16.259L14.9433 20.1394L8.76562 16.2712L14.9433 13.3274Z" fill="url(#paint1_linear_3289_26964)" fill-opacity="0.816398"/>
<path fill-rule="evenodd" clip-rule="evenodd" d="M14.9408 13.3218C14.9423 13.3211 14.9441 13.3211 14.9456 13.3218L21.1232 16.2534C21.1252 16.2543 21.1265 16.2564 21.1266 16.2586C21.1267 16.2609 21.1257 16.2631 21.1238 16.2643L14.9461 20.1447C14.9443 20.1458 14.9421 20.1458 14.9403 20.1447L8.76261 16.2764C8.76075 16.2753 8.75965 16.2731 8.75977 16.2708C8.75989 16.2685 8.76121 16.2665 8.76318 16.2656L14.9408 13.3218ZM14.9432 13.3341L8.7781 16.2719L14.9432 20.1323L21.1083 16.2598L14.9432 13.3341Z" fill="#14044D"/>
<path fill-rule="evenodd" clip-rule="evenodd" d="M14.9433 12.0623L21.1209 15.0061L14.9433 18.8621L8.76562 15.0061L14.9433 12.0623Z" fill="#37367B" fill-opacity="0.91861"/>
<path fill-rule="evenodd" clip-rule="evenodd" d="M14.9408 12.0568C14.9423 12.056 14.9441 12.056 14.9456 12.0568L21.1232 15.0005C21.1252 15.0014 21.1265 15.0035 21.1266 15.0057C21.1267 15.008 21.1256 15.0102 21.1238 15.0114L14.9461 18.8674C14.9443 18.8686 14.9421 18.8686 14.9403 18.8674L8.76261 15.0114C8.76075 15.0102 8.75966 15.008 8.75977 15.0057C8.75989 15.0035 8.76121 15.0014 8.76318 15.0005L14.9408 12.0568ZM8.77812 15.0068L14.9432 18.855L21.1083 15.0068L14.9432 12.0691L8.77812 15.0068Z" fill="#14044D"/>
<path d="M21.121 15.0061L14.9434 4.11911V18.8743L21.121 15.0061Z" fill="#37367B" fill-opacity="0.798535"/>
<path fill-rule="evenodd" clip-rule="evenodd" d="M14.9417 4.1132C14.9442 4.11246 14.9469 4.11359 14.9482 4.11595L21.1259 15.0029C21.1267 15.0043 21.1269 15.006 21.1265 15.0076C21.1262 15.0092 21.1252 15.0105 21.1239 15.0114L14.9462 18.8796C14.9444 18.8807 14.9422 18.8807 14.9404 18.8796C14.9386 18.8785 14.9375 18.8765 14.9375 18.8743V4.11911C14.9375 4.11635 14.9392 4.11394 14.9417 4.1132ZM14.9491 4.14119V18.8636L21.113 15.0039L14.9491 4.14119Z" fill="#14044D"/>
<path d="M14.9433 4.11911L8.76562 15.0061L14.9433 18.8743V4.11911Z" fill="#716B94" fill-opacity="0.801255"/>
<path fill-rule="evenodd" clip-rule="evenodd" d="M14.9447 4.1132C14.9472 4.11394 14.949 4.11635 14.949 4.11911V18.8743C14.949 18.8765 14.9479 18.8785 14.9461 18.8796C14.9443 18.8807 14.942 18.8807 14.9403 18.8796L8.76261 15.0114C8.76128 15.0105 8.76032 15.0092 8.75994 15.0076C8.75956 15.006 8.7598 15.0043 8.76059 15.0029L14.9382 4.11595C14.9396 4.11359 14.9422 4.11246 14.9447 4.1132ZM8.77351 15.0039L14.9374 18.8636V4.14118L8.77351 15.0039Z" fill="#14044D"/>
<defs>
<linearGradient id="paint0_linear_3289_26964" x1="8.76562" y1="16.7334" x2="14.9433" y2="16.7334" gradientUnits="userSpaceOnUse">
<stop stop-color="#716B94"/>
<stop offset="1" stop-color="#37367B"/>
</linearGradient>
<linearGradient id="paint1_linear_3289_26964" x1="8.76562" y1="16.7334" x2="21.1209" y2="16.7334" gradientUnits="userSpaceOnUse">
<stop stop-color="#716B94"/>
<stop offset="1" stop-color="#37367B"/>
</linearGradient>
</defs>
</svg>
