<svg width="30" height="30" viewBox="0 0 30 30" fill="none" xmlns="http://www.w3.org/2000/svg">
<g clip-path="url(#clip0_3289_25873)">
<path d="M15 30C23.2843 30 30 23.2843 30 15C30 6.71573 23.2843 0 15 0C6.71573 0 0 6.71573 0 15C0 23.2843 6.71573 30 15 30Z" fill="#00DCFA"/>
<path d="M18.1669 4.6875C14.5388 4.6875 11.4572 7.4775 11.07 11.0691C7.47656 11.4572 4.6875 14.5388 4.6875 18.1659C4.68849 20.0609 5.44162 21.8779 6.78145 23.2179C8.12127 24.5579 9.93821 25.3113 11.8331 25.3125C15.4612 25.3125 18.555 22.5225 18.93 18.9309C22.5225 18.5428 25.3125 15.4613 25.3125 11.8341C25.3115 9.93914 24.5584 8.12211 23.2186 6.78211C21.8787 5.44211 20.0618 4.68874 18.1669 4.6875ZM23.6381 12.6337C23.4597 13.8057 22.9114 14.8899 22.0731 15.7281C21.2349 16.5664 20.1507 17.1147 18.9787 17.2931V12.6337H23.6381ZM6.36187 17.3663C6.53789 16.1921 7.08518 15.1051 7.92361 14.2645C8.76204 13.4239 9.84757 12.8738 11.0212 12.6947V17.3541H6.36187V17.3663ZM17.3053 18.9787C17.1117 20.2914 16.4524 21.4906 15.4477 22.3573C14.443 23.2239 13.16 23.7002 11.8331 23.6991C10.5065 23.7002 9.22378 23.224 8.21924 22.3576C7.21471 21.4911 6.55544 20.2921 6.36187 18.9797H17.3053V18.9787ZM17.3663 12.6337V17.3541H12.6337V12.6337H17.3663ZM23.6381 11.0212H12.6947C12.8883 9.70859 13.5476 8.50939 14.5523 7.64272C15.557 6.77606 16.84 6.2998 18.1669 6.30094C19.4935 6.29979 20.7762 6.77596 21.7808 7.64245C22.7853 8.50894 23.4446 9.7079 23.6381 11.0203V11.0212Z" fill="white"/>
</g>
<defs>
<clipPath id="clip0_3289_25873">
<rect width="30" height="30" fill="white"/>
</clipPath>
</defs>
</svg>
