<svg width="30" height="30" viewBox="0 0 30 30" fill="none" xmlns="http://www.w3.org/2000/svg">
<g clip-path="url(#clip0_3289_25890)">
<path d="M15 30C23.3125 30 30 23.3125 30 15C30 6.68745 23.3125 0 15 0C6.68745 0 0 6.68745 0 15C0 23.3125 6.68745 30 15 30Z" fill="#2775CA"/>
<path d="M19.125 17.3749C19.125 15.1875 17.8125 14.4375 15.1875 14.125C13.3125 13.875 12.9375 13.375 12.9375 12.4999C12.9375 11.6248 13.5625 11.0625 14.8125 11.0625C15.9375 11.0625 16.5625 11.4375 16.875 12.375C16.9375 12.5625 17.125 12.6874 17.3125 12.6874H18.3124C18.5624 12.6874 18.75 12.4999 18.75 12.25V12.1875C18.4999 10.8124 17.3749 9.75 15.9375 9.62505V8.12505C15.9375 7.875 15.75 7.6875 15.4375 7.62495H14.5C14.25 7.62495 14.0625 7.81245 13.9999 8.12505V9.5625C12.1249 9.81255 10.9375 11.0625 10.9375 12.625C10.9375 14.6875 12.1875 15.4999 14.8125 15.8125C16.5625 16.125 17.125 16.5 17.125 17.5C17.125 18.5001 16.2499 19.1875 15.0625 19.1875C13.4374 19.1875 12.8749 18.4999 12.6874 17.5624C12.625 17.3125 12.4375 17.1874 12.25 17.1874H11.1874C10.9375 17.1874 10.75 17.3749 10.75 17.625V17.6875C10.9999 19.2499 12 20.3749 14.0625 20.6875V22.1875C14.0625 22.4374 14.25 22.6249 14.5624 22.6875H15.4999C15.7499 22.6875 15.9375 22.5 16 22.1875V20.6875C17.875 20.3749 19.125 19.0624 19.125 17.3749Z" fill="white"/>
<path d="M11.8118 23.9375C6.93677 22.1876 4.43672 16.7501 6.24932 11.9375C7.18682 9.31245 9.24932 7.3125 11.8118 6.375C12.0618 6.25005 12.1868 6.06255 12.1868 5.74995V4.875C12.1868 4.62495 12.0618 4.43745 11.8118 4.37505C11.7492 4.37505 11.6243 4.37505 11.5617 4.43745C5.62427 6.31245 2.37422 12.6251 4.24922 18.5625C5.37422 22.0625 8.06177 24.75 11.5617 25.875C11.8118 26 12.0618 25.875 12.1242 25.625C12.1868 25.5626 12.1868 25.5 12.1868 25.3751V24.5C12.1868 24.3125 11.9993 24.0626 11.8118 23.9375ZM18.4368 4.43745C18.1868 4.3125 17.9367 4.43745 17.8743 4.6875C17.8118 4.75005 17.8118 4.81245 17.8118 4.93755V5.8125C17.8118 6.06255 17.9993 6.31245 18.1868 6.43755C23.0618 8.18745 25.5618 13.625 23.7492 18.4376C22.8117 21.0626 20.7492 23.0625 18.1868 24C17.9367 24.125 17.8118 24.3125 17.8118 24.6251V25.5C17.8118 25.7501 17.9367 25.9376 18.1868 26C18.2493 26 18.3743 26 18.4368 25.9376C24.3743 24.0626 27.6243 17.75 25.7493 11.8125C24.6243 8.25 21.8742 5.56245 18.4368 4.43745Z" fill="white"/>
</g>
<defs>
<clipPath id="clip0_3289_25890">
<rect width="30" height="30" fill="white"/>
</clipPath>
</defs>
</svg>
